SplineFontDB: 3.2
# MODIFICATION NOTICE: This font file has been modified by Subham Mahesh on September 5, 2025
# Original sources: Google Tinos (Apache License 2.0) and MFB Oldstyle (CC0 1.0 Universal)
# Modifications include: Font merging, metadata updates 
# All modifications are licensed under GNU Lesser General Public License Version 3 (lgpl v3)
# Original copyright notices and licenses are preserved below
FontName: Old-Country-Nobility
FullName: Old Country Nobility
FamilyName: Old Country Nobility
Weight: Book
Copyright: Digitized data copyright (c) 2010-2012 Google Corporation. Certain parts of fonts from MFB Oldstyle https://github.com/dbenjaminmiller/mfb-oldstyle released under CC0 1.0 Universal. 
Comment: CHANGELOG - Version 1.0 (September 2025): Initial merge of Google Tinos and MFB Oldstyle fonts by Subham Mahesh. Combined character sets from both fonts. Resolved glyph conflicts and overlapping Unicode points. Added proper kerning tables for merged characters. Maintained original design integrity of both source fonts. Fixed metadata spelling and grammar errors. Updated license information to reflect LGPL v3 for modifications. Enhanced font information fields with proper attribution. All changes documented for future reference and compliance.
Version: 1.000;Glyphs 3.2.3 (3260)
Descriptor: Old Country Nobility is a merged  combining Google Tinos fonts (digitized 2010-2012 Google Corporation, Apache License 2.0) and MFB Oldstyle (released under CC0 1.0 Universal at https://github.com/dbenjaminmiller/mfb-oldstyle). Font modifications performed by Subham Mahesh on 5 September 2025. Modifications include: merged character sets from both source fonts, resolved glyph conflicts and overlapping Unicode points, added proper kerning tables, maintained original design integrity, updated metadata and licensing. Modified portions by subham mahesh licensed under GNU Lesser General Public License v3.
ItalicAngle: 0
UnderlinePosition: -125
UnderlineWidth: 50
Ascent: 800

StartChar: .notdef
Encoding: 65536 -1 0
Width: 625
GlyphClass: 1
Flags: W
LayerCount: 2
Fore
SplineSet
513 970 m 1,0,-1
 513 -280 l 1,1,-1
 116 -280 l 1,2,-1
 116 970 l 1,3,-1
 513 970 l 1,0,-1
416 118 m 1,4,-1
 209 118 l 1,5,-1
 209 -24 l 1,6,-1
 416 -24 l 1,7,-1
 416 118 l 1,4,-1
375 76 m 1,8,-1
 375 18 l 1,9,-1
 250 18 l 1,10,-1
 250 76 l 1,11,-1
 375 76 l 1,8,-1
416 334 m 1,12,-1
 291 334 l 1,13,-1
 291 264 l 1,14,-1
 334 264 l 1,15,-1
 334 293 l 1,16,-1
 375 293 l 1,17,-1
 375 234 l 1,18,-1
 250 234 l 1,19,-1
 250 334 l 1,20,-1
 209 334 l 1,21,-1
 209 193 l 1,22,-1
 416 193 l 1,23,-1
 416 334 l 1,12,-1
416 486 m 1,24,-1
 375 486 l 1,25,-1
 375 404 l 1,26,-1
 209 404 l 1,27,-1
 209 361 l 1,28,-1
 416 361 l 1,29,-1
 416 486 l 1,24,-1
416 561 m 1,30,-1
 209 561 l 1,31,-1
 209 520 l 1,32,-1
 291 520 l 1,33,-1
 291 474 l 1,34,-1
 209 474 l 1,35,-1
 209 433 l 1,36,-1
 334 433 l 1,37,-1
 334 520 l 1,38,-1
 416 520 l 1,39,-1
 416 561 l 1,30,-1
291 683 m 1,40,-1
 291 638 l 1,41,-1
 250 638 l 1,42,-1
 250 683 l 1,43,-1
 291 683 l 1,40,-1
334 725 m 1,44,-1
 209 725 l 1,45,-1
 209 595 l 1,46,-1
 416 595 l 1,47,-1
 416 638 l 1,48,-1
 334 638 l 1,49,-1
 334 725 l 1,44,-1
416 886 m 1,50,-1
 210 886 l 1,51,-1
 210 845 l 1,52,-1
 291 845 l 1,53,-1
 291 799 l 1,54,-1
 209 799 l 1,55,-1
 209 758 l 1,56,-1
 416 758 l 1,57,-1
 416 799 l 1,58,-1
 334 799 l 1,59,-1
 334 845 l 1,60,-1
 416 845 l 1,61,-1
 416 886 l 1,50,-1
416 -52 m 1,62,-1
 209 -52 l 1,63,-1
 209 -94 l 1,64,-1
 296 -94 l 1,65,-1
 209 -152 l 1,66,-1
 209 -194 l 1,67,-1
 416 -194 l 1,68,-1
 416 -152 l 1,69,-1
 289 -152 l 1,70,-1
 376 -94 l 1,71,-1
 416 -94 l 1,72,-1
 416 -52 l 1,62,-1
EndSplineSet
EndChar

StartChar: exclam
Encoding: 33 33 4
Width: 295
GlyphClass: 1
Flags: W
LayerCount: 2
Fore
SplineSet
126 270 m 2,0,1
 126 371 126 371 114 447.5 c 128,-1,2
 102 524 102 524 89.5 571 c 128,-1,3
 77 618 77 618 77 647 c 0,4,5
 77 694 77 694 97.5 714.5 c 128,-1,6
 118 735 118 735 147 735 c 128,-1,7
 176 735 176 735 197 714 c 128,-1,8
 218 693 218 693 218 646 c 0,9,10
 218 618 218 618 206 571 c 128,-1,11
 194 524 194 524 181.5 447.5 c 128,-1,12
 169 371 169 371 169 270 c 2,13,-1
 169 202 l 1,14,-1
 126 202 l 1,15,-1
 126 270 l 2,0,1
148 -14 m 128,-1,17
 120 -14 120 -14 99.5 6 c 128,-1,18
 79 26 79 26 79 55 c 128,-1,19
 79 84 79 84 99.5 103.5 c 128,-1,20
 120 123 120 123 148 123 c 128,-1,21
 176 123 176 123 196 103.5 c 128,-1,22
 216 84 216 84 216 55 c 0,23,24
 216 25 216 25 196 5.5 c 128,-1,16
 176 -14 176 -14 148 -14 c 128,-1,17
EndSplineSet
EndChar

StartChar: quotedbl
Encoding: 34 34 5
Width: 358
GlyphClass: 1
Flags: W
LayerCount: 2
Fore
SplineSet
241 468 m 1,0,1
 241 502 241 502 221 576.5 c 128,-1,2
 201 651 201 651 201 674 c 0,3,4
 201 703 201 703 217.5 719 c 128,-1,5
 234 735 234 735 257 735 c 0,6,7
 281 735 281 735 298 719 c 128,-1,8
 315 703 315 703 315 674 c 0,9,10
 315 651 315 651 295 576.5 c 128,-1,11
 275 502 275 502 275 468 c 1,12,-1
 241 468 l 1,0,1
83 468 m 1,13,14
 83 502 83 502 63 576.5 c 128,-1,15
 43 651 43 651 43 674 c 0,16,17
 43 703 43 703 59.5 719 c 128,-1,18
 76 735 76 735 99 735 c 0,19,20
 123 735 123 735 140 719 c 128,-1,21
 157 703 157 703 157 674 c 0,22,23
 157 651 157 651 137 576.5 c 128,-1,24
 117 502 117 502 117 468 c 1,25,-1
 83 468 l 1,13,14
EndSplineSet
EndChar

StartChar: numbersign
Encoding: 35 35 6
Width: 601
GlyphClass: 1
Flags: W
LayerCount: 2
Fore
SplineSet
110 0 m 1,0,-1
 144 236 l 1,1,-1
 31 236 l 1,2,-1
 31 294 l 1,3,-1
 152 294 l 1,4,-1
 175 452 l 1,5,-1
 59 452 l 1,6,-1
 59 510 l 1,7,-1
 183 510 l 1,8,-1
 216 746 l 1,9,-1
 282 746 l 1,10,-1
 249 510 l 1,11,-1
 389 510 l 1,12,-1
 423 746 l 1,13,-1
 489 746 l 1,14,-1
 455 510 l 1,15,-1
 570 510 l 1,16,-1
 570 452 l 1,17,-1
 448 452 l 1,18,-1
 425 294 l 1,19,-1
 537 294 l 1,20,-1
 537 236 l 1,21,-1
 417 236 l 1,22,-1
 384 0 l 1,23,-1
 317 0 l 1,24,-1
 350 236 l 1,25,-1
 211 236 l 1,26,-1
 177 0 l 1,27,-1
 110 0 l 1,0,-1
218 294 m 1,28,-1
 359 294 l 1,29,-1
 382 452 l 1,30,-1
 241 452 l 1,31,-1
 218 294 l 1,28,-1
EndSplineSet
EndChar

StartChar: dollar
Encoding: 36 36 7
Width: 535
GlyphClass: 1
Flags: W
LayerCount: 2
Fore
SplineSet
227 2 m 1,0,1
 156 9 156 9 98.5 50 c 128,-1,2
 41 91 41 91 41 152 c 0,3,4
 41 183 41 183 56.5 205 c 128,-1,5
 72 227 72 227 103 227 c 0,6,7
 127 227 127 227 144.5 214.5 c 128,-1,8
 162 202 162 202 162 179 c 0,9,10
 162 159 162 159 142.5 142 c 128,-1,11
 123 125 123 125 123 116 c 0,12,13
 123 98 123 98 149.5 77 c 128,-1,14
 176 56 176 56 227 50 c 1,15,-1
 227 331 l 1,16,17
 190 343 190 343 164 356 c 128,-1,18
 138 369 138 369 110 391.5 c 128,-1,19
 82 414 82 414 67.5 448.5 c 128,-1,20
 53 483 53 483 53 528 c 0,21,22
 53 606 53 606 97.5 657 c 128,-1,23
 142 708 142 708 227 719 c 1,24,-1
 227 810 l 1,25,-1
 286 810 l 1,26,-1
 286 720 l 1,27,28
 374 714 374 714 418.5 670.5 c 128,-1,29
 463 627 463 627 463 584 c 0,30,31
 463 559 463 559 446.5 537.5 c 128,-1,32
 430 516 430 516 400 516 c 0,33,34
 377 516 377 516 359.5 529 c 128,-1,35
 342 542 342 542 342 566 c 0,36,37
 342 582 342 582 353 600 c 128,-1,38
 364 618 364 618 364 627 c 0,39,40
 364 645 364 645 342 659 c 128,-1,41
 320 673 320 673 286 678 c 1,42,-1
 286 425 l 1,43,44
 317 416 317 416 338 408.5 c 128,-1,45
 359 401 359 401 391 384 c 128,-1,46
 423 367 423 367 443 346 c 128,-1,47
 463 325 463 325 478 291 c 128,-1,48
 493 257 493 257 493 215 c 0,49,50
 493 178 493 178 482 144 c 128,-1,51
 471 110 471 110 448 79 c 128,-1,52
 425 48 425 48 383.5 27 c 128,-1,53
 342 6 342 6 286 1 c 1,54,-1
 286 -89 l 1,55,-1
 227 -89 l 1,56,-1
 227 2 l 1,0,1
286 49 m 1,57,58
 342 56 342 56 379 86.5 c 128,-1,59
 416 117 416 117 416 173 c 128,-1,60
 416 229 416 229 381 259.5 c 128,-1,61
 346 290 346 290 286 311 c 1,62,-1
 286 49 l 1,57,58
227 676 m 1,63,64
 177 667 177 667 151.5 637 c 128,-1,65
 126 607 126 607 126 564 c 0,66,67
 126 480 126 480 227 444 c 1,68,-1
 227 676 l 1,63,64
EndSplineSet
EndChar

StartChar: percent
Encoding: 37 37 8
Width: 643
GlyphClass: 1
Flags: W
LayerCount: 2
Fore
SplineSet
111 -1 m 1,0,-1
 486 732 l 1,1,-1
 535 732 l 1,2,-1
 161 -1 l 1,3,-1
 111 -1 l 1,0,-1
475 -14 m 128,-1,5
 420 -14 420 -14 381.5 49 c 128,-1,6
 343 112 343 112 343 197 c 0,7,8
 343 281 343 281 381 345 c 128,-1,9
 419 409 419 409 476 409 c 128,-1,10
 533 409 533 409 570.5 345 c 128,-1,11
 608 281 608 281 608 198 c 0,12,13
 608 114 608 114 569 50 c 128,-1,4
 530 -14 530 -14 475 -14 c 128,-1,5
476 16 m 0,14,15
 513 16 513 16 527 61.5 c 128,-1,16
 541 107 541 107 541 195 c 0,17,18
 541 291 541 291 526 334.5 c 128,-1,19
 511 378 511 378 475 378 c 0,20,21
 436 378 436 378 423 331 c 128,-1,22
 410 284 410 284 410 201 c 0,23,24
 410 114 410 114 423 65 c 128,-1,25
 436 16 436 16 476 16 c 0,14,15
168 319 m 0,26,27
 113 319 113 319 74.5 382 c 128,-1,28
 36 445 36 445 36 530 c 0,29,30
 36 614 36 614 74 678 c 128,-1,31
 112 742 112 742 168 742 c 0,32,33
 225 742 225 742 263 677.5 c 128,-1,34
 301 613 301 613 301 530 c 0,35,36
 301 445 301 445 261.5 382 c 128,-1,37
 222 319 222 319 168 319 c 0,26,27
169 349 m 0,38,39
 206 349 206 349 220 394.5 c 128,-1,40
 234 440 234 440 234 528 c 0,41,42
 234 624 234 624 219 667.5 c 128,-1,43
 204 711 204 711 168 711 c 0,44,45
 129 711 129 711 116 664 c 128,-1,46
 103 617 103 617 103 534 c 0,47,48
 103 447 103 447 116 398 c 128,-1,49
 129 349 129 349 169 349 c 0,38,39
EndSplineSet
EndChar

StartChar: ampersand
Encoding: 38 38 9
Width: 841
GlyphClass: 1
Flags: W
LayerCount: 2
Fore
SplineSet
287 -14 m 0,0,1
 184 -14 184 -14 114 42.5 c 128,-1,2
 44 99 44 99 44 182 c 0,3,4
 44 261 44 261 106.5 318.5 c 128,-1,5
 169 376 169 376 259 409 c 1,6,7
 255 420 255 420 244.5 447.5 c 128,-1,8
 234 475 234 475 228.5 490 c 128,-1,9
 223 505 223 505 218 528 c 128,-1,10
 213 551 213 551 213 571 c 0,11,12
 213 646 213 646 269.5 690.5 c 128,-1,13
 326 735 326 735 408 735 c 0,14,15
 482 735 482 735 530.5 698.5 c 128,-1,16
 579 662 579 662 579 600 c 0,17,18
 579 564 579 564 562.5 535.5 c 128,-1,19
 546 507 546 507 509.5 483 c 128,-1,20
 473 459 473 459 446 446.5 c 128,-1,21
 419 434 419 434 366 412 c 1,22,23
 433 270 433 270 534 134 c 1,24,25
 591 188 591 188 610 225 c 0,26,27
 640 282 640 282 640 316 c 0,28,29
 640 391 640 391 547 391 c 1,30,-1
 547 431 l 1,31,-1
 802 431 l 1,32,-1
 802 391 l 1,33,34
 732 391 732 391 703 324 c 0,35,36
 698 312 698 312 687.5 283.5 c 128,-1,37
 677 255 677 255 669.5 239.5 c 128,-1,38
 662 224 662 224 648 199 c 128,-1,39
 634 174 634 174 612.5 150 c 128,-1,40
 591 126 591 126 562 99 c 1,41,42
 612 54 612 54 656 54 c 0,43,44
 720 54 720 54 786 135 c 1,45,-1
 822 114 l 1,46,47
 740 -14 740 -14 629 -14 c 0,48,49
 549 -14 549 -14 495 46 c 1,50,51
 381 -14 381 -14 287 -14 c 0,0,1
321 45 m 0,52,53
 391 45 391 45 463 81 c 1,54,55
 358 191 358 191 277 373 c 1,56,57
 157 308 157 308 157 206 c 0,58,59
 157 142 157 142 201.5 93.5 c 128,-1,60
 246 45 246 45 321 45 c 0,52,53
348 451 m 1,61,62
 426 494 426 494 466.5 532 c 128,-1,63
 507 570 507 570 507 616 c 0,64,65
 507 657 507 657 477.5 678 c 128,-1,66
 448 699 448 699 411 699 c 0,67,68
 367 699 367 699 334 669 c 128,-1,69
 301 639 301 639 301 591 c 0,70,71
 301 548 301 548 348 451 c 1,61,62
EndSplineSet
EndChar

StartChar: quotesingle
Encoding: 39 39 10
Width: 200
GlyphClass: 1
Flags: W
LayerCount: 2
Fore
SplineSet
83 468 m 1,0,1
 83 502 83 502 63 576.5 c 128,-1,2
 43 651 43 651 43 674 c 0,3,4
 43 703 43 703 59.5 719 c 128,-1,5
 76 735 76 735 99 735 c 0,6,7
 123 735 123 735 140 719 c 128,-1,8
 157 703 157 703 157 674 c 0,9,10
 157 651 157 651 137 576.5 c 128,-1,11
 117 502 117 502 117 468 c 1,12,-1
 83 468 l 1,0,1
EndSplineSet
EndChar

StartChar: parenleft
Encoding: 40 40 11
Width: 360
GlyphClass: 1
Flags: W
LayerCount: 2
Fore
SplineSet
314 -195 m 1,0,1
 279 -174 279 -174 246.5 -148 c 128,-1,2
 214 -122 214 -122 178 -80.5 c 128,-1,3
 142 -39 142 -39 116.5 9.5 c 128,-1,4
 91 58 91 58 74 126 c 128,-1,5
 57 194 57 194 57 270 c 0,6,7
 57 364 57 364 81.5 444 c 128,-1,8
 106 524 106 524 147 580 c 128,-1,9
 188 636 188 636 228.5 672.5 c 128,-1,10
 269 709 269 709 314 735 c 1,11,-1
 314 696 l 1,12,13
 232 625 232 625 188.5 526 c 128,-1,14
 145 427 145 427 145 270 c 0,15,16
 145 114 145 114 188.5 14.5 c 128,-1,17
 232 -85 232 -85 314 -156 c 1,18,-1
 314 -195 l 1,0,1
EndSplineSet
Substitution2: "'rtla' Right to Left Alternates lookup 0 subtable" parenright
EndChar

StartChar: parenright
Encoding: 41 41 12
Width: 360
GlyphClass: 1
Flags: W
LayerCount: 2
Fore
SplineSet
46 -156 m 1,0,1
 128 -85 128 -85 171.5 14.5 c 128,-1,2
 215 114 215 114 215 270 c 0,3,4
 215 427 215 427 171.5 526 c 128,-1,5
 128 625 128 625 46 696 c 1,6,-1
 46 735 l 1,7,8
 91 709 91 709 131.5 672.5 c 128,-1,9
 172 636 172 636 213 580 c 128,-1,10
 254 524 254 524 278.5 444 c 128,-1,11
 303 364 303 364 303 270 c 0,12,13
 303 194 303 194 286 126 c 128,-1,14
 269 58 269 58 243.5 9.5 c 128,-1,15
 218 -39 218 -39 182 -80.5 c 128,-1,16
 146 -122 146 -122 113.5 -148 c 128,-1,17
 81 -174 81 -174 46 -195 c 1,18,-1
 46 -156 l 1,0,1
EndSplineSet
Substitution2: "'rtla' Right to Left Alternates lookup 0 subtable" parenleft
EndChar

StartChar: asterisk
Encoding: 42 42 13
Width: 475
GlyphClass: 1
Flags: W
LayerCount: 2
Fore
SplineSet
155 408 m 0,0,1
 140 408 140 408 132 415 c 0,2,3
 117 427 117 427 117 447 c 0,4,5
 117 466 117 466 128 478 c 0,6,7
 134 485 134 485 165.5 506.5 c 128,-1,8
 197 528 197 528 213 550 c 1,9,10
 186 558 186 558 157 558 c 2,11,-1
 122 557 l 2,12,13
 110 557 110 557 99 560 c 0,14,15
 85 564 85 564 76 576.5 c 128,-1,16
 67 589 67 589 67 602 c 0,17,18
 67 618 67 618 79.5 629 c 128,-1,19
 92 640 92 640 109 640 c 0,20,21
 114 640 114 640 124 638 c 0,22,23
 134 635 134 635 165 611 c 128,-1,24
 196 587 196 587 223 578 c 1,25,26
 223 606 223 606 210 642.5 c 128,-1,27
 197 679 197 679 197 691 c 0,28,29
 197 710 197 710 209 722.5 c 128,-1,30
 221 735 221 735 238 735 c 0,31,32
 254 735 254 735 266 722 c 128,-1,33
 278 709 278 709 278 691 c 0,34,35
 278 679 278 679 265 642.5 c 128,-1,36
 252 606 252 606 252 578 c 1,37,38
 278 587 278 587 309 610.5 c 128,-1,39
 340 634 340 634 350 638 c 0,40,41
 360 640 360 640 364 640 c 0,42,43
 382 640 382 640 395 628.5 c 128,-1,44
 408 617 408 617 408 601 c 0,45,46
 408 588 408 588 398.5 576 c 128,-1,47
 389 564 389 564 375 560 c 0,48,49
 364 557 364 557 349 557 c 2,50,-1
 316 558 l 2,51,52
 287 558 287 558 262 550 c 1,53,54
 278 527 278 527 309.5 506 c 128,-1,55
 341 485 341 485 347 477 c 0,56,57
 357 464 357 464 357 447 c 0,58,59
 357 427 357 427 342 415 c 0,60,61
 332 408 332 408 319 408 c 0,62,63
 296 408 296 408 282 428 c 0,64,65
 276 437 276 437 264.5 474 c 128,-1,66
 253 511 253 511 237 533 c 1,67,68
 221 511 221 511 210.5 475 c 128,-1,69
 200 439 200 439 192 428 c 0,70,71
 178 408 178 408 155 408 c 0,0,1
EndSplineSet
EndChar

StartChar: plus
Encoding: 43 43 14
Width: 601
GlyphClass: 1
Flags: W
LayerCount: 2
Fore
SplineSet
265 0 m 1,0,-1
 265 203 l 1,1,-1
 62 203 l 1,2,-1
 62 275 l 1,3,-1
 265 275 l 1,4,-1
 265 478 l 1,5,-1
 336 478 l 1,6,-1
 336 275 l 1,7,-1
 539 275 l 1,8,-1
 539 203 l 1,9,-1
 336 203 l 1,10,-1
 336 0 l 1,11,-1
 265 0 l 1,0,-1
EndSplineSet
EndChar

StartChar: comma
Encoding: 44 44 15
Width: 267
GlyphClass: 1
Flags: W
LayerCount: 2
Fore
SplineSet
57 -129 m 1,0,1
 125 -54 125 -54 125 -24 c 0,2,3
 125 -12 125 -12 111 -2.5 c 128,-1,4
 97 7 97 7 83 21.5 c 128,-1,5
 69 36 69 36 69 60 c 0,6,7
 69 90 69 90 87.5 106.5 c 128,-1,8
 106 123 106 123 131 123 c 0,9,10
 159 123 159 123 180 102 c 128,-1,11
 201 81 201 81 201 44 c 0,12,13
 201 -35 201 -35 83 -156 c 1,14,-1
 57 -129 l 1,0,1
EndSplineSet
EndChar

StartChar: hyphen
Encoding: 45 45 16
Width: 209
GlyphClass: 1
Flags: W
LayerCount: 2
Fore
SplineSet
0 200 m 1,0,-1
 0 277 l 1,1,-1
 209 277 l 1,2,-1
 209 200 l 1,3,-1
 0 200 l 1,0,-1
EndSplineSet
EndChar

StartChar: period
Encoding: 46 46 17
Width: 267
GlyphClass: 1
Flags: W
LayerCount: 2
Fore
SplineSet
134 -14 m 128,-1,1
 106 -14 106 -14 85.5 6 c 128,-1,2
 65 26 65 26 65 55 c 128,-1,3
 65 84 65 84 85.5 103.5 c 128,-1,4
 106 123 106 123 134 123 c 128,-1,5
 162 123 162 123 182 103.5 c 128,-1,6
 202 84 202 84 202 55 c 0,7,8
 202 25 202 25 182 5.5 c 128,-1,0
 162 -14 162 -14 134 -14 c 128,-1,1
EndSplineSet
EndChar

StartChar: slash
Encoding: 47 47 18
Width: 363
GlyphClass: 1
Flags: W
LayerCount: 2
Fore
SplineSet
-12 -181 m 1,0,-1
 261 721 l 1,1,-1
 320 721 l 1,2,-1
 45 -181 l 1,3,-1
 -12 -181 l 1,0,-1
EndSplineSet
Substitution2: "<11,2> Diagonal Fractions lookup 3 subtable" fraction
EndChar

StartChar: zero
Encoding: 48 48 19
Width: 535
GlyphClass: 1
Flags: W
LayerCount: 2
Fore
SplineSet
268 -14 m 0,0,1
 207 -14 207 -14 155 36.5 c 128,-1,2
 103 87 103 87 73 169.5 c 128,-1,3
 43 252 43 252 43 346 c 0,4,5
 43 488 43 488 107.5 597.5 c 128,-1,6
 172 707 172 707 268 707 c 0,7,8
 332 707 332 707 384.5 654 c 128,-1,9
 437 601 437 601 464.5 518.5 c 128,-1,10
 492 436 492 436 492 346 c 0,11,12
 492 204 492 204 426.5 95 c 128,-1,13
 361 -14 361 -14 268 -14 c 0,0,1
268 27 m 0,14,15
 389 27 389 27 389 347 c 0,16,17
 389 666 389 666 267 666 c 0,18,19
 146 666 146 666 146 349 c 0,20,21
 146 27 146 27 268 27 c 0,14,15
EndSplineSet
Substitution2: "<21,0> Lower Case Numbers lookup 10 subtable" zero.tosf
Substitution2: "<6,0> Monospaced Numbers lookup 9 subtable" zero.tf
Substitution2: "<11,2> Diagonal Fractions lookup 4 subtable" zero.numr
Substitution2: "<10,1> Superiors lookup 2 subtable" uni2070
Substitution2: "<10,2> Inferiors lookup 1 subtable" uni2080
EndChar

StartChar: one
Encoding: 49 49 20
Width: 535
GlyphClass: 1
Flags: W
LayerCount: 2
Fore
SplineSet
104 43 m 1,0,1
 187 43 187 43 212 60.5 c 128,-1,2
 237 78 237 78 237 131 c 2,3,-1
 237 511 l 2,4,5
 237 539 237 539 234.5 552.5 c 128,-1,6
 232 566 232 566 226.5 577.5 c 128,-1,7
 221 589 221 589 202 592.5 c 128,-1,8
 183 596 183 596 161 597.5 c 128,-1,9
 139 599 139 599 93 599 c 1,10,-1
 93 639 l 1,11,12
 195 660 195 660 326 714 c 1,13,-1
 326 131 l 2,14,15
 326 78 326 78 351 60.5 c 128,-1,16
 376 43 376 43 459 43 c 1,17,-1
 459 0 l 1,18,-1
 104 0 l 1,19,-1
 104 43 l 1,0,1
EndSplineSet
Substitution2: "<21,0> Lower Case Numbers lookup 10 subtable" one.tosf
Substitution2: "<6,0> Monospaced Numbers lookup 9 subtable" one.tf
Substitution2: "<11,2> Diagonal Fractions lookup 4 subtable" one.numr
Substitution2: "<10,1> Superiors lookup 2 subtable" uni00B9
Substitution2: "<10,2> Inferiors lookup 1 subtable" uni2081
EndChar

StartChar: two
Encoding: 50 50 21
Width: 535
GlyphClass: 1
Flags: W
LayerCount: 2
Fore
SplineSet
42 39 m 1,0,1
 50 55 50 55 58.5 70 c 128,-1,2
 67 85 67 85 77.5 100.5 c 128,-1,3
 88 116 88 116 95 127 c 128,-1,4
 102 138 102 138 115 154.5 c 128,-1,5
 128 171 128 171 133.5 179 c 128,-1,6
 139 187 139 187 155 205 c 128,-1,7
 171 223 171 223 175 228.5 c 128,-1,8
 179 234 179 234 197.5 254.5 c 128,-1,9
 216 275 216 275 219 279 c 0,10,11
 229 291 229 291 257 320.5 c 128,-1,12
 285 350 285 350 300 368.5 c 128,-1,13
 315 387 315 387 334.5 415.5 c 128,-1,14
 354 444 354 444 363 473.5 c 128,-1,15
 372 503 372 503 372 535 c 0,16,17
 372 597 372 597 339 629.5 c 128,-1,18
 306 662 306 662 257 662 c 0,19,20
 216 662 216 662 186.5 641.5 c 128,-1,21
 157 621 157 621 157 593 c 0,22,23
 157 581 157 581 168 557.5 c 128,-1,24
 179 534 179 534 179 518 c 0,25,26
 179 494 179 494 164 476 c 128,-1,27
 149 458 149 458 124 458 c 0,28,29
 96 458 96 458 80.5 481 c 128,-1,30
 65 504 65 504 65 535 c 0,31,32
 65 597 65 597 123.5 652 c 128,-1,33
 182 707 182 707 276 707 c 0,34,35
 366 707 366 707 420.5 654 c 128,-1,36
 475 601 475 601 475 524 c 0,37,38
 475 500 475 500 470 478 c 128,-1,39
 465 456 465 456 452 434.5 c 128,-1,40
 439 413 439 413 428 397 c 128,-1,41
 417 381 417 381 394 358 c 128,-1,42
 371 335 371 335 358.5 323 c 128,-1,43
 346 311 346 311 316 285 c 128,-1,44
 286 259 286 259 274 248 c 0,45,46
 184 167 184 167 125 81 c 1,47,-1
 322 81 l 2,48,49
 369 81 369 81 392 105.5 c 128,-1,50
 415 130 415 130 441 201 c 1,51,-1
 480 190 l 1,52,-1
 436 0 l 1,53,-1
 42 0 l 1,54,-1
 42 39 l 1,0,1
EndSplineSet
Substitution2: "<21,0> Lower Case Numbers lookup 10 subtable" two.tosf
Substitution2: "<6,0> Monospaced Numbers lookup 9 subtable" two.tf
Substitution2: "<11,2> Diagonal Fractions lookup 4 subtable" two.numr
Substitution2: "<10,1> Superiors lookup 2 subtable" uni00B2
Substitution2: "<10,2> Inferiors lookup 1 subtable" uni2082
EndChar

StartChar: three
Encoding: 51 51 22
Width: 535
GlyphClass: 1
Flags: W
LayerCount: 2
Fore
SplineSet
255 -14 m 0,0,1
 204 -14 204 -14 156 0 c 128,-1,2
 108 14 108 14 74 45 c 128,-1,3
 40 76 40 76 40 119 c 0,4,5
 40 150 40 150 56.5 167.5 c 128,-1,6
 73 185 73 185 100 185 c 0,7,8
 129 185 129 185 143 166.5 c 128,-1,9
 157 148 157 148 157 122 c 0,10,11
 157 113 157 113 154.5 101 c 128,-1,12
 152 89 152 89 152 84 c 0,13,14
 152 62 152 62 176 45.5 c 128,-1,15
 200 29 200 29 241 29 c 0,16,17
 302 29 302 29 341.5 68.5 c 128,-1,18
 381 108 381 108 381 186 c 0,19,20
 381 255 381 255 348 300.5 c 128,-1,21
 315 346 315 346 244 346 c 0,22,23
 236 346 236 346 220.5 345 c 128,-1,24
 205 344 205 344 199 344 c 0,25,26
 166 344 166 344 166 368 c 128,-1,27
 166 392 166 392 197 392 c 2,28,-1
 239 390 l 2,29,30
 292 390 292 390 327.5 430 c 128,-1,31
 363 470 363 470 363 539 c 0,32,33
 363 597 363 597 335.5 630 c 128,-1,34
 308 663 308 663 254 663 c 0,35,36
 215 663 215 663 192 647 c 128,-1,37
 169 631 169 631 169 603 c 0,38,39
 169 596 169 596 171 583 c 128,-1,40
 173 570 173 570 173 563 c 0,41,42
 173 540 173 540 157.5 524 c 128,-1,43
 142 508 142 508 118 508 c 0,44,45
 92 508 92 508 77.5 526 c 128,-1,46
 63 544 63 544 63 570 c 0,47,48
 63 625 63 625 126.5 666 c 128,-1,49
 190 707 190 707 271 707 c 0,50,51
 355 707 355 707 409.5 660.5 c 128,-1,52
 464 614 464 614 464 543 c 0,53,54
 464 477 464 477 418.5 430 c 128,-1,55
 373 383 373 383 307 370 c 1,56,57
 380 360 380 360 420 326 c 0,58,59
 488 268 488 268 488 184 c 0,60,61
 488 105 488 105 424.5 45.5 c 128,-1,62
 361 -14 361 -14 255 -14 c 0,0,1
EndSplineSet
Substitution2: "<21,0> Lower Case Numbers lookup 10 subtable" three.tosf
Substitution2: "<6,0> Monospaced Numbers lookup 9 subtable" three.tf
Substitution2: "<11,2> Diagonal Fractions lookup 4 subtable" three.numr
Substitution2: "<10,1> Superiors lookup 2 subtable" uni00B3
Substitution2: "<10,2> Inferiors lookup 1 subtable" uni2083
EndChar

StartChar: four
Encoding: 52 52 23
Width: 535
GlyphClass: 1
Flags: W
LayerCount: 2
Fore
SplineSet
211 43 m 1,0,1
 270 43 270 43 282 57.5 c 128,-1,2
 294 72 294 72 294 131 c 2,3,-1
 294 165 l 1,4,-1
 38 165 l 1,5,-1
 38 211 l 1,6,-1
 338 699 l 1,7,-1
 384 699 l 1,8,-1
 384 216 l 1,9,-1
 502 216 l 1,10,-1
 502 165 l 1,11,-1
 384 165 l 1,12,-1
 384 131 l 2,13,14
 384 126 384 126 384 116 c 0,15,16
 384 90 384 90 385 79.5 c 128,-1,17
 386 69 386 69 393 58.5 c 128,-1,18
 400 48 400 48 415 45.5 c 128,-1,19
 430 43 430 43 459 43 c 1,20,-1
 459 0 l 1,21,-1
 211 0 l 1,22,-1
 211 43 l 1,0,1
92 216 m 1,23,-1
 294 216 l 1,24,-1
 294 547 l 1,25,-1
 92 216 l 1,23,-1
EndSplineSet
Substitution2: "<21,0> Lower Case Numbers lookup 10 subtable" four.tosf
Substitution2: "<6,0> Monospaced Numbers lookup 9 subtable" four.tf
Substitution2: "<11,2> Diagonal Fractions lookup 4 subtable" four.numr
Substitution2: "<10,1> Superiors lookup 2 subtable" uni2074
Substitution2: "<10,2> Inferiors lookup 1 subtable" uni2084
EndChar

StartChar: five
Encoding: 53 53 24
Width: 535
GlyphClass: 1
Flags: W
LayerCount: 2
Fore
SplineSet
246 -14 m 0,0,1
 163 -14 163 -14 109 26.5 c 128,-1,2
 55 67 55 67 55 121 c 0,3,4
 55 151 55 151 72.5 168 c 128,-1,5
 90 185 90 185 114 185 c 0,6,7
 137 185 137 185 151.5 168.5 c 128,-1,8
 166 152 166 152 166 128 c 0,9,10
 166 120 166 120 163.5 104 c 128,-1,11
 161 88 161 88 161 83 c 0,12,13
 161 61 161 61 184 44.5 c 128,-1,14
 207 28 207 28 247 28 c 0,15,16
 308 28 308 28 344.5 73.5 c 128,-1,17
 381 119 381 119 381 215 c 0,18,19
 381 389 381 389 262 389 c 0,20,21
 184 389 184 389 119 314 c 1,22,-1
 83 330 l 1,23,24
 91 410 91 410 94 476 c 2,25,-1
 102 692 l 1,26,-1
 451 692 l 1,27,-1
 435 613 l 1,28,-1
 146 613 l 1,29,-1
 136 385 l 1,30,31
 198 442 198 442 280 442 c 128,-1,32
 362 442 362 442 418 386 c 0,33,34
 483 323 483 323 483 224 c 0,35,36
 483 128 483 128 419 57 c 128,-1,37
 355 -14 355 -14 246 -14 c 0,0,1
EndSplineSet
Substitution2: "<21,0> Lower Case Numbers lookup 10 subtable" five.tosf
Substitution2: "<6,0> Monospaced Numbers lookup 9 subtable" five.tf
Substitution2: "<11,2> Diagonal Fractions lookup 4 subtable" five.numr
Substitution2: "<10,1> Superiors lookup 2 subtable" uni2075
Substitution2: "<10,2> Inferiors lookup 1 subtable" uni2085
EndChar

StartChar: six
Encoding: 54 54 25
Width: 535
GlyphClass: 1
Flags: W
LayerCount: 2
Fore
SplineSet
273 -14 m 0,0,1
 172 -14 172 -14 110 75.5 c 128,-1,2
 48 165 48 165 48 306 c 0,3,4
 48 470 48 470 129 588.5 c 128,-1,5
 210 707 210 707 322 707 c 0,6,7
 376 707 376 707 421.5 681 c 128,-1,8
 467 655 467 655 467 610 c 0,9,10
 467 584 467 584 451 569.5 c 128,-1,11
 435 555 435 555 412 555 c 0,12,13
 388 555 388 555 374 572 c 128,-1,14
 360 589 360 589 355.5 609 c 128,-1,15
 351 629 351 629 336.5 646 c 128,-1,16
 322 663 322 663 298 663 c 0,17,18
 237 663 237 663 194 572.5 c 128,-1,19
 151 482 151 482 151 349 c 1,20,21
 224 443 224 443 316 443 c 0,22,23
 397 443 397 443 444 378.5 c 128,-1,24
 491 314 491 314 491 228 c 0,25,26
 491 127 491 127 427.5 56.5 c 128,-1,27
 364 -14 364 -14 273 -14 c 0,0,1
273 24 m 0,28,29
 322 24 322 24 355 71.5 c 128,-1,30
 388 119 388 119 388 218 c 0,31,32
 388 384 388 384 288 384 c 0,33,34
 245 384 245 384 205 355 c 128,-1,35
 165 326 165 326 149 279 c 0,36,37
 148 265 148 265 148 227 c 0,38,39
 148 191 148 191 159.5 146 c 128,-1,40
 171 101 171 101 191 71 c 0,41,42
 222 24 222 24 273 24 c 0,28,29
EndSplineSet
Substitution2: "<21,0> Lower Case Numbers lookup 10 subtable" six.tosf
Substitution2: "<6,0> Monospaced Numbers lookup 9 subtable" six.tf
Substitution2: "<11,2> Diagonal Fractions lookup 4 subtable" six.numr
Substitution2: "<10,1> Superiors lookup 2 subtable" uni2076
Substitution2: "<10,2> Inferiors lookup 1 subtable" uni2086
EndChar

StartChar: seven
Encoding: 55 55 26
Width: 535
GlyphClass: 1
Flags: W
LayerCount: 2
Fore
SplineSet
231 -14 m 0,0,1
 207 -14 207 -14 190.5 3 c 128,-1,2
 174 20 174 20 174 54 c 0,3,4
 174 108 174 108 226 229 c 0,5,6
 311 427 311 427 431 613 c 1,7,-1
 224 613 l 2,8,9
 167 613 167 613 150.5 594.5 c 128,-1,10
 134 576 134 576 96 478 c 1,11,-1
 59 490 l 1,12,-1
 107 692 l 1,13,-1
 491 692 l 1,14,-1
 491 645 l 1,15,16
 284 271 284 271 284 104 c 2,17,-1
 284 66 l 2,18,19
 284 -14 284 -14 231 -14 c 0,0,1
EndSplineSet
Substitution2: "<21,0> Lower Case Numbers lookup 10 subtable" seven.tosf
Substitution2: "<6,0> Monospaced Numbers lookup 9 subtable" seven.tf
Substitution2: "<11,2> Diagonal Fractions lookup 4 subtable" seven.numr
Substitution2: "<10,1> Superiors lookup 2 subtable" uni2077
Substitution2: "<10,2> Inferiors lookup 1 subtable" uni2087
EndChar

StartChar: eight
Encoding: 56 56 27
Width: 535
GlyphClass: 1
Flags: W
LayerCount: 2
Fore
SplineSet
253 -14 m 0,0,1
 161 -14 161 -14 100.5 34.5 c 128,-1,2
 40 83 40 83 40 160 c 0,3,4
 40 225 40 225 82.5 268.5 c 128,-1,5
 125 312 125 312 198 351 c 1,6,7
 140 378 140 378 111 422.5 c 128,-1,8
 82 467 82 467 82 521 c 0,9,10
 82 601 82 601 138.5 654 c 128,-1,11
 195 707 195 707 282 707 c 0,12,13
 364 707 364 707 413.5 659.5 c 128,-1,14
 463 612 463 612 463 546 c 0,15,16
 463 491 463 491 428 450.5 c 128,-1,17
 393 410 393 410 341 388 c 1,18,19
 482 327 482 327 482 200 c 0,20,21
 482 107 482 107 419 46.5 c 128,-1,22
 356 -14 356 -14 253 -14 c 0,0,1
264 27 m 0,23,24
 332 27 332 27 371 69.5 c 128,-1,25
 410 112 410 112 410 169 c 0,26,27
 410 220 410 220 372 251 c 128,-1,28
 334 282 334 282 228 332 c 1,29,30
 131 264 131 264 131 165 c 0,31,32
 131 103 131 103 166 65 c 128,-1,33
 201 27 201 27 264 27 c 0,23,24
309 405 m 1,34,35
 385 462 385 462 385 546 c 0,36,37
 385 605 385 605 350.5 635.5 c 128,-1,38
 316 666 316 666 269 666 c 128,-1,39
 222 666 222 666 186 636 c 128,-1,40
 150 606 150 606 150 554 c 0,41,42
 150 505 150 505 187 473.5 c 128,-1,43
 224 442 224 442 309 405 c 1,34,35
EndSplineSet
Substitution2: "<21,0> Lower Case Numbers lookup 10 subtable" eight.tosf
Substitution2: "<6,0> Monospaced Numbers lookup 9 subtable" eight.tf
Substitution2: "<11,2> Diagonal Fractions lookup 4 subtable" eight.numr
Substitution2: "<10,1> Superiors lookup 2 subtable" uni2078
Substitution2: "<10,2> Inferiors lookup 1 subtable" uni2088
EndChar

StartChar: nine
Encoding: 57 57 28
Width: 535
GlyphClass: 1
Flags: W
LayerCount: 2
Fore
SplineSet
212 -14 m 0,0,1
 157 -14 157 -14 114 14 c 128,-1,2
 71 42 71 42 71 83 c 0,3,4
 71 110 71 110 89.5 124.5 c 128,-1,5
 108 139 108 139 132 139 c 0,6,7
 155 139 155 139 167 122.5 c 128,-1,8
 179 106 179 106 182 85.5 c 128,-1,9
 185 65 185 65 198 48.5 c 128,-1,10
 211 32 211 32 236 32 c 0,11,12
 299 32 299 32 341.5 124.5 c 128,-1,13
 384 217 384 217 389 354 c 1,14,15
 319 250 319 250 224 250 c 0,16,17
 149 250 149 250 96.5 309.5 c 128,-1,18
 44 369 44 369 44 459 c 0,19,20
 44 557 44 557 105 632 c 128,-1,21
 166 707 166 707 261 707 c 0,22,23
 364 707 364 707 425 616 c 128,-1,24
 486 525 486 525 486 386 c 0,25,26
 486 222 486 222 406 104 c 128,-1,27
 326 -14 326 -14 212 -14 c 0,0,1
250 311 m 0,28,29
 334 311 334 311 386 404 c 1,30,-1
 386 432 l 2,31,32
 386 493 386 493 374 544 c 128,-1,33
 362 595 362 595 332 630.5 c 128,-1,34
 302 666 302 666 259 666 c 0,35,36
 205 666 205 666 175 614.5 c 128,-1,37
 145 563 145 563 145 473 c 0,38,39
 145 311 145 311 250 311 c 0,28,29
EndSplineSet
Substitution2: "<21,0> Lower Case Numbers lookup 10 subtable" nine.tosf
Substitution2: "<6,0> Monospaced Numbers lookup 9 subtable" nine.tf
Substitution2: "<11,2> Diagonal Fractions lookup 4 subtable" nine.numr
Substitution2: "<10,1> Superiors lookup 2 subtable" uni2079
Substitution2: "<10,2> Inferiors lookup 1 subtable" uni2089
EndChar

StartChar: colon
Encoding: 58 58 29
Width: 267
GlyphClass: 1
Flags: W
LayerCount: 2
Fore
SplineSet
134 346 m 128,-1,1
 106 346 106 346 85.5 366 c 128,-1,2
 65 386 65 386 65 415 c 128,-1,3
 65 444 65 444 85.5 463.5 c 128,-1,4
 106 483 106 483 134 483 c 128,-1,5
 162 483 162 483 182 463.5 c 128,-1,6
 202 444 202 444 202 415 c 0,7,8
 202 385 202 385 182 365.5 c 128,-1,0
 162 346 162 346 134 346 c 128,-1,1
134 -14 m 128,-1,10
 106 -14 106 -14 85.5 6 c 128,-1,11
 65 26 65 26 65 55 c 128,-1,12
 65 84 65 84 85.5 103.5 c 128,-1,13
 106 123 106 123 134 123 c 128,-1,14
 162 123 162 123 182 103.5 c 128,-1,15
 202 84 202 84 202 55 c 0,16,17
 202 25 202 25 182 5.5 c 128,-1,9
 162 -14 162 -14 134 -14 c 128,-1,10
EndSplineSet
EndChar

StartChar: semicolon
Encoding: 59 59 30
Width: 267
GlyphClass: 1
Flags: W
LayerCount: 2
Fore
SplineSet
57 -129 m 1,0,1
 125 -54 125 -54 125 -24 c 0,2,3
 125 -12 125 -12 111 -2.5 c 128,-1,4
 97 7 97 7 83 21.5 c 128,-1,5
 69 36 69 36 69 60 c 0,6,7
 69 90 69 90 87.5 106.5 c 128,-1,8
 106 123 106 123 131 123 c 0,9,10
 159 123 159 123 180 102 c 128,-1,11
 201 81 201 81 201 44 c 0,12,13
 201 -35 201 -35 83 -156 c 1,14,-1
 57 -129 l 1,0,1
134 346 m 128,-1,16
 106 346 106 346 85.5 366 c 128,-1,17
 65 386 65 386 65 415 c 128,-1,18
 65 444 65 444 85.5 463.5 c 128,-1,19
 106 483 106 483 134 483 c 128,-1,20
 162 483 162 483 182 463.5 c 128,-1,21
 202 444 202 444 202 415 c 0,22,23
 202 385 202 385 182 365.5 c 128,-1,15
 162 346 162 346 134 346 c 128,-1,16
EndSplineSet
EndChar

StartChar: less
Encoding: 60 60 31
Width: 601
GlyphClass: 1
Flags: W
LayerCount: 2
Fore
SplineSet
539 -5 m 1,0,-1
 62 203 l 1,1,-1
 62 275 l 1,2,-1
 539 483 l 1,3,-1
 539 406 l 1,4,-1
 144 239 l 1,5,-1
 539 71 l 1,6,-1
 539 -5 l 1,0,-1
EndSplineSet
Substitution2: "'rtla' Right to Left Alternates lookup 0 subtable" greater
EndChar

StartChar: equal
Encoding: 61 61 32
Width: 601
GlyphClass: 1
Flags: W
LayerCount: 2
Fore
SplineSet
62 311 m 1,0,-1
 62 383 l 1,1,-1
 539 383 l 1,2,-1
 539 311 l 1,3,-1
 62 311 l 1,0,-1
62 95 m 1,4,-1
 62 166 l 1,5,-1
 539 166 l 1,6,-1
 539 95 l 1,7,-1
 62 95 l 1,4,-1
EndSplineSet
EndChar

StartChar: greater
Encoding: 62 62 33
Width: 601
GlyphClass: 1
Flags: W
LayerCount: 2
Fore
SplineSet
62 -5 m 1,0,-1
 62 71 l 1,1,-1
 457 239 l 1,2,-1
 62 406 l 1,3,-1
 62 483 l 1,4,-1
 539 275 l 1,5,-1
 539 203 l 1,6,-1
 62 -5 l 1,0,-1
EndSplineSet
Substitution2: "'rtla' Right to Left Alternates lookup 0 subtable" less
EndChar

StartChar: question
Encoding: 63 63 34
Width: 405
GlyphClass: 1
Flags: W
LayerCount: 2
Fore
SplineSet
141 412 m 1,0,1
 208 412 208 412 249.5 452 c 128,-1,2
 291 492 291 492 291 560 c 0,3,4
 291 612 291 612 268.5 641.5 c 128,-1,5
 246 671 246 671 218 671 c 0,6,7
 198 671 198 671 169.5 643.5 c 128,-1,8
 141 616 141 616 118 616 c 128,-1,9
 95 616 95 616 83.5 633 c 128,-1,10
 72 650 72 650 72 669 c 0,11,12
 72 697 72 697 98.5 716 c 128,-1,13
 125 735 125 735 167 735 c 0,14,15
 246 735 246 735 305.5 671 c 128,-1,16
 365 607 365 607 365 518 c 0,17,18
 365 437 365 437 313.5 382.5 c 128,-1,19
 262 328 262 328 189 328 c 1,20,-1
 189 202 l 1,21,-1
 141 202 l 1,22,-1
 141 412 l 1,0,1
162 -14 m 128,-1,24
 134 -14 134 -14 113.5 6 c 128,-1,25
 93 26 93 26 93 55 c 128,-1,26
 93 84 93 84 113.5 103.5 c 128,-1,27
 134 123 134 123 162 123 c 128,-1,28
 190 123 190 123 210 103.5 c 128,-1,29
 230 84 230 84 230 55 c 0,30,31
 230 25 230 25 210 5.5 c 128,-1,23
 190 -14 190 -14 162 -14 c 128,-1,24
EndSplineSet
EndChar

StartChar: at
Encoding: 64 64 35
Width: 812
GlyphClass: 1
Flags: W
LayerCount: 2
Fore
SplineSet
391 -14 m 0,0,1
 248 -14 248 -14 145.5 82.5 c 128,-1,2
 43 179 43 179 43 335 c 0,3,4
 43 424 43 424 80 501 c 128,-1,5
 117 578 117 578 177.5 628.5 c 128,-1,6
 238 679 238 679 312.5 707.5 c 128,-1,7
 387 736 387 736 464 736 c 0,8,9
 595 736 595 736 682 659 c 128,-1,10
 769 582 769 582 769 459 c 0,11,12
 769 342 769 342 694 250.5 c 128,-1,13
 619 159 619 159 523 159 c 0,14,15
 486 159 486 159 469 174.5 c 128,-1,16
 452 190 452 190 454 219 c 2,17,-1
 455 238 l 1,18,19
 412 159 412 159 348 159 c 0,20,21
 305 159 305 159 274.5 196 c 128,-1,22
 244 233 244 233 244 291 c 0,23,24
 244 381 244 381 308.5 471.5 c 128,-1,25
 373 562 373 562 450 562 c 0,26,27
 503 562 503 562 518 520 c 1,28,-1
 530 561 l 1,29,-1
 598 561 l 1,30,31
 555 404 555 404 531 277 c 0,32,33
 523 234 523 234 523 230 c 0,34,35
 523 206 523 206 548 206 c 0,36,37
 600 206 600 206 659 283 c 128,-1,38
 718 360 718 360 718 458 c 0,39,40
 718 565 718 565 644.5 628 c 128,-1,41
 571 691 571 691 466 691 c 0,42,43
 400 691 400 691 335 665 c 128,-1,44
 270 639 270 639 217 593.5 c 128,-1,45
 164 548 164 548 131 479.5 c 128,-1,46
 98 411 98 411 98 333 c 0,47,48
 98 200 98 200 185 114.5 c 128,-1,49
 272 29 272 29 394 29 c 0,50,51
 460 29 460 29 514.5 54 c 128,-1,52
 569 79 569 79 634 125 c 1,53,-1
 655 96 l 1,54,55
 591 43 591 43 530 14.5 c 128,-1,56
 469 -14 469 -14 391 -14 c 0,0,1
354 199 m 0,57,58
 385 199 385 199 419 249.5 c 128,-1,59
 453 300 453 300 473.5 362.5 c 128,-1,60
 494 425 494 425 494 466 c 0,61,62
 494 495 494 495 482.5 511.5 c 128,-1,63
 471 528 471 528 453 528 c 0,64,65
 407 528 407 528 363 437 c 128,-1,66
 319 346 319 346 319 263 c 0,67,68
 319 199 319 199 354 199 c 0,57,58
EndSplineSet
EndChar

StartChar: A
Encoding: 65 65 36
Width: 643
GlyphClass: 1
Flags: W
LayerCount: 2
Fore
SplineSet
-8 42 m 1,0,1
 52 42 52 42 72 103 c 2,2,-1
 274 716 l 1,3,-1
 361 743 l 1,4,-1
 558 124 l 2,5,6
 575 71 575 71 588.5 58.5 c 128,-1,7
 602 46 602 46 650 42 c 1,8,-1
 650 0 l 1,9,-1
 379 0 l 1,10,-1
 379 42 l 1,11,-1
 410 42 l 2,12,13
 463 42 463 42 463 73 c 0,14,15
 463 85 463 85 457 105 c 2,16,-1
 415 249 l 1,17,-1
 172 249 l 1,18,-1
 137 135 l 2,19,20
 130 112 130 112 130 96 c 0,21,22
 130 69 130 69 148.5 55.5 c 128,-1,23
 167 42 167 42 213 42 c 1,24,-1
 213 0 l 1,25,-1
 -8 0 l 1,26,-1
 -8 42 l 1,0,1
188 297 m 1,27,-1
 398 297 l 1,28,-1
 298 639 l 1,29,-1
 188 297 l 1,27,-1
EndSplineSet
EndChar

StartChar: B
Encoding: 66 66 37
Width: 663
GlyphClass: 1
Flags: W
LayerCount: 2
Fore
SplineSet
32 0 m 1,0,-1
 32 42 l 1,1,-1
 55 42 l 2,2,3
 97 42 97 42 111.5 58.5 c 128,-1,4
 126 75 126 75 126 131 c 2,5,-1
 126 599 l 2,6,7
 126 646 126 646 111.5 662.5 c 128,-1,8
 97 679 97 679 56 679 c 2,9,-1
 32 679 l 1,10,-1
 32 721 l 1,11,-1
 294 721 l 2,12,13
 415 721 415 721 483 692 c 0,14,15
 523 675 523 675 552 640 c 128,-1,16
 581 605 581 605 581 553 c 0,17,18
 581 484 581 484 529.5 441 c 128,-1,19
 478 398 478 398 408 386 c 1,20,21
 510 376 510 376 564.5 321 c 128,-1,22
 619 266 619 266 619 195 c 0,23,24
 619 128 619 128 572 76 c 0,25,26
 502 0 502 0 334 0 c 2,27,-1
 32 0 l 1,0,-1
306 42 m 0,28,29
 415 42 415 42 461.5 78.5 c 128,-1,30
 508 115 508 115 508 196 c 0,31,32
 508 226 508 226 502.5 251 c 128,-1,33
 497 276 497 276 485.5 292.5 c 128,-1,34
 474 309 474 309 462 322 c 128,-1,35
 450 335 450 335 430.5 342.5 c 128,-1,36
 411 350 411 350 397 354.5 c 128,-1,37
 383 359 383 359 360.5 360.5 c 128,-1,38
 338 362 338 362 326.5 362.5 c 128,-1,39
 315 363 315 363 294 363 c 0,40,41
 252 363 252 363 227 361 c 1,42,-1
 227 128 l 2,43,44
 227 65 227 65 239 54 c 0,45,46
 254 42 254 42 306 42 c 0,28,29
261 402 m 2,47,48
 297 402 297 402 318.5 403 c 128,-1,49
 340 404 340 404 373 412 c 128,-1,50
 406 420 406 420 424.5 434 c 128,-1,51
 443 448 443 448 457 477 c 128,-1,52
 471 506 471 506 471 547 c 0,53,54
 471 681 471 681 322 681 c 0,55,56
 251 681 251 681 236 656 c 0,57,58
 227 641 227 641 227 611 c 2,59,-1
 227 402 l 1,60,-1
 261 402 l 2,47,48
EndSplineSet
EndChar

StartChar: C
Encoding: 67 67 38
Width: 654
GlyphClass: 1
Flags: W
LayerCount: 2
Fore
SplineSet
337 -14 m 0,0,1
 209 -14 209 -14 126 81.5 c 128,-1,2
 43 177 43 177 43 324 c 0,3,4
 43 396 43 396 64.5 468 c 128,-1,5
 86 540 86 540 124.5 600 c 128,-1,6
 163 660 163 660 223.5 697.5 c 128,-1,7
 284 735 284 735 355 735 c 0,8,9
 394 735 394 735 433 722 c 128,-1,10
 472 709 472 709 481 709 c 0,11,12
 497 709 497 709 554 729 c 1,13,-1
 615 541 l 1,14,-1
 575 524 l 1,15,16
 547 588 547 588 484 640 c 128,-1,17
 421 692 421 692 351 692 c 0,18,19
 264 692 264 692 207.5 606.5 c 128,-1,20
 151 521 151 521 151 377 c 0,21,22
 151 220 151 220 216.5 141.5 c 128,-1,23
 282 63 282 63 375 63 c 0,24,25
 443 63 443 63 496.5 104 c 128,-1,26
 550 145 550 145 576 209 c 1,27,-1
 615 192 l 1,28,29
 577 93 577 93 503 39.5 c 128,-1,30
 429 -14 429 -14 337 -14 c 0,0,1
EndSplineSet
EndChar

StartChar: D
Encoding: 68 68 39
Width: 721
GlyphClass: 1
Flags: W
LayerCount: 2
Fore
SplineSet
32 0 m 1,0,-1
 32 42 l 1,1,-1
 55 42 l 2,2,3
 97 42 97 42 111.5 58.5 c 128,-1,4
 126 75 126 75 126 131 c 2,5,-1
 126 599 l 2,6,7
 126 646 126 646 111.5 662.5 c 128,-1,8
 97 679 97 679 56 679 c 2,9,-1
 32 679 l 1,10,-1
 32 721 l 1,11,-1
 294 721 l 2,12,13
 424 721 424 721 492 689 c 0,14,15
 519 676 519 676 545 656 c 128,-1,16
 571 636 571 636 604 598.5 c 128,-1,17
 637 561 637 561 657.5 500 c 128,-1,18
 678 439 678 439 678 365 c 0,19,20
 678 288 678 288 654 223.5 c 128,-1,21
 630 159 630 159 606 129 c 128,-1,22
 582 99 582 99 555 76 c 0,23,24
 462 0 462 0 291 0 c 2,25,-1
 32 0 l 1,0,-1
316 40 m 0,26,27
 356 40 356 40 386.5 45.5 c 128,-1,28
 417 51 417 51 452.5 70.5 c 128,-1,29
 488 90 488 90 511.5 124.5 c 128,-1,30
 535 159 535 159 550.5 221 c 128,-1,31
 566 283 566 283 566 369 c 0,32,33
 566 531 566 531 508 606 c 128,-1,34
 450 681 450 681 320 681 c 0,35,36
 265 681 265 681 246 664 c 128,-1,37
 227 647 227 647 227 597 c 2,38,-1
 227 136 l 2,39,40
 227 75 227 75 243.5 57.5 c 128,-1,41
 260 40 260 40 316 40 c 0,26,27
EndSplineSet
EndChar

StartChar: E
Encoding: 69 69 40
Width: 670
GlyphClass: 1
Flags: W
LayerCount: 2
Fore
SplineSet
32 0 m 1,0,-1
 32 42 l 1,1,-1
 55 42 l 2,2,3
 97 42 97 42 111.5 58.5 c 128,-1,4
 126 75 126 75 126 131 c 2,5,-1
 126 599 l 2,6,7
 126 646 126 646 111.5 662.5 c 128,-1,8
 97 679 97 679 56 679 c 2,9,-1
 32 679 l 1,10,-1
 32 721 l 1,11,-1
 542 721 l 1,12,-1
 605 546 l 1,13,-1
 568 533 l 1,14,15
 507 619 507 619 453 649 c 128,-1,16
 399 679 399 679 315 679 c 0,17,18
 264 679 264 679 245.5 666.5 c 128,-1,19
 227 654 227 654 227 615 c 2,20,-1
 227 391 l 1,21,-1
 257 391 l 2,22,23
 317 391 317 391 348 404.5 c 128,-1,24
 379 418 379 418 390.5 440.5 c 128,-1,25
 402 463 402 463 412 511 c 1,26,-1
 453 511 l 1,27,-1
 453 225 l 1,28,-1
 413 225 l 1,29,30
 406 263 406 263 399.5 281.5 c 128,-1,31
 393 300 393 300 377 318 c 128,-1,32
 361 336 361 336 332.5 342.5 c 128,-1,33
 304 349 304 349 257 349 c 2,34,-1
 227 349 l 1,35,-1
 227 116 l 2,36,37
 227 70 227 70 241.5 55.5 c 128,-1,38
 256 41 256 41 305 41 c 0,39,40
 361 41 361 41 405.5 53.5 c 128,-1,41
 450 66 450 66 482.5 90 c 128,-1,42
 515 114 515 114 537 136.5 c 128,-1,43
 559 159 559 159 584 190 c 0,44,45
 591 199 591 199 594 203 c 1,46,-1
 627 188 l 1,47,-1
 557 0 l 1,48,-1
 32 0 l 1,0,-1
EndSplineSet
EndChar

StartChar: F
Encoding: 70 70 41
Width: 613
GlyphClass: 1
Flags: W
LayerCount: 2
Fore
SplineSet
32 0 m 1,0,-1
 32 42 l 1,1,-1
 55 42 l 2,2,3
 97 42 97 42 111.5 58.5 c 128,-1,4
 126 75 126 75 126 131 c 2,5,-1
 126 599 l 2,6,7
 126 646 126 646 111.5 662.5 c 128,-1,8
 97 679 97 679 56 679 c 2,9,-1
 32 679 l 1,10,-1
 32 721 l 1,11,-1
 541 721 l 1,12,-1
 608 542 l 1,13,-1
 573 529 l 1,14,15
 513 616 513 616 458.5 647.5 c 128,-1,16
 404 679 404 679 320 679 c 0,17,18
 271 679 271 679 249 666.5 c 128,-1,19
 227 654 227 654 227 615 c 2,20,-1
 227 390 l 1,21,-1
 257 390 l 2,22,23
 338 390 338 390 373 418.5 c 128,-1,24
 408 447 408 447 413 511 c 1,25,-1
 451 511 l 1,26,-1
 451 225 l 1,27,-1
 413 225 l 1,28,29
 406 294 406 294 376.5 321.5 c 128,-1,30
 347 349 347 349 257 349 c 2,31,-1
 227 349 l 1,32,-1
 227 131 l 2,33,34
 227 75 227 75 241.5 58.5 c 128,-1,35
 256 42 256 42 298 42 c 2,36,-1
 328 42 l 1,37,-1
 328 0 l 1,38,-1
 32 0 l 1,0,-1
EndSplineSet
EndChar

StartChar: G
Encoding: 71 71 42
Width: 730
GlyphClass: 1
Flags: W
LayerCount: 2
Fore
SplineSet
361 -14 m 0,0,1
 217 -14 217 -14 130 88.5 c 128,-1,2
 43 191 43 191 43 344 c 0,3,4
 43 503 43 503 133.5 619 c 128,-1,5
 224 735 224 735 357 735 c 0,6,7
 392 735 392 735 431.5 724.5 c 128,-1,8
 471 714 471 714 480 714 c 0,9,10
 490 714 490 714 503 717 c 128,-1,11
 516 720 516 720 534.5 726.5 c 128,-1,12
 553 733 553 733 556 734 c 2,13,-1
 623 552 l 1,14,-1
 586 534 l 1,15,16
 483 695 483 695 360 695 c 0,17,18
 267 695 267 695 211 601.5 c 128,-1,19
 155 508 155 508 155 350 c 0,20,21
 155 191 155 191 211 108.5 c 128,-1,22
 267 26 267 26 362 26 c 0,23,24
 426 26 426 26 467 60.5 c 128,-1,25
 508 95 508 95 508 150 c 2,26,-1
 508 196 l 2,27,28
 508 248 508 248 492.5 263.5 c 128,-1,29
 477 279 477 279 424 279 c 2,30,-1
 408 279 l 1,31,-1
 408 321 l 1,32,-1
 691 321 l 1,33,-1
 691 279 l 1,34,-1
 669 279 l 2,35,36
 630 279 630 279 617 260.5 c 128,-1,37
 604 242 604 242 604 198 c 2,38,-1
 604 26 l 1,39,40
 596 27 596 27 582 27 c 0,41,42
 539 27 539 27 475.5 6.5 c 128,-1,43
 412 -14 412 -14 361 -14 c 0,0,1
EndSplineSet
EndChar

StartChar: H
Encoding: 72 72 43
Width: 738
GlyphClass: 1
Flags: W
LayerCount: 2
Fore
SplineSet
32 0 m 1,0,-1
 32 42 l 1,1,-1
 55 42 l 2,2,3
 97 42 97 42 111.5 58.5 c 128,-1,4
 126 75 126 75 126 131 c 2,5,-1
 126 599 l 2,6,7
 126 646 126 646 111.5 662.5 c 128,-1,8
 97 679 97 679 56 679 c 2,9,-1
 32 679 l 1,10,-1
 32 721 l 1,11,-1
 314 721 l 1,12,-1
 314 679 l 1,13,-1
 297 679 l 2,14,15
 256 679 256 679 241.5 662.5 c 128,-1,16
 227 646 227 646 227 599 c 2,17,-1
 227 394 l 1,18,-1
 512 394 l 1,19,-1
 512 599 l 2,20,21
 512 646 512 646 497.5 662.5 c 128,-1,22
 483 679 483 679 442 679 c 2,23,-1
 426 679 l 1,24,-1
 426 721 l 1,25,-1
 707 721 l 1,26,-1
 707 679 l 1,27,-1
 683 679 l 2,28,29
 642 679 642 679 627.5 662.5 c 128,-1,30
 613 646 613 646 613 599 c 2,31,-1
 613 131 l 2,32,33
 613 75 613 75 627.5 58.5 c 128,-1,34
 642 42 642 42 684 42 c 2,35,-1
 707 42 l 1,36,-1
 707 0 l 1,37,-1
 426 0 l 1,38,-1
 426 42 l 1,39,-1
 441 42 l 2,40,41
 483 42 483 42 497.5 58.5 c 128,-1,42
 512 75 512 75 512 131 c 2,43,-1
 512 345 l 1,44,-1
 227 345 l 1,45,-1
 227 131 l 2,46,47
 227 75 227 75 241.5 58.5 c 128,-1,48
 256 42 256 42 298 42 c 2,49,-1
 314 42 l 1,50,-1
 314 0 l 1,51,-1
 32 0 l 1,0,-1
EndSplineSet
EndChar

StartChar: I
Encoding: 73 73 44
Width: 354
GlyphClass: 1
Flags: W
LayerCount: 2
Fore
SplineSet
32 0 m 1,0,-1
 32 42 l 1,1,-1
 55 42 l 2,2,3
 97 42 97 42 111.5 58.5 c 128,-1,4
 126 75 126 75 126 131 c 2,5,-1
 126 599 l 2,6,7
 126 646 126 646 111.5 662.5 c 128,-1,8
 97 679 97 679 56 679 c 2,9,-1
 32 679 l 1,10,-1
 32 721 l 1,11,-1
 321 721 l 1,12,-1
 321 679 l 1,13,-1
 297 679 l 2,14,15
 256 679 256 679 241.5 662.5 c 128,-1,16
 227 646 227 646 227 599 c 2,17,-1
 227 131 l 2,18,19
 227 75 227 75 241.5 58.5 c 128,-1,20
 256 42 256 42 298 42 c 2,21,-1
 321 42 l 1,22,-1
 321 0 l 1,23,-1
 32 0 l 1,0,-1
EndSplineSet
EndChar

StartChar: J
Encoding: 74 74 45
Width: 368
GlyphClass: 1
Flags: W
LayerCount: 2
Fore
SplineSet
54 -166 m 0,0,1
 5 -166 5 -166 -23 -144 c 128,-1,2
 -51 -122 -51 -122 -51 -91 c 0,3,4
 -51 -66 -51 -66 -33 -46.5 c 128,-1,5
 -15 -27 -15 -27 13 -27 c 0,6,7
 56 -27 56 -27 74 -74 c 0,8,9
 75 -77 75 -77 77 -82.5 c 128,-1,10
 79 -88 79 -88 80 -91 c 128,-1,11
 81 -94 81 -94 83 -97.5 c 128,-1,12
 85 -101 85 -101 87 -102.5 c 128,-1,13
 89 -104 89 -104 92.5 -105.5 c 128,-1,14
 96 -107 96 -107 101 -107 c 0,15,16
 144 -107 144 -107 144 -17 c 2,17,-1
 144 599 l 2,18,19
 144 646 144 646 129.5 662.5 c 128,-1,20
 115 679 115 679 74 679 c 2,21,-1
 43 679 l 1,22,-1
 43 721 l 1,23,-1
 338 721 l 1,24,-1
 338 679 l 1,25,-1
 315 679 l 2,26,27
 273 679 273 679 258.5 662.5 c 128,-1,28
 244 646 244 646 244 599 c 2,29,-1
 244 99 l 2,30,31
 244 -24 244 -24 194 -93 c 0,32,33
 141 -166 141 -166 54 -166 c 0,0,1
EndSplineSet
EndChar

StartChar: K
Encoding: 75 75 46
Width: 703
GlyphClass: 1
Flags: W
LayerCount: 2
Fore
SplineSet
32 0 m 1,0,-1
 32 42 l 1,1,-1
 55 42 l 2,2,3
 97 42 97 42 111.5 58.5 c 128,-1,4
 126 75 126 75 126 131 c 2,5,-1
 126 599 l 2,6,7
 126 646 126 646 111.5 662.5 c 128,-1,8
 97 679 97 679 56 679 c 2,9,-1
 32 679 l 1,10,-1
 32 721 l 1,11,-1
 314 721 l 1,12,-1
 314 679 l 1,13,-1
 297 679 l 2,14,15
 256 679 256 679 241.5 662.5 c 128,-1,16
 227 646 227 646 227 599 c 2,17,-1
 227 346 l 1,18,-1
 462 594 l 2,19,20
 498 632 498 632 498 653 c 0,21,22
 498 679 498 679 452 679 c 2,23,-1
 426 679 l 1,24,-1
 426 721 l 1,25,-1
 675 721 l 1,26,-1
 675 679 l 1,27,28
 638 679 638 679 608.5 662.5 c 128,-1,29
 579 646 579 646 536 602 c 2,30,-1
 388 450 l 1,31,-1
 608 103 l 2,32,33
 632 65 632 65 654.5 53.5 c 128,-1,34
 677 42 677 42 710 42 c 1,35,-1
 710 0 l 1,36,-1
 432 0 l 1,37,-1
 432 42 l 1,38,-1
 452 42 l 2,39,40
 510 42 510 42 510 63 c 0,41,42
 510 78 510 78 477 128 c 2,43,-1
 316 375 l 1,44,-1
 227 285 l 1,45,-1
 227 131 l 2,46,47
 227 75 227 75 241.5 58.5 c 128,-1,48
 256 42 256 42 298 42 c 2,49,-1
 314 42 l 1,50,-1
 314 0 l 1,51,-1
 32 0 l 1,0,-1
EndSplineSet
EndChar

StartChar: L
Encoding: 76 76 47
Width: 605
GlyphClass: 1
Flags: W
LayerCount: 2
Fore
SplineSet
32 0 m 1,0,-1
 32 42 l 1,1,-1
 55 42 l 2,2,3
 97 42 97 42 111.5 58.5 c 128,-1,4
 126 75 126 75 126 131 c 2,5,-1
 126 599 l 2,6,7
 126 646 126 646 111.5 662.5 c 128,-1,8
 97 679 97 679 56 679 c 2,9,-1
 32 679 l 1,10,-1
 32 721 l 1,11,-1
 321 721 l 1,12,-1
 321 679 l 1,13,-1
 297 679 l 2,14,15
 256 679 256 679 241.5 662.5 c 128,-1,16
 227 646 227 646 227 599 c 2,17,-1
 227 116 l 2,18,19
 227 71 227 71 243.5 57.5 c 128,-1,20
 260 44 260 44 311 44 c 0,21,22
 373 44 373 44 412 59.5 c 128,-1,23
 451 75 451 75 496 117 c 0,24,25
 539 158 539 158 570 202 c 1,26,-1
 605 187 l 1,27,-1
 538 0 l 1,28,-1
 32 0 l 1,0,-1
EndSplineSet
EndChar

StartChar: M
Encoding: 77 77 48
Width: 908
GlyphClass: 1
Flags: W
LayerCount: 2
Fore
SplineSet
32 42 m 1,0,1
 86 42 86 42 106 73.5 c 128,-1,2
 126 105 126 105 126 171 c 2,3,-1
 126 598 l 2,4,5
 126 648 126 648 111 663.5 c 128,-1,6
 96 679 96 679 54 679 c 2,7,-1
 32 679 l 1,8,-1
 32 721 l 1,9,-1
 254 721 l 1,10,-1
 457 171 l 1,11,-1
 658 721 l 1,12,-1
 876 721 l 1,13,-1
 876 679 l 1,14,-1
 852 679 l 2,15,16
 811 679 811 679 796.5 662.5 c 128,-1,17
 782 646 782 646 782 599 c 2,18,-1
 782 131 l 2,19,20
 782 75 782 75 796.5 58.5 c 128,-1,21
 811 42 811 42 853 42 c 2,22,-1
 876 42 l 1,23,-1
 876 0 l 1,24,-1
 587 0 l 1,25,-1
 587 42 l 1,26,-1
 610 42 l 2,27,28
 652 42 652 42 666.5 58.5 c 128,-1,29
 681 75 681 75 681 131 c 2,30,-1
 681 653 l 1,31,-1
 445 0 l 1,32,-1
 414 0 l 1,33,-1
 177 644 l 1,34,-1
 177 171 l 2,35,36
 177 98 177 98 196 70 c 128,-1,37
 215 42 215 42 271 42 c 1,38,-1
 271 0 l 1,39,-1
 32 0 l 1,40,-1
 32 42 l 1,0,1
EndSplineSet
EndChar

StartChar: N
Encoding: 78 78 49
Width: 738
GlyphClass: 1
Flags: W
LayerCount: 2
Fore
SplineSet
586 -14 m 1,0,-1
 177 591 l 1,1,-1
 177 182 l 2,2,3
 177 106 177 106 196.5 74 c 128,-1,4
 216 42 216 42 271 42 c 1,5,-1
 271 0 l 1,6,-1
 32 0 l 1,7,-1
 32 42 l 1,8,9
 86 42 86 42 106 73.5 c 128,-1,10
 126 105 126 105 126 171 c 2,11,-1
 126 637 l 1,12,13
 92 677 92 677 32 677 c 1,14,-1
 32 721 l 1,15,-1
 202 721 l 1,16,-1
 569 194 l 1,17,-1
 569 545 l 2,18,19
 569 619 569 619 551 646.5 c 128,-1,20
 533 674 533 674 475 679 c 1,21,-1
 475 721 l 1,22,-1
 714 721 l 1,23,-1
 714 679 l 1,24,25
 657 676 657 676 638 646.5 c 128,-1,26
 619 617 619 617 619 550 c 2,27,-1
 619 -14 l 1,28,-1
 586 -14 l 1,0,-1
EndSplineSet
EndChar

StartChar: O
Encoding: 79 79 50
Width: 707
GlyphClass: 1
Flags: W
LayerCount: 2
Fore
SplineSet
354 -14 m 128,-1,1
 226 -14 226 -14 134.5 96 c 128,-1,2
 43 206 43 206 43 361 c 128,-1,3
 43 516 43 516 134.5 625.5 c 128,-1,4
 226 735 226 735 354 735 c 128,-1,5
 482 735 482 735 573 625.5 c 128,-1,6
 664 516 664 516 664 361 c 128,-1,7
 664 206 664 206 573 96 c 128,-1,0
 482 -14 482 -14 354 -14 c 128,-1,1
353 26 m 0,8,9
 440 26 440 26 496 117 c 128,-1,10
 552 208 552 208 552 362 c 0,11,12
 552 515 552 515 496 605 c 128,-1,13
 440 695 440 695 353 695 c 0,14,15
 267 695 267 695 211 605 c 128,-1,16
 155 515 155 515 155 362 c 0,17,18
 155 208 155 208 211 117 c 128,-1,19
 267 26 267 26 353 26 c 0,8,9
EndSplineSet
EndChar

StartChar: P
Encoding: 80 80 51
Width: 621
GlyphClass: 1
Flags: W
LayerCount: 2
Fore
SplineSet
32 0 m 1,0,-1
 32 42 l 1,1,-1
 55 42 l 2,2,3
 97 42 97 42 111.5 58.5 c 128,-1,4
 126 75 126 75 126 131 c 2,5,-1
 126 599 l 2,6,7
 126 646 126 646 111.5 662.5 c 128,-1,8
 97 679 97 679 56 679 c 2,9,-1
 32 679 l 1,10,-1
 32 721 l 1,11,-1
 294 721 l 2,12,13
 402 721 402 721 457 701 c 0,14,15
 506 683 506 683 547 638.5 c 128,-1,16
 588 594 588 594 588 522 c 0,17,18
 588 415 588 415 493 365 c 0,19,20
 464 350 464 350 421.5 342 c 128,-1,21
 379 334 379 334 349 333 c 128,-1,22
 319 332 319 332 261 332 c 2,23,-1
 227 332 l 1,24,-1
 227 131 l 2,25,26
 227 75 227 75 241.5 58.5 c 128,-1,27
 256 42 256 42 298 42 c 2,28,-1
 328 42 l 1,29,-1
 328 0 l 1,30,-1
 32 0 l 1,0,-1
285 376 m 2,31,32
 318 376 318 376 336.5 377 c 128,-1,33
 355 378 355 378 385.5 386 c 128,-1,34
 416 394 416 394 433 408.5 c 128,-1,35
 450 423 450 423 463.5 453 c 128,-1,36
 477 483 477 483 477 526 c 0,37,38
 477 681 477 681 321 681 c 0,39,40
 251 681 251 681 236 656 c 0,41,42
 227 641 227 641 227 611 c 2,43,-1
 227 376 l 1,44,-1
 285 376 l 2,31,32
EndSplineSet
EndChar

StartChar: Q
Encoding: 81 81 52
Width: 708
GlyphClass: 1
Flags: W
LayerCount: 2
Fore
SplineSet
552 -121 m 0,0,1
 461 -121 461 -121 428 -1 c 1,2,3
 389 -14 389 -14 348 -14 c 0,4,5
 216 -14 216 -14 129.5 90.5 c 128,-1,6
 43 195 43 195 43 354 c 0,7,8
 43 515 43 515 131.5 625 c 128,-1,9
 220 735 220 735 357 735 c 0,10,11
 493 735 493 735 579 626 c 128,-1,12
 665 517 665 517 665 354 c 0,13,14
 665 147 665 147 514 39 c 1,15,16
 567 -50 567 -50 612 -50 c 0,17,18
 629 -50 629 -50 662 -27 c 1,19,-1
 682 -51 l 1,20,21
 663 -79 663 -79 629 -100 c 128,-1,22
 595 -121 595 -121 552 -121 c 0,0,1
353 26 m 0,23,24
 391 26 391 26 416 39 c 1,25,26
 404 101 404 101 372 136.5 c 128,-1,27
 340 172 340 172 301 172 c 0,28,29
 272 172 272 172 251 153.5 c 128,-1,30
 230 135 230 135 230 109 c 0,31,32
 230 77 230 77 263.5 51.5 c 128,-1,33
 297 26 297 26 353 26 c 0,23,24
481 81 m 1,34,35
 552 165 552 165 552 359 c 0,36,37
 552 509 552 509 503.5 602 c 128,-1,38
 455 695 455 695 357 695 c 0,39,40
 265 695 265 695 210 608.5 c 128,-1,41
 155 522 155 522 155 365 c 0,42,43
 155 235 155 235 198 124 c 1,44,45
 212 212 212 212 300 212 c 0,46,47
 353 212 353 212 395.5 179 c 128,-1,48
 438 146 438 146 481 81 c 1,34,35
EndSplineSet
EndChar

StartChar: R
Encoding: 82 82 53
Width: 645
GlyphClass: 1
Flags: W
LayerCount: 2
Fore
SplineSet
32 0 m 1,0,-1
 32 42 l 1,1,-1
 55 42 l 2,2,3
 97 42 97 42 111.5 58.5 c 128,-1,4
 126 75 126 75 126 131 c 2,5,-1
 126 599 l 2,6,7
 126 646 126 646 111.5 662.5 c 128,-1,8
 97 679 97 679 56 679 c 2,9,-1
 32 679 l 1,10,-1
 32 721 l 1,11,-1
 294 721 l 2,12,13
 405 721 405 721 459 703 c 0,14,15
 516 684 516 684 553.5 642 c 128,-1,16
 591 600 591 600 591 540 c 0,17,18
 591 470 591 470 540.5 417 c 128,-1,19
 490 364 490 364 401 358 c 1,20,-1
 521 139 l 2,21,22
 554 79 554 79 576 60.5 c 128,-1,23
 598 42 598 42 643 42 c 2,24,-1
 658 42 l 1,25,-1
 658 0 l 1,26,-1
 486 0 l 1,27,-1
 297 346 l 1,28,-1
 227 346 l 1,29,-1
 227 131 l 2,30,31
 227 75 227 75 241.5 58.5 c 128,-1,32
 256 42 256 42 298 42 c 2,33,-1
 314 42 l 1,34,-1
 314 0 l 1,35,-1
 32 0 l 1,0,-1
317 388 m 2,36,37
 394 388 394 388 437 426.5 c 128,-1,38
 480 465 480 465 480 539 c 0,39,40
 480 681 480 681 313 681 c 0,41,42
 253 681 253 681 237 656 c 0,43,44
 227 641 227 641 227 611 c 2,45,-1
 227 388 l 1,46,-1
 317 388 l 2,36,37
EndSplineSet
EndChar

StartChar: S
Encoding: 83 83 54
Width: 568
GlyphClass: 1
Flags: W
LayerCount: 2
Fore
SplineSet
107 -14 m 1,0,-1
 36 182 l 1,1,-1
 70 199 l 1,2,3
 111 135 111 135 181 83.5 c 128,-1,4
 251 32 251 32 318 32 c 0,5,6
 375 32 375 32 415 69.5 c 128,-1,7
 455 107 455 107 455 169 c 0,8,9
 455 212 455 212 433.5 241.5 c 128,-1,10
 412 271 412 271 377.5 287.5 c 128,-1,11
 343 304 343 304 301.5 316.5 c 128,-1,12
 260 329 260 329 218 344 c 128,-1,13
 176 359 176 359 141.5 379 c 128,-1,14
 107 399 107 399 85.5 436.5 c 128,-1,15
 64 474 64 474 64 526 c 0,16,17
 64 615 64 615 118.5 675 c 128,-1,18
 173 735 173 735 251 735 c 0,19,20
 282 735 282 735 326 722 c 128,-1,21
 370 709 370 709 380 709 c 0,22,23
 389 709 389 709 400 713 c 128,-1,24
 411 717 411 717 425 725 c 128,-1,25
 439 733 439 733 444 735 c 1,26,-1
 511 548 l 1,27,-1
 477 525 l 1,28,29
 374 689 374 689 260 689 c 0,30,31
 203 689 203 689 170 653.5 c 128,-1,32
 137 618 137 618 137 566 c 0,33,34
 137 526 137 526 159 498.5 c 128,-1,35
 181 471 181 471 215.5 456 c 128,-1,36
 250 441 250 441 292 429 c 128,-1,37
 334 417 334 417 376.5 402 c 128,-1,38
 419 387 419 387 453.5 366.5 c 128,-1,39
 488 346 488 346 510 307.5 c 128,-1,40
 532 269 532 269 532 216 c 0,41,42
 532 161 532 161 512.5 111 c 128,-1,43
 493 61 493 61 444.5 23.5 c 128,-1,44
 396 -14 396 -14 326 -14 c 0,45,46
 280 -14 280 -14 233.5 4.5 c 128,-1,47
 187 23 187 23 179 23 c 0,48,49
 169 23 169 23 159 18.5 c 128,-1,50
 149 14 149 14 132 2 c 128,-1,51
 115 -10 115 -10 107 -14 c 1,0,-1
EndSplineSet
EndChar

StartChar: T
Encoding: 84 84 55
Width: 641
GlyphClass: 1
Flags: W
LayerCount: 2
Fore
SplineSet
170 0 m 1,0,-1
 170 42 l 1,1,-1
 199 42 l 2,2,3
 241 42 241 42 255.5 58.5 c 128,-1,4
 270 75 270 75 270 131 c 2,5,-1
 270 615 l 2,6,7
 270 644 270 644 268.5 654.5 c 128,-1,8
 267 665 267 665 258.5 672 c 128,-1,9
 250 679 250 679 230 679 c 0,10,11
 129 679 129 679 30 526 c 1,12,-1
 -8 542 l 1,13,-1
 46 721 l 1,14,-1
 595 721 l 1,15,-1
 649 542 l 1,16,-1
 611 526 l 1,17,18
 512 679 512 679 411 679 c 0,19,20
 383 679 383 679 377 667.5 c 128,-1,21
 371 656 371 656 371 615 c 2,22,-1
 371 131 l 2,23,24
 371 75 371 75 385.5 58.5 c 128,-1,25
 400 42 400 42 442 42 c 2,26,-1
 471 42 l 1,27,-1
 471 0 l 1,28,-1
 170 0 l 1,0,-1
EndSplineSet
EndChar

StartChar: U
Encoding: 85 85 56
Width: 757
GlyphClass: 1
Flags: W
LayerCount: 2
Fore
SplineSet
377 -16 m 0,0,1
 126 -16 126 -16 126 230 c 2,2,-1
 126 599 l 2,3,4
 126 646 126 646 111.5 662.5 c 128,-1,5
 97 679 97 679 56 679 c 2,6,-1
 32 679 l 1,7,-1
 32 721 l 1,8,-1
 321 721 l 1,9,-1
 321 679 l 1,10,-1
 297 679 l 2,11,12
 256 679 256 679 241.5 662.5 c 128,-1,13
 227 646 227 646 227 599 c 2,14,-1
 227 228 l 2,15,16
 227 139 227 139 266 90 c 0,17,18
 314 30 314 30 401 30 c 0,19,20
 457 30 457 30 500 54.5 c 128,-1,21
 543 79 543 79 562 131 c 0,22,23
 579 177 579 177 579 267 c 2,24,-1
 579 560 l 2,25,26
 579 624 579 624 558.5 650 c 128,-1,27
 538 676 538 676 485 679 c 1,28,-1
 485 721 l 1,29,-1
 724 721 l 1,30,-1
 724 679 l 1,31,32
 671 676 671 676 650.5 650 c 128,-1,33
 630 624 630 624 630 560 c 2,34,-1
 630 271 l 2,35,36
 630 160 630 160 604 103 c 0,37,38
 552 -16 552 -16 377 -16 c 0,0,1
EndSplineSet
EndChar

StartChar: V
Encoding: 86 86 57
Width: 632
GlyphClass: 1
Flags: W
LayerCount: 2
Fore
SplineSet
90 599 m 2,0,1
 73 650 73 650 53.5 664.5 c 128,-1,2
 34 679 34 679 -8 679 c 1,3,-1
 -8 721 l 1,4,-1
 264 721 l 1,5,-1
 264 679 l 1,6,-1
 240 679 l 2,7,8
 185 679 185 679 185 646 c 0,9,10
 185 630 185 630 195 599 c 2,11,-1
 343 147 l 1,12,-1
 480 560 l 2,13,14
 496 608 496 608 496 626 c 0,15,16
 496 653 496 653 477.5 666 c 128,-1,17
 459 679 459 679 417 679 c 1,18,-1
 417 721 l 1,19,-1
 640 721 l 1,20,-1
 640 679 l 1,21,22
 619 678 619 678 604.5 672.5 c 128,-1,23
 590 667 590 667 581.5 661.5 c 128,-1,24
 573 656 573 656 563 636 c 128,-1,25
 553 616 553 616 549.5 606 c 128,-1,26
 546 596 546 596 534 562 c 2,27,-1
 332 -22 l 1,28,-1
 298 -22 l 1,29,-1
 90 599 l 2,0,1
EndSplineSet
EndChar

StartChar: W
Encoding: 87 87 58
Width: 853
GlyphClass: 1
Flags: W
LayerCount: 2
Fore
SplineSet
68 599 m 2,0,1
 52 655 52 655 41.5 667 c 128,-1,2
 31 679 31 679 -8 679 c 1,3,-1
 -8 721 l 1,4,-1
 245 721 l 1,5,-1
 245 679 l 1,6,-1
 211 679 l 2,7,8
 192 679 192 679 183.5 678 c 128,-1,9
 175 677 175 677 167.5 671.5 c 128,-1,10
 160 666 160 666 160 654 c 0,11,12
 160 649 160 649 173 599 c 2,13,-1
 282 184 l 1,14,-1
 402 590 l 1,15,16
 385 655 385 655 368.5 667 c 128,-1,17
 352 679 352 679 291 679 c 1,18,-1
 291 721 l 1,19,-1
 573 721 l 1,20,-1
 573 679 l 1,21,-1
 549 679 l 2,22,23
 491 679 491 679 491 643 c 0,24,25
 491 637 491 637 501 599 c 2,26,-1
 611 184 l 1,27,-1
 718 560 l 2,28,29
 735 620 735 620 735 637 c 0,30,31
 735 660 735 660 721 669.5 c 128,-1,32
 707 679 707 679 676 679 c 2,33,-1
 654 679 l 1,34,-1
 654 721 l 1,35,-1
 859 721 l 1,36,-1
 859 679 l 1,37,38
 819 677 819 677 806 658.5 c 128,-1,39
 793 640 793 640 772 568 c 2,40,-1
 598 -22 l 1,41,-1
 571 -22 l 1,42,-1
 424 506 l 1,43,-1
 272 -22 l 1,44,-1
 240 -22 l 1,45,-1
 68 599 l 2,0,1
EndSplineSet
EndChar

StartChar: X
Encoding: 88 88 59
Width: 632
GlyphClass: 1
Flags: W
LayerCount: 2
Fore
SplineSet
-8 0 m 1,0,-1
 -8 42 l 1,1,-1
 1 42 l 2,2,3
 73 42 73 42 128 128 c 2,4,-1
 270 352 l 1,5,-1
 116 608 l 2,6,7
 92 647 92 647 69.5 663 c 128,-1,8
 47 679 47 679 0 679 c 1,9,-1
 0 721 l 1,10,-1
 283 721 l 1,11,-1
 283 679 l 1,12,-1
 259 679 l 2,13,14
 212 679 212 679 212 656 c 0,15,16
 212 644 212 644 232 609 c 2,17,-1
 333 438 l 1,18,-1
 434 609 l 2,19,20
 448 632 448 632 448 650 c 0,21,22
 448 679 448 679 384 679 c 2,23,-1
 376 679 l 1,24,-1
 376 721 l 1,25,-1
 617 721 l 1,26,-1
 617 679 l 1,27,-1
 611 679 l 2,28,29
 573 679 573 679 548.5 663.5 c 128,-1,30
 524 648 524 648 488 594 c 2,31,-1
 359 399 l 1,32,-1
 524 117 l 2,33,34
 549 75 549 75 571.5 58.5 c 128,-1,35
 594 42 594 42 640 42 c 1,36,-1
 640 0 l 1,37,-1
 354 0 l 1,38,-1
 354 42 l 1,39,-1
 383 42 l 2,40,41
 432 42 432 42 432 62 c 0,42,43
 432 76 432 76 411 112 c 2,44,-1
 297 310 l 1,45,-1
 187 128 l 2,46,47
 171 101 171 101 171 77 c 0,48,49
 171 42 171 42 222 42 c 2,50,-1
 249 42 l 1,51,-1
 249 0 l 1,52,-1
 -8 0 l 1,0,-1
EndSplineSet
EndChar

StartChar: Y
Encoding: 89 89 60
Width: 584
GlyphClass: 1
Flags: W
LayerCount: 2
Fore
SplineSet
143 0 m 1,0,-1
 143 42 l 1,1,-1
 165 42 l 2,2,3
 208 42 208 42 222.5 58.5 c 128,-1,4
 237 75 237 75 237 131 c 2,5,-1
 237 295 l 1,6,-1
 79 610 l 2,7,8
 76 616 76 616 70.5 628 c 128,-1,9
 65 640 65 640 62.5 644 c 128,-1,10
 60 648 60 648 55 656 c 128,-1,11
 50 664 50 664 45.5 666.5 c 128,-1,12
 41 669 41 669 33 673 c 128,-1,13
 25 677 25 677 15 678 c 128,-1,14
 5 679 5 679 -8 679 c 1,15,-1
 -8 721 l 1,16,-1
 244 721 l 1,17,-1
 244 679 l 1,18,19
 169 679 169 679 169 661 c 0,20,21
 169 649 169 649 189 609 c 2,22,-1
 314 358 l 1,23,-1
 430 600 l 2,24,25
 443 628 443 628 443 643 c 0,26,27
 443 679 443 679 376 679 c 2,28,-1
 369 679 l 1,29,-1
 369 721 l 1,30,-1
 590 721 l 1,31,-1
 590 679 l 1,32,33
 546 674 546 674 529 659 c 128,-1,34
 512 644 512 644 486 594 c 2,35,-1
 337 308 l 1,36,-1
 337 131 l 2,37,38
 337 75 337 75 351.5 58.5 c 128,-1,39
 366 42 366 42 409 42 c 2,40,-1
 431 42 l 1,41,-1
 431 0 l 1,42,-1
 143 0 l 1,0,-1
EndSplineSet
EndChar

StartChar: Z
Encoding: 90 90 61
Width: 588
GlyphClass: 1
Flags: W
LayerCount: 2
Fore
SplineSet
41 0 m 1,0,-1
 27 23 l 1,1,-1
 418 675 l 1,2,-1
 330 675 l 2,3,4
 182 675 182 675 80 528 c 1,5,-1
 45 544 l 1,6,-1
 110 721 l 1,7,-1
 532 721 l 1,8,-1
 548 699 l 1,9,-1
 156 46 l 1,10,-1
 240 46 l 2,11,12
 336 46 336 46 399.5 82 c 128,-1,13
 463 118 463 118 523 205 c 1,14,-1
 560 189 l 1,15,-1
 490 0 l 1,16,-1
 41 0 l 1,0,-1
EndSplineSet
EndChar

StartChar: bracketleft
Encoding: 91 91 62
Width: 328
GlyphClass: 1
Flags: W
LayerCount: 2
Fore
SplineSet
97 -181 m 1,0,-1
 97 721 l 1,1,-1
 271 721 l 1,2,-1
 271 676 l 1,3,-1
 181 676 l 1,4,-1
 181 -135 l 1,5,-1
 277 -135 l 1,6,-1
 277 -181 l 1,7,-1
 97 -181 l 1,0,-1
EndSplineSet
Substitution2: "'rtla' Right to Left Alternates lookup 0 subtable" bracketright
EndChar

StartChar: backslash
Encoding: 92 92 63
Width: 363
GlyphClass: 1
Flags: W
LayerCount: 2
Fore
SplineSet
320 -181 m 1,0,-1
 263 -181 l 1,1,-1
 -12 721 l 1,2,-1
 47 721 l 1,3,-1
 320 -181 l 1,0,-1
EndSplineSet
EndChar

StartChar: bracketright
Encoding: 93 93 64
Width: 328
GlyphClass: 1
Flags: W
LayerCount: 2
Fore
SplineSet
231 -181 m 1,0,-1
 51 -181 l 1,1,-1
 51 -135 l 1,2,-1
 147 -135 l 1,3,-1
 147 676 l 1,4,-1
 57 676 l 1,5,-1
 57 721 l 1,6,-1
 231 721 l 1,7,-1
 231 -181 l 1,0,-1
EndSplineSet
Substitution2: "'rtla' Right to Left Alternates lookup 0 subtable" bracketleft
EndChar

StartChar: asciicircum
Encoding: 94 94 65
Width: 601
GlyphClass: 1
Flags: W
LayerCount: 2
Fore
SplineSet
72 351 m 1,0,-1
 268 746 l 1,1,-1
 333 746 l 1,2,-1
 529 351 l 1,3,-1
 455 351 l 1,4,-1
 301 666 l 1,5,-1
 146 351 l 1,6,-1
 72 351 l 1,0,-1
EndSplineSet
EndChar

StartChar: underscore
Encoding: 95 95 66
Width: 541
GlyphClass: 1
Flags: W
LayerCount: 2
Fore
SplineSet
23 -145 m 1,0,-1
 23 -95 l 1,1,-1
 517 -95 l 1,2,-1
 517 -145 l 1,3,-1
 23 -145 l 1,0,-1
EndSplineSet
EndChar

StartChar: grave
Encoding: 96 96 67
Width: 211
GlyphClass: 1
Flags: W
LayerCount: 2
Fore
SplineSet
40 610 m 2,0,1
 27 618 27 618 20 622.5 c 128,-1,2
 13 627 13 627 6.5 636.5 c 128,-1,3
 0 646 0 646 0 656 c 0,4,5
 0 670 0 670 10.5 680.5 c 128,-1,6
 21 691 21 691 36 691 c 0,7,8
 54 691 54 691 90 655 c 2,9,-1
 211 533 l 1,10,-1
 179 526 l 1,11,-1
 40 610 l 2,0,1
EndSplineSet
Substitution2: "<3,3> Small Caps in Latin lookup 11 subtable" grave.sc
EndChar

StartChar: a
Encoding: 97 97 68
Width: 468
GlyphClass: 1
Flags: W
LayerCount: 2
Fore
SplineSet
163 -14 m 0,0,1
 119 -14 119 -14 78.5 12.5 c 128,-1,2
 38 39 38 39 38 98 c 0,3,4
 38 139 38 139 59 170.5 c 128,-1,5
 80 202 80 202 121.5 225 c 128,-1,6
 163 248 163 248 201.5 262 c 128,-1,7
 240 276 240 276 299 292 c 1,8,-1
 299 355 l 2,9,10
 299 441 299 441 231 441 c 0,11,12
 202 441 202 441 184.5 424 c 128,-1,13
 167 407 167 407 161.5 386.5 c 128,-1,14
 156 366 156 366 142 349 c 128,-1,15
 128 332 128 332 104 332 c 0,16,17
 82 332 82 332 68 345.5 c 128,-1,18
 54 359 54 359 54 380 c 0,19,20
 54 422 54 422 107.5 452 c 128,-1,21
 161 482 161 482 237 482 c 0,22,23
 282 482 282 482 312.5 471 c 128,-1,24
 343 460 343 460 357.5 439.5 c 128,-1,25
 372 419 372 419 377.5 398 c 128,-1,26
 383 377 383 377 383 350 c 2,27,-1
 383 95 l 2,28,29
 383 39 383 39 398 39 c 0,30,31
 403 39 403 39 427 57 c 1,32,-1
 451 35 l 1,33,34
 418 -14 418 -14 365 -14 c 128,-1,35
 312 -14 312 -14 304 46 c 1,36,37
 220 -14 220 -14 163 -14 c 0,0,1
193 37 m 0,38,39
 242 37 242 37 299 83 c 1,40,-1
 299 252 l 1,41,42
 130 194 130 194 130 104 c 0,43,44
 130 75 130 75 147 56 c 128,-1,45
 164 37 164 37 193 37 c 0,38,39
EndSplineSet
Substitution2: "<3,3> Small Caps in Latin lookup 11 subtable" a.sc
EndChar

StartChar: b
Encoding: 98 98 69
Width: 522
GlyphClass: 1
Flags: W
LayerCount: 2
Fore
SplineSet
110 -18 m 1,0,-1
 84 -13 l 1,1,-1
 84 576 l 2,2,3
 84 621 84 621 73 632.5 c 128,-1,4
 62 644 62 644 16 651 c 1,5,-1
 16 681 l 1,6,-1
 168 729 l 1,7,-1
 168 430 l 1,8,9
 236 483 236 483 295 483 c 0,10,11
 373 483 373 483 427.5 412.5 c 128,-1,12
 482 342 482 342 482 240 c 128,-1,13
 482 138 482 138 428 62 c 128,-1,14
 374 -14 374 -14 289 -14 c 0,15,16
 213 -14 213 -14 157 50 c 1,17,-1
 110 -18 l 1,0,-1
269 40 m 128,-1,19
 325 40 325 40 356.5 87 c 128,-1,20
 388 134 388 134 388 228 c 0,21,22
 388 327 388 327 355 376.5 c 128,-1,23
 322 426 322 426 272 426 c 0,24,25
 223 426 223 426 168 378 c 1,26,-1
 168 93 l 1,27,18
 213 40 213 40 269 40 c 128,-1,19
EndSplineSet
Substitution2: "<3,3> Small Caps in Latin lookup 11 subtable" b.sc
EndChar

StartChar: c
Encoding: 99 99 70
Width: 462
GlyphClass: 1
Flags: W
LayerCount: 2
Fore
SplineSet
249 -14 m 0,0,1
 159 -14 159 -14 100 52 c 128,-1,2
 41 118 41 118 41 219 c 0,3,4
 41 328 41 328 109 405 c 128,-1,5
 177 482 177 482 272 482 c 0,6,7
 332 482 332 482 379.5 453 c 128,-1,8
 427 424 427 424 427 387 c 0,9,10
 427 366 427 366 412 351 c 128,-1,11
 397 336 397 336 374 336 c 0,12,13
 352 336 352 336 338.5 352.5 c 128,-1,14
 325 369 325 369 319.5 389 c 128,-1,15
 314 409 314 409 297 425.5 c 128,-1,16
 280 442 280 442 252 442 c 0,17,18
 199 442 199 442 166.5 388.5 c 128,-1,19
 134 335 134 335 134 249 c 0,20,21
 134 156 134 156 172.5 99.5 c 128,-1,22
 211 43 211 43 275 43 c 0,23,24
 353 43 353 43 410 130 c 1,25,-1
 443 109 l 1,26,27
 412 56 412 56 363 21 c 128,-1,28
 314 -14 314 -14 249 -14 c 0,0,1
EndSplineSet
Substitution2: "<3,3> Small Caps in Latin lookup 11 subtable" c.sc
EndChar

StartChar: d
Encoding: 100 100 71
Width: 524
GlyphClass: 1
Flags: W
LayerCount: 2
Fore
SplineSet
227 -14 m 0,0,1
 144 -14 144 -14 92 61.5 c 128,-1,2
 40 137 40 137 40 237 c 0,3,4
 40 340 40 340 94.5 411 c 128,-1,5
 149 482 149 482 227 482 c 0,6,7
 255 482 255 482 284 469.5 c 128,-1,8
 313 457 313 457 325 448.5 c 128,-1,9
 337 440 337 440 357 423 c 1,10,-1
 357 576 l 2,11,12
 357 621 357 621 345.5 632.5 c 128,-1,13
 334 644 334 644 289 651 c 1,14,-1
 289 681 l 1,15,-1
 440 729 l 1,16,-1
 440 109 l 2,17,18
 440 61 440 61 451.5 49 c 128,-1,19
 463 37 463 37 502 36 c 1,20,-1
 502 0 l 1,21,-1
 357 -9 l 1,22,-1
 357 53 l 1,23,24
 303 -14 303 -14 227 -14 c 0,0,1
245 39 m 0,25,26
 273 39 273 39 303.5 56 c 128,-1,27
 334 73 334 73 357 104 c 1,28,-1
 357 373 l 1,29,30
 300 425 300 425 251 425 c 0,31,32
 196 425 196 425 165 370.5 c 128,-1,33
 134 316 134 316 134 224 c 0,34,35
 134 126 134 126 167 82.5 c 128,-1,36
 200 39 200 39 245 39 c 0,25,26
EndSplineSet
Substitution2: "<3,3> Small Caps in Latin lookup 11 subtable" d.sc
EndChar

StartChar: e
Encoding: 101 101 72
Width: 510
GlyphClass: 1
Flags: W
LayerCount: 2
Fore
SplineSet
266 -14 m 0,0,1
 171 -14 171 -14 106 49.5 c 128,-1,2
 41 113 41 113 41 217 c 0,3,4
 41 324 41 324 107.5 403 c 128,-1,5
 174 482 174 482 272 482 c 0,6,7
 359 482 359 482 411 416.5 c 128,-1,8
 463 351 463 351 469 257 c 1,9,-1
 133 257 l 1,10,11
 133 145 133 145 179 93 c 0,12,13
 223 43 223 43 292 43 c 0,14,15
 377 43 377 43 448 122 c 1,16,-1
 475 101 l 1,17,18
 393 -14 393 -14 266 -14 c 0,0,1
375 301 m 1,19,20
 370 377 370 377 340 411 c 128,-1,21
 310 445 310 445 266 445 c 0,22,23
 219 445 219 445 185 409 c 128,-1,24
 151 373 151 373 139 301 c 1,25,-1
 375 301 l 1,19,20
EndSplineSet
Substitution2: "<3,3> Small Caps in Latin lookup 11 subtable" e.sc
EndChar

StartChar: f
Encoding: 102 102 73
Width: 292
GlyphClass: 1
Flags: W
LayerCount: 2
Fore
SplineSet
14 0 m 1,0,-1
 14 40 l 1,1,-1
 26 40 l 2,2,3
 65 40 65 40 78 52 c 128,-1,4
 91 64 91 64 91 95 c 2,5,-1
 91 425 l 1,6,-1
 14 425 l 1,7,-1
 14 468 l 1,8,-1
 91 468 l 1,9,10
 91 538 91 538 108 592 c 128,-1,11
 125 646 125 646 151 675 c 128,-1,12
 177 704 177 704 204.5 718 c 128,-1,13
 232 732 232 732 259 732 c 0,14,15
 288 732 288 732 307 717.5 c 128,-1,16
 326 703 326 703 326 680 c 0,17,18
 326 659 326 659 309 643 c 128,-1,19
 292 627 292 627 271 627 c 0,20,21
 252 627 252 627 234 644.5 c 128,-1,22
 216 662 216 662 209 662 c 0,23,24
 174 662 174 662 174 468 c 1,25,-1
 277 468 l 1,26,-1
 277 425 l 1,27,-1
 174 425 l 1,28,-1
 174 98 l 2,29,30
 174 63 174 63 185.5 51.5 c 128,-1,31
 197 40 197 40 236 40 c 2,32,-1
 264 40 l 1,33,-1
 264 0 l 1,34,-1
 14 0 l 1,0,-1
EndSplineSet
Substitution2: "<3,3> Small Caps in Latin lookup 11 subtable" f.sc
EndChar

StartChar: g
Encoding: 103 103 74
Width: 506
GlyphClass: 1
Flags: W
LayerCount: 2
Fore
SplineSet
239 -181 m 0,0,1
 144 -181 144 -181 84.5 -156.5 c 128,-1,2
 25 -132 25 -132 25 -84 c 0,3,4
 25 -12 25 -12 173 28 c 1,5,6
 65 40 65 40 65 92 c 0,7,8
 65 134 65 134 150 163 c 1,9,10
 58 211 58 211 58 305 c 0,11,12
 58 379 58 379 111 430.5 c 128,-1,13
 164 482 164 482 239 482 c 0,14,15
 294 482 294 482 356 441 c 1,16,17
 392 493 392 493 436 493 c 0,18,19
 458 493 458 493 472 479.5 c 128,-1,20
 486 466 486 466 486 443 c 0,21,22
 486 404 486 404 451 404 c 0,23,24
 434 404 434 404 419.5 417 c 128,-1,25
 405 430 405 430 398 430 c 0,26,27
 390 430 390 430 382 422 c 1,28,29
 426 371 426 371 426 310 c 0,30,31
 426 241 426 241 372.5 191 c 128,-1,32
 319 141 319 141 240 141 c 0,33,34
 219 141 219 141 182 149 c 1,35,36
 146 141 146 141 146 120 c 0,37,38
 146 111 146 111 154.5 105 c 128,-1,39
 163 99 163 99 181.5 94.5 c 128,-1,40
 200 90 200 90 219.5 87.5 c 128,-1,41
 239 85 239 85 270.5 80 c 128,-1,42
 302 75 302 75 327 70 c 0,43,44
 476 41 476 41 476 -50 c 0,45,46
 476 -111 476 -111 415 -146 c 128,-1,47
 354 -181 354 -181 239 -181 c 0,0,1
248 -144 m 0,48,49
 408 -144 408 -144 408 -73 c 0,50,51
 408 -44 408 -44 368.5 -25.5 c 128,-1,52
 329 -7 329 -7 216 13 c 1,53,54
 155 -13 155 -13 130.5 -32 c 128,-1,55
 106 -51 106 -51 106 -79 c 0,56,57
 106 -144 106 -144 248 -144 c 0,48,49
241 174 m 0,58,59
 285 174 285 174 313 211.5 c 128,-1,60
 341 249 341 249 341 312 c 0,61,62
 341 377 341 377 312.5 411 c 128,-1,63
 284 445 284 445 243 445 c 0,64,65
 199 445 199 445 171.5 407.5 c 128,-1,66
 144 370 144 370 144 309 c 0,67,68
 144 250 144 250 169.5 212 c 128,-1,69
 195 174 195 174 241 174 c 0,58,59
EndSplineSet
Substitution2: "<3,3> Small Caps in Latin lookup 11 subtable" g.sc
EndChar

StartChar: h
Encoding: 104 104 75
Width: 546
GlyphClass: 1
Flags: W
LayerCount: 2
Fore
SplineSet
28 0 m 1,0,-1
 28 40 l 1,1,-1
 37 40 l 2,2,3
 75 40 75 40 85.5 53 c 128,-1,4
 96 66 96 66 96 98 c 2,5,-1
 96 576 l 2,6,7
 96 621 96 621 84.5 632.5 c 128,-1,8
 73 644 73 644 28 651 c 1,9,-1
 28 681 l 1,10,-1
 179 729 l 1,11,-1
 179 404 l 1,12,13
 258 483 258 483 330 483 c 0,14,15
 385 483 385 483 419 445.5 c 128,-1,16
 453 408 453 408 453 329 c 2,17,-1
 453 98 l 2,18,19
 453 63 453 63 464.5 51.5 c 128,-1,20
 476 40 476 40 515 40 c 1,21,-1
 515 0 l 1,22,-1
 308 0 l 1,23,-1
 308 40 l 1,24,-1
 310 40 l 2,25,26
 348 40 348 40 359 51.5 c 128,-1,27
 370 63 370 63 370 95 c 2,28,-1
 370 323 l 2,29,30
 370 380 370 380 352 403 c 128,-1,31
 334 426 334 426 300 426 c 0,32,33
 237 426 237 426 179 357 c 1,34,-1
 179 98 l 2,35,36
 179 63 179 63 190.5 51.5 c 128,-1,37
 202 40 202 40 241 40 c 1,38,-1
 241 0 l 1,39,-1
 28 0 l 1,0,-1
EndSplineSet
Substitution2: "<3,3> Small Caps in Latin lookup 11 subtable" h.sc
EndChar

StartChar: i
Encoding: 105 105 76
Width: 270
GlyphClass: 1
Flags: W
LayerCount: 2
Fore
SplineSet
34 0 m 1,0,-1
 34 40 l 1,1,-1
 42 40 l 2,2,3
 80 40 80 40 91 53 c 128,-1,4
 102 66 102 66 102 98 c 2,5,-1
 102 337 l 2,6,7
 102 382 102 382 90.5 393.5 c 128,-1,8
 79 405 79 405 34 412 c 1,9,-1
 34 442 l 1,10,-1
 185 490 l 1,11,-1
 185 98 l 2,12,13
 185 63 185 63 196 51.5 c 128,-1,14
 207 40 207 40 246 40 c 1,15,-1
 246 0 l 1,16,-1
 34 0 l 1,0,-1
141 613 m 0,17,18
 118 613 118 613 100.5 630 c 128,-1,19
 83 647 83 647 83 672 c 0,20,21
 83 696 83 696 100.5 712.5 c 128,-1,22
 118 729 118 729 141 729 c 0,23,24
 165 729 165 729 182 712.5 c 128,-1,25
 199 696 199 696 199 672 c 0,26,27
 199 647 199 647 182 630 c 128,-1,28
 165 613 165 613 141 613 c 0,17,18
EndSplineSet
Substitution2: "<3,3> Small Caps in Latin lookup 11 subtable" i.sc
EndChar

StartChar: j
Encoding: 106 106 77
Width: 250
GlyphClass: 1
Flags: W
LayerCount: 2
Fore
SplineSet
33 -188 m 0,0,1
 4 -188 4 -188 -16.5 -171.5 c 128,-1,2
 -37 -155 -37 -155 -37 -129 c 0,3,4
 -37 -106 -37 -106 -21 -91 c 128,-1,5
 -5 -76 -5 -76 17 -76 c 0,6,7
 36 -76 36 -76 48.5 -88 c 128,-1,8
 61 -100 61 -100 68 -111.5 c 128,-1,9
 75 -123 75 -123 80 -123 c 0,10,11
 102 -123 102 -123 102 -28 c 2,12,-1
 102 337 l 2,13,14
 102 382 102 382 90.5 393.5 c 128,-1,15
 79 405 79 405 34 412 c 1,16,-1
 34 442 l 1,17,-1
 185 490 l 1,18,-1
 185 22 l 2,19,20
 185 -40 185 -40 168 -84.5 c 128,-1,21
 151 -129 151 -129 125 -149.5 c 128,-1,22
 99 -170 99 -170 76.5 -179 c 128,-1,23
 54 -188 54 -188 33 -188 c 0,0,1
141 613 m 0,24,25
 118 613 118 613 100.5 630 c 128,-1,26
 83 647 83 647 83 672 c 0,27,28
 83 696 83 696 100.5 712.5 c 128,-1,29
 118 729 118 729 141 729 c 0,30,31
 165 729 165 729 182 712.5 c 128,-1,32
 199 696 199 696 199 672 c 0,33,34
 199 647 199 647 182 630 c 128,-1,35
 165 613 165 613 141 613 c 0,24,25
EndSplineSet
Substitution2: "<3,3> Small Caps in Latin lookup 11 subtable" j.sc
EndChar

StartChar: k
Encoding: 107 107 78
Width: 509
GlyphClass: 1
Flags: W
LayerCount: 2
Fore
SplineSet
26 0 m 1,0,-1
 26 40 l 1,1,-1
 35 40 l 2,2,3
 73 40 73 40 83.5 53 c 128,-1,4
 94 66 94 66 94 98 c 2,5,-1
 94 576 l 2,6,7
 94 621 94 621 82.5 632.5 c 128,-1,8
 71 644 71 644 26 651 c 1,9,-1
 26 681 l 1,10,-1
 177 729 l 1,11,-1
 177 231 l 1,12,-1
 314 368 l 2,13,14
 339 393 339 393 339 408 c 0,15,16
 339 427 339 427 282 428 c 1,17,-1
 282 468 l 1,18,-1
 494 468 l 1,19,-1
 494 428 l 1,20,21
 463 428 463 428 432 411.5 c 128,-1,22
 401 395 401 395 387 382 c 128,-1,23
 373 369 373 369 343 338 c 2,24,-1
 296 290 l 1,25,-1
 416 103 l 1,26,-1
 442 67 l 2,27,28
 455 50 455 50 464.5 46 c 128,-1,29
 474 42 474 42 509 40 c 1,30,-1
 509 0 l 1,31,-1
 296 0 l 1,32,-1
 296 40 l 1,33,-1
 305 40 l 2,34,35
 346 40 346 40 346 55 c 0,36,37
 346 57 346 57 348 58 c 0,38,39
 350 60 350 60 295 146 c 2,40,-1
 237 236 l 1,41,-1
 177 177 l 1,42,-1
 177 98 l 2,43,44
 177 63 177 63 188.5 51.5 c 128,-1,45
 200 40 200 40 239 40 c 1,46,-1
 239 0 l 1,47,-1
 26 0 l 1,0,-1
EndSplineSet
Substitution2: "<3,3> Small Caps in Latin lookup 11 subtable" k.sc
EndChar

StartChar: l
Encoding: 108 108 79
Width: 263
GlyphClass: 1
Flags: W
LayerCount: 2
Fore
SplineSet
28 0 m 1,0,-1
 28 40 l 1,1,-1
 37 40 l 2,2,3
 75 40 75 40 85.5 53 c 128,-1,4
 96 66 96 66 96 98 c 2,5,-1
 96 576 l 2,6,7
 96 621 96 621 84.5 632.5 c 128,-1,8
 73 644 73 644 28 651 c 1,9,-1
 28 681 l 1,10,-1
 179 729 l 1,11,-1
 179 98 l 2,12,13
 179 63 179 63 190.5 51.5 c 128,-1,14
 202 40 202 40 241 40 c 1,15,-1
 241 0 l 1,16,-1
 28 0 l 1,0,-1
EndSplineSet
Substitution2: "<3,3> Small Caps in Latin lookup 11 subtable" l.sc
EndChar

StartChar: m
Encoding: 109 109 80
Width: 818
GlyphClass: 1
Flags: W
LayerCount: 2
Fore
SplineSet
34 0 m 1,0,-1
 34 40 l 1,1,-1
 42 40 l 2,2,3
 80 40 80 40 91 53 c 128,-1,4
 102 66 102 66 102 98 c 2,5,-1
 102 337 l 2,6,7
 102 382 102 382 90.5 393.5 c 128,-1,8
 79 405 79 405 34 412 c 1,9,-1
 34 442 l 1,10,-1
 185 490 l 1,11,-1
 185 403 l 1,12,13
 252 482 252 482 333 482 c 0,14,15
 418 482 418 482 453 397 c 1,16,17
 523 482 523 482 609 482 c 0,18,19
 665 482 665 482 699 446.5 c 128,-1,20
 733 411 733 411 733 334 c 2,21,-1
 733 98 l 2,22,23
 733 63 733 63 744.5 51.5 c 128,-1,24
 756 40 756 40 795 40 c 1,25,-1
 795 0 l 1,26,-1
 588 0 l 1,27,-1
 588 40 l 1,28,-1
 590 40 l 2,29,30
 628 40 628 40 639 53 c 128,-1,31
 650 66 650 66 650 98 c 2,32,-1
 650 319 l 2,33,34
 650 425 650 425 578 425 c 0,35,36
 526 425 526 425 459 358 c 1,37,-1
 459 98 l 2,38,39
 459 63 459 63 470.5 51.5 c 128,-1,40
 482 40 482 40 521 40 c 1,41,-1
 521 0 l 1,42,-1
 315 0 l 1,43,-1
 315 40 l 1,44,-1
 317 40 l 2,45,46
 355 40 355 40 365.5 53 c 128,-1,47
 376 66 376 66 376 98 c 2,48,-1
 376 322 l 2,49,50
 376 425 376 425 305 425 c 0,51,52
 253 425 253 425 185 359 c 1,53,-1
 185 104 l 2,54,55
 185 67 185 67 196 53.5 c 128,-1,56
 207 40 207 40 246 40 c 1,57,-1
 246 0 l 1,58,-1
 34 0 l 1,0,-1
EndSplineSet
Substitution2: "<3,3> Small Caps in Latin lookup 11 subtable" m.sc
EndChar

StartChar: n
Encoding: 110 110 81
Width: 544
GlyphClass: 1
Flags: W
LayerCount: 2
Fore
SplineSet
34 0 m 1,0,-1
 34 40 l 1,1,-1
 42 40 l 2,2,3
 80 40 80 40 91 53 c 128,-1,4
 102 66 102 66 102 98 c 2,5,-1
 102 337 l 2,6,7
 102 382 102 382 90.5 393.5 c 128,-1,8
 79 405 79 405 34 412 c 1,9,-1
 34 442 l 1,10,-1
 185 490 l 1,11,-1
 185 408 l 1,12,13
 262 482 262 482 336 482 c 0,14,15
 391 482 391 482 424.5 444 c 128,-1,16
 458 406 458 406 458 325 c 2,17,-1
 458 98 l 2,18,19
 458 63 458 63 469.5 51.5 c 128,-1,20
 481 40 481 40 520 40 c 1,21,-1
 520 0 l 1,22,-1
 314 0 l 1,23,-1
 314 40 l 1,24,-1
 316 40 l 2,25,26
 354 40 354 40 364.5 52 c 128,-1,27
 375 64 375 64 375 96 c 2,28,-1
 375 322 l 2,29,30
 375 377 375 377 354 401 c 128,-1,31
 333 425 333 425 302 425 c 0,32,33
 250 425 250 425 185 363 c 1,34,-1
 185 99 l 2,35,36
 185 64 185 64 196 52 c 128,-1,37
 207 40 207 40 246 40 c 1,38,-1
 246 0 l 1,39,-1
 34 0 l 1,0,-1
EndSplineSet
Substitution2: "<3,3> Small Caps in Latin lookup 11 subtable" n.sc
EndChar

StartChar: o
Encoding: 111 111 82
Width: 522
GlyphClass: 1
Flags: W
LayerCount: 2
Fore
SplineSet
261 -14 m 0,0,1
 162 -14 162 -14 101.5 61 c 128,-1,2
 41 136 41 136 41 237 c 0,3,4
 41 344 41 344 108.5 413 c 128,-1,5
 176 482 176 482 263 482 c 128,-1,6
 350 482 350 482 415.5 411.5 c 128,-1,7
 481 341 481 341 481 236 c 0,8,9
 481 135 481 135 420 60.5 c 128,-1,10
 359 -14 359 -14 261 -14 c 0,0,1
261 23 m 128,-1,12
 320 23 320 23 353.5 84 c 128,-1,13
 387 145 387 145 387 235 c 0,14,15
 387 324 387 324 353.5 384.5 c 128,-1,16
 320 445 320 445 261 445 c 0,17,18
 201 445 201 445 168 384.5 c 128,-1,19
 135 324 135 324 135 234 c 128,-1,20
 135 144 135 144 168.5 83.5 c 128,-1,11
 202 23 202 23 261 23 c 128,-1,12
EndSplineSet
Substitution2: "<3,3> Small Caps in Latin lookup 11 subtable" o.sc
EndChar

StartChar: p
Encoding: 112 112 83
Width: 539
GlyphClass: 1
Flags: W
LayerCount: 2
Fore
SplineSet
34 -181 m 1,0,-1
 34 -141 l 1,1,-1
 42 -141 l 2,2,3
 80 -141 80 -141 91 -127.5 c 128,-1,4
 102 -114 102 -114 102 -82 c 2,5,-1
 102 337 l 2,6,7
 102 382 102 382 90.5 393.5 c 128,-1,8
 79 405 79 405 34 412 c 1,9,-1
 34 442 l 1,10,-1
 185 490 l 1,11,-1
 185 428 l 1,12,13
 245 482 245 482 310 482 c 0,14,15
 390 482 390 482 444 410 c 128,-1,16
 498 338 498 338 498 234 c 128,-1,17
 498 130 498 130 443 58 c 128,-1,18
 388 -14 388 -14 307 -14 c 0,19,20
 245 -14 245 -14 185 40 c 1,21,-1
 185 -82 l 2,22,23
 185 -118 185 -118 196 -129.5 c 128,-1,24
 207 -141 207 -141 246 -141 c 2,25,-1
 253 -141 l 1,26,-1
 253 -181 l 1,27,-1
 34 -181 l 1,0,-1
285 41 m 0,28,29
 404 41 404 41 404 236 c 128,-1,30
 404 431 404 431 286 431 c 0,31,32
 227 431 227 431 185 377 c 1,33,-1
 185 85 l 1,34,35
 206 69 206 69 216 62.5 c 128,-1,36
 226 56 226 56 245 48.5 c 128,-1,37
 264 41 264 41 285 41 c 0,28,29
EndSplineSet
Substitution2: "<3,3> Small Caps in Latin lookup 11 subtable" p.sc
EndChar

StartChar: q
Encoding: 113 113 84
Width: 524
GlyphClass: 1
Flags: W
LayerCount: 2
Fore
SplineSet
291 -181 m 1,0,-1
 291 -141 l 1,1,-1
 299 -141 l 2,2,3
 337 -141 337 -141 348 -128 c 128,-1,4
 359 -115 359 -115 359 -82 c 2,5,-1
 359 40 l 1,6,7
 290 -14 290 -14 232 -14 c 0,8,9
 149 -14 149 -14 95 58 c 128,-1,10
 41 130 41 130 41 230 c 0,11,12
 41 334 41 334 99 408 c 128,-1,13
 157 482 157 482 238 482 c 0,14,15
 302 482 302 482 371 421 c 1,16,-1
 417 484 l 1,17,-1
 442 477 l 1,18,-1
 442 -82 l 2,19,20
 442 -118 442 -118 453.5 -129.5 c 128,-1,21
 465 -141 465 -141 504 -141 c 1,22,-1
 504 -181 l 1,23,-1
 291 -181 l 1,0,-1
256 40 m 0,24,25
 306 40 306 40 359 92 c 1,26,-1
 359 378 l 1,27,28
 310 429 310 429 254 429 c 0,29,30
 197 429 197 429 166 375.5 c 128,-1,31
 135 322 135 322 135 232 c 0,32,33
 135 131 135 131 171 85.5 c 128,-1,34
 207 40 207 40 256 40 c 0,24,25
EndSplineSet
Substitution2: "<3,3> Small Caps in Latin lookup 11 subtable" q.sc
EndChar

StartChar: r
Encoding: 114 114 85
Width: 400
GlyphClass: 1
Flags: W
LayerCount: 2
Fore
SplineSet
26 0 m 1,0,-1
 26 40 l 1,1,-1
 42 40 l 2,2,3
 80 40 80 40 91 53 c 128,-1,4
 102 66 102 66 102 98 c 2,5,-1
 102 337 l 2,6,7
 102 382 102 382 90.5 393.5 c 128,-1,8
 79 405 79 405 34 412 c 1,9,-1
 34 442 l 1,10,-1
 185 490 l 1,11,-1
 185 369 l 1,12,13
 228 430 228 430 262.5 456 c 128,-1,14
 297 482 297 482 340 482 c 0,15,16
 402 482 402 482 402 433 c 0,17,18
 402 408 402 408 387.5 394.5 c 128,-1,19
 373 381 373 381 352 381 c 0,20,21
 337 381 337 381 316.5 391 c 128,-1,22
 296 401 296 401 284 401 c 0,23,24
 263 401 263 401 243.5 383 c 128,-1,25
 224 365 224 365 185 318 c 1,26,-1
 185 98 l 2,27,28
 185 63 185 63 196 51.5 c 128,-1,29
 207 40 207 40 246 40 c 2,30,-1
 290 40 l 1,31,-1
 290 0 l 1,32,-1
 26 0 l 1,0,-1
EndSplineSet
Substitution2: "<3,3> Small Caps in Latin lookup 11 subtable" r.sc
EndChar

StartChar: s
Encoding: 115 115 86
Width: 440
GlyphClass: 1
Flags: W
LayerCount: 2
Fore
SplineSet
99 -18 m 1,0,-1
 36 144 l 1,1,-1
 69 160 l 1,2,3
 92 116 92 116 147 72 c 128,-1,4
 202 28 202 28 256 28 c 0,5,6
 295 28 295 28 317 52 c 128,-1,7
 339 76 339 76 339 108 c 0,8,9
 339 164 339 164 258 186 c 0,10,11
 253 187 253 187 231 193 c 128,-1,12
 209 199 209 199 197.5 202 c 128,-1,13
 186 205 186 205 164 213 c 128,-1,14
 142 221 142 221 129.5 228 c 128,-1,15
 117 235 117 235 100 247.5 c 128,-1,16
 83 260 83 260 74 273.5 c 128,-1,17
 65 287 65 287 58.5 306 c 128,-1,18
 52 325 52 325 52 347 c 0,19,20
 52 406 52 406 90.5 444 c 128,-1,21
 129 482 129 482 188 482 c 0,22,23
 214 482 214 482 243.5 472.5 c 128,-1,24
 273 463 273 463 280 463 c 0,25,26
 292 463 292 463 328 486 c 1,27,-1
 387 342 l 1,28,-1
 355 321 l 1,29,30
 325 367 325 367 281 403.5 c 128,-1,31
 237 440 237 440 188 440 c 0,32,33
 153 440 153 440 131.5 421 c 128,-1,34
 110 402 110 402 110 373 c 0,35,36
 110 341 110 341 140.5 322 c 128,-1,37
 171 303 171 303 214 292 c 128,-1,38
 257 281 257 281 300 267.5 c 128,-1,39
 343 254 343 254 373.5 221 c 128,-1,40
 404 188 404 188 404 136 c 0,41,42
 404 72 404 72 363.5 29 c 128,-1,43
 323 -14 323 -14 263 -14 c 0,44,45
 240 -14 240 -14 204 -4.5 c 128,-1,46
 168 5 168 5 152 5 c 0,47,48
 143 5 143 5 136.5 3 c 128,-1,49
 130 1 130 1 126 -1 c 128,-1,50
 122 -3 122 -3 113.5 -8.5 c 128,-1,51
 105 -14 105 -14 99 -18 c 1,0,-1
EndSplineSet
Substitution2: "<3,3> Small Caps in Latin lookup 11 subtable" s.sc
EndChar

StartChar: t
Encoding: 116 116 87
Width: 335
GlyphClass: 1
Flags: W
LayerCount: 2
Fore
SplineSet
206 -14 m 0,0,1
 175 -14 175 -14 153.5 -3.5 c 128,-1,2
 132 7 132 7 122 20 c 128,-1,3
 112 33 112 33 106 55.5 c 128,-1,4
 100 78 100 78 99.5 91.5 c 128,-1,5
 99 105 99 105 99 128 c 2,6,-1
 99 425 l 1,7,-1
 34 425 l 1,8,-1
 34 458 l 1,9,10
 125 488 125 488 142 630 c 1,11,-1
 183 630 l 1,12,-1
 183 468 l 1,13,-1
 315 468 l 1,14,-1
 315 425 l 1,15,-1
 183 425 l 1,16,-1
 183 148 l 2,17,18
 183 84 183 84 197.5 63.5 c 128,-1,19
 212 43 212 43 238 43 c 0,20,21
 255 43 255 43 270 50 c 128,-1,22
 285 57 285 57 292.5 63 c 128,-1,23
 300 69 300 69 320 88 c 1,24,-1
 349 66 l 1,25,26
 291 -14 291 -14 206 -14 c 0,0,1
EndSplineSet
Substitution2: "<3,3> Small Caps in Latin lookup 11 subtable" t.sc
EndChar

StartChar: u
Encoding: 117 117 88
Width: 537
GlyphClass: 1
Flags: W
LayerCount: 2
Fore
SplineSet
215 -14 m 0,0,1
 154 -14 154 -14 123 24 c 0,2,3
 94 59 94 59 94 168 c 2,4,-1
 94 337 l 2,5,6
 94 382 94 382 82.5 393.5 c 128,-1,7
 71 405 71 405 26 412 c 1,8,-1
 26 442 l 1,9,-1
 177 490 l 1,10,-1
 177 169 l 2,11,12
 177 104 177 104 193 78 c 0,13,14
 209 51 209 51 248 51 c 0,15,16
 305 51 305 51 368 116 c 1,17,-1
 368 337 l 2,18,19
 368 382 368 382 356.5 393.5 c 128,-1,20
 345 405 345 405 299 412 c 1,21,-1
 299 442 l 1,22,-1
 451 490 l 1,23,-1
 451 109 l 2,24,25
 451 61 451 61 462.5 49 c 128,-1,26
 474 37 474 37 512 36 c 1,27,-1
 512 0 l 1,28,-1
 368 -9 l 1,29,-1
 368 68 l 1,30,31
 291 -14 291 -14 215 -14 c 0,0,1
EndSplineSet
Substitution2: "<3,3> Small Caps in Latin lookup 11 subtable" u.sc
EndChar

StartChar: v
Encoding: 118 118 89
Width: 468
GlyphClass: 1
Flags: W
LayerCount: 2
Fore
SplineSet
72 363 m 2,0,1
 58 400 58 400 43 413.5 c 128,-1,2
 28 427 28 427 -8 428 c 1,3,-1
 -8 468 l 1,4,-1
 203 468 l 1,5,-1
 203 428 l 1,6,7
 170 426 170 426 158.5 422 c 128,-1,8
 147 418 147 418 147 406 c 0,9,10
 147 397 147 397 154 378 c 2,11,-1
 253 105 l 1,12,-1
 343 351 l 2,13,14
 354 382 354 382 354 395 c 0,15,16
 354 428 354 428 294 428 c 2,17,-1
 283 428 l 1,18,-1
 283 468 l 1,19,-1
 475 468 l 1,20,-1
 475 428 l 1,21,22
 439 427 439 427 425 414 c 128,-1,23
 411 401 411 401 394 358 c 2,24,-1
 248 -22 l 1,25,-1
 216 -22 l 1,26,-1
 72 363 l 2,0,1
EndSplineSet
Substitution2: "<3,3> Small Caps in Latin lookup 11 subtable" v.sc
EndChar

StartChar: w
Encoding: 119 119 90
Width: 690
GlyphClass: 1
Flags: W
LayerCount: 2
Fore
SplineSet
71 363 m 2,0,1
 59 400 59 400 43.5 413.5 c 128,-1,2
 28 427 28 427 -8 428 c 1,3,-1
 -8 468 l 1,4,-1
 199 468 l 1,5,-1
 199 428 l 1,6,7
 147 428 147 428 147 405 c 0,8,9
 147 395 147 395 152 378 c 2,10,-1
 234 114 l 1,11,-1
 323 356 l 1,12,13
 310 402 310 402 297.5 413.5 c 128,-1,14
 285 425 285 425 248 428 c 1,15,-1
 248 468 l 1,16,-1
 449 468 l 1,17,-1
 449 428 l 1,18,19
 396 428 396 428 396 405 c 0,20,21
 396 392 396 392 406 360 c 2,22,-1
 483 114 l 1,23,-1
 566 351 l 2,24,25
 576 379 576 379 576 393 c 0,26,27
 576 428 576 428 511 428 c 1,28,-1
 511 468 l 1,29,-1
 696 468 l 1,30,-1
 696 428 l 1,31,32
 660 427 660 427 647.5 414.5 c 128,-1,33
 635 402 635 402 619 358 c 2,34,-1
 483 -22 l 1,35,-1
 449 -22 l 1,36,-1
 347 293 l 1,37,-1
 234 -22 l 1,38,-1
 199 -22 l 1,39,-1
 71 363 l 2,0,1
EndSplineSet
Substitution2: "<3,3> Small Caps in Latin lookup 11 subtable" w.sc
EndChar

StartChar: x
Encoding: 120 120 91
Width: 482
GlyphClass: 1
Flags: W
LayerCount: 2
Fore
SplineSet
0 40 m 1,0,1
 40 41 40 41 61 52 c 128,-1,2
 82 63 82 63 116 106 c 2,3,-1
 209 224 l 1,4,-1
 91 377 l 2,5,6
 66 408 66 408 51 417.5 c 128,-1,7
 36 427 36 427 0 428 c 1,8,-1
 0 468 l 1,9,-1
 221 468 l 1,10,-1
 221 428 l 1,11,-1
 206 428 l 2,12,13
 169 428 169 428 169 410 c 0,14,15
 169 405 169 405 177 394 c 2,16,-1
 256 281 l 1,17,-1
 312 363 l 2,18,19
 336 398 336 398 336 407 c 0,20,21
 336 428 336 428 286 428 c 1,22,-1
 286 468 l 1,23,-1
 476 468 l 1,24,-1
 476 428 l 1,25,26
 441 427 441 427 419 413 c 128,-1,27
 397 399 397 399 367 361 c 2,28,-1
 280 251 l 1,29,-1
 399 95 l 2,30,31
 419 69 419 69 443.5 54.5 c 128,-1,32
 468 40 468 40 482 40 c 1,33,-1
 482 0 l 1,34,-1
 280 0 l 1,35,-1
 280 40 l 1,36,-1
 291 40 l 2,37,38
 326 40 326 40 326 55 c 0,39,40
 326 66 326 66 308 90 c 2,41,-1
 231 194 l 1,42,-1
 172 106 l 2,43,44
 145 65 145 65 145 56 c 0,45,46
 145 40 145 40 194 40 c 2,47,-1
 200 40 l 1,48,-1
 200 0 l 1,49,-1
 0 0 l 1,50,-1
 0 40 l 1,0,1
EndSplineSet
Substitution2: "<3,3> Small Caps in Latin lookup 11 subtable" x.sc
EndChar

StartChar: y
Encoding: 121 121 92
Width: 469
GlyphClass: 1
Flags: W
LayerCount: 2
Fore
SplineSet
92 -192 m 0,0,1
 55 -192 55 -192 36.5 -174 c 128,-1,2
 18 -156 18 -156 18 -133 c 0,3,4
 18 -114 18 -114 31 -99 c 128,-1,5
 44 -84 44 -84 66 -84 c 0,6,7
 85 -84 85 -84 107.5 -99.5 c 128,-1,8
 130 -115 130 -115 138 -115 c 0,9,10
 166 -115 166 -115 187 -58 c 2,11,-1
 208 0 l 1,12,-1
 67 374 l 2,13,14
 53 412 53 412 44 419 c 0,15,16
 32 428 32 428 -8 428 c 1,17,-1
 -8 468 l 1,18,-1
 208 468 l 1,19,-1
 208 428 l 1,20,21
 147 428 147 428 147 401 c 0,22,23
 147 393 147 393 154 374 c 2,24,-1
 253 98 l 1,25,-1
 342 351 l 2,26,27
 352 379 352 379 352 393 c 0,28,29
 352 428 352 428 282 428 c 1,30,-1
 282 468 l 1,31,-1
 476 468 l 1,32,-1
 476 428 l 1,33,34
 440 427 440 427 425 413.5 c 128,-1,35
 410 400 410 400 394 358 c 2,36,-1
 243 -37 l 2,37,38
 233 -62 233 -62 227 -77 c 128,-1,39
 221 -92 221 -92 206.5 -116.5 c 128,-1,40
 192 -141 192 -141 177.5 -155.5 c 128,-1,41
 163 -170 163 -170 140.5 -181 c 128,-1,42
 118 -192 118 -192 92 -192 c 0,0,1
EndSplineSet
Substitution2: "<3,3> Small Caps in Latin lookup 11 subtable" y.sc
EndChar

StartChar: z
Encoding: 122 122 93
Width: 440
GlyphClass: 1
Flags: W
LayerCount: 2
Fore
SplineSet
24 0 m 1,0,-1
 24 30 l 1,1,-1
 305 428 l 1,2,-1
 262 428 l 2,3,4
 194 428 194 428 158.5 403 c 128,-1,5
 123 378 123 378 72 306 c 1,6,-1
 42 322 l 1,7,-1
 101 468 l 1,8,-1
 395 468 l 1,9,-1
 405 435 l 1,10,-1
 130 40 l 1,11,-1
 192 40 l 2,12,13
 234 40 234 40 255 46.5 c 128,-1,14
 276 53 276 53 299 72 c 0,15,16
 348 113 348 113 384 170 c 1,17,-1
 416 154 l 1,18,-1
 359 0 l 1,19,-1
 24 0 l 1,0,-1
EndSplineSet
Substitution2: "<3,3> Small Caps in Latin lookup 11 subtable" z.sc
EndChar

StartChar: braceleft
Encoding: 123 123 94
Width: 519
GlyphClass: 1
Flags: W
LayerCount: 2
Fore
SplineSet
409 -181 m 2,0,1
 283 -181 283 -181 245.5 -146.5 c 128,-1,2
 208 -112 208 -112 208 4 c 0,3,4
 208 31 208 31 209.5 95 c 128,-1,5
 211 159 211 159 211 171 c 0,6,7
 211 226 211 226 190.5 243.5 c 128,-1,8
 170 261 170 261 105 265 c 1,9,-1
 105 306 l 1,10,11
 170 310 170 310 190.5 327 c 128,-1,12
 211 344 211 344 211 400 c 0,13,14
 211 412 211 412 209.5 461 c 128,-1,15
 208 510 208 510 208 536 c 0,16,17
 208 652 208 652 245.5 686.5 c 128,-1,18
 283 721 283 721 409 721 c 2,19,-1
 435 721 l 1,20,-1
 435 679 l 1,21,22
 385 679 385 679 355 670.5 c 128,-1,23
 325 662 325 662 311.5 641 c 128,-1,24
 298 620 298 620 294.5 598.5 c 128,-1,25
 291 577 291 577 291 537 c 2,26,-1
 291 410 l 2,27,28
 291 386 291 386 287.5 367.5 c 128,-1,29
 284 349 284 349 280.5 338.5 c 128,-1,30
 277 328 277 328 266.5 319 c 128,-1,31
 256 310 256 310 250.5 306.5 c 128,-1,32
 245 303 245 303 229.5 295.5 c 128,-1,33
 214 288 214 288 208 285 c 1,34,35
 254 266 254 266 266 253 c 0,36,37
 291 224 291 224 291 130 c 2,38,-1
 291 4 l 2,39,40
 291 -36 291 -36 294.5 -57 c 128,-1,41
 298 -78 298 -78 311.5 -99.5 c 128,-1,42
 325 -121 325 -121 355 -129.5 c 128,-1,43
 385 -138 385 -138 435 -138 c 1,44,-1
 435 -181 l 1,45,-1
 409 -181 l 2,0,1
EndSplineSet
Substitution2: "'rtla' Right to Left Alternates lookup 0 subtable" braceright
EndChar

StartChar: bar
Encoding: 124 124 95
Width: 541
GlyphClass: 1
Flags: W
LayerCount: 2
Fore
SplineSet
239 -181 m 1,0,-1
 239 721 l 1,1,-1
 302 721 l 1,2,-1
 302 -181 l 1,3,-1
 239 -181 l 1,0,-1
EndSplineSet
EndChar

StartChar: braceright
Encoding: 125 125 96
Width: 519
GlyphClass: 1
Flags: W
LayerCount: 2
Fore
SplineSet
84 -138 m 1,0,1
 134 -138 134 -138 164 -129.5 c 128,-1,2
 194 -121 194 -121 207.5 -99.5 c 128,-1,3
 221 -78 221 -78 224.5 -57 c 128,-1,4
 228 -36 228 -36 228 4 c 2,5,-1
 228 130 l 2,6,7
 228 174 228 174 231.5 201 c 128,-1,8
 235 228 235 228 247 243.5 c 128,-1,9
 259 259 259 259 269 265.5 c 128,-1,10
 279 272 279 272 304 282 c 0,11,12
 308 284 308 284 311 285 c 1,13,14
 305 288 305 288 289.5 295.5 c 128,-1,15
 274 303 274 303 268.5 306.5 c 128,-1,16
 263 310 263 310 252.5 319 c 128,-1,17
 242 328 242 328 238.5 338.5 c 128,-1,18
 235 349 235 349 231.5 367.5 c 128,-1,19
 228 386 228 386 228 410 c 2,20,-1
 228 537 l 2,21,22
 228 577 228 577 224.5 598.5 c 128,-1,23
 221 620 221 620 207.5 641 c 128,-1,24
 194 662 194 662 164 670.5 c 128,-1,25
 134 679 134 679 84 679 c 1,26,-1
 84 721 l 1,27,-1
 110 721 l 2,28,29
 237 721 237 721 274 686.5 c 128,-1,30
 311 652 311 652 311 536 c 0,31,32
 311 510 311 510 309.5 461 c 128,-1,33
 308 412 308 412 308 400 c 0,34,35
 308 344 308 344 328.5 327 c 128,-1,36
 349 310 349 310 414 306 c 1,37,-1
 414 265 l 1,38,39
 349 261 349 261 328.5 243.5 c 128,-1,40
 308 226 308 226 308 170 c 0,41,42
 308 159 308 159 309.5 93.5 c 128,-1,43
 311 28 311 28 311 -2 c 0,44,45
 311 -46 311 -46 307.5 -72 c 128,-1,46
 304 -98 304 -98 293.5 -121.5 c 128,-1,47
 283 -145 283 -145 260.5 -156.5 c 128,-1,48
 238 -168 238 -168 202 -174.5 c 128,-1,49
 166 -181 166 -181 110 -181 c 2,50,-1
 84 -181 l 1,51,-1
 84 -138 l 1,0,1
EndSplineSet
Substitution2: "'rtla' Right to Left Alternates lookup 0 subtable" braceleft
EndChar

StartChar: asciitilde
Encoding: 126 126 97
Width: 601
GlyphClass: 1
Flags: W
LayerCount: 2
Fore
SplineSet
51 217 m 1,0,1
 94 310 94 310 189 310 c 0,2,3
 237 310 237 310 312 274.5 c 128,-1,4
 387 239 387 239 415 239 c 0,5,6
 432 239 432 239 446.5 245 c 128,-1,7
 461 251 461 251 473.5 265 c 128,-1,8
 486 279 486 279 492.5 287.5 c 128,-1,9
 499 296 499 296 511 315 c 1,10,-1
 550 261 l 1,11,12
 519 214 519 214 488 191 c 128,-1,13
 457 168 457 168 416 168 c 128,-1,14
 375 168 375 168 300 203.5 c 128,-1,15
 225 239 225 239 186 239 c 0,16,17
 122 239 122 239 90 163 c 1,18,-1
 51 217 l 1,0,1
EndSplineSet
EndChar

StartChar: exclamdown
Encoding: 161 161 99
Width: 295
GlyphClass: 1
Flags: W
LayerCount: 2
Fore
SplineSet
126 199 m 2,0,-1
 126 267 l 1,1,-1
 169 267 l 1,2,-1
 169 199 l 2,3,4
 169 98 169 98 181.5 21.5 c 128,-1,5
 194 -55 194 -55 206 -102 c 128,-1,6
 218 -149 218 -149 218 -177 c 0,7,8
 218 -224 218 -224 197 -245 c 128,-1,9
 176 -266 176 -266 147 -266 c 128,-1,10
 118 -266 118 -266 97.5 -245.5 c 128,-1,11
 77 -225 77 -225 77 -178 c 0,12,13
 77 -149 77 -149 89.5 -102 c 128,-1,14
 102 -55 102 -55 114 21.5 c 128,-1,15
 126 98 126 98 126 199 c 2,0,-1
148 483 m 128,-1,17
 176 483 176 483 196 463.5 c 128,-1,18
 216 444 216 444 216 414 c 0,19,20
 216 385 216 385 196 365.5 c 128,-1,21
 176 346 176 346 148 346 c 128,-1,22
 120 346 120 346 99.5 365.5 c 128,-1,23
 79 385 79 385 79 414 c 128,-1,24
 79 443 79 443 99.5 463 c 128,-1,16
 120 483 120 483 148 483 c 128,-1,17
EndSplineSet
EndChar

StartChar: cent
Encoding: 162 162 100
Width: 535
GlyphClass: 1
Flags: W
LayerCount: 2
Fore
SplineSet
259 115 m 1,0,1
 178 120 178 120 123.5 185 c 128,-1,2
 69 250 69 250 69 346 c 0,3,4
 69 439 69 439 121.5 513 c 128,-1,5
 174 587 174 587 259 605 c 1,6,-1
 259 721 l 1,7,-1
 297 721 l 1,8,-1
 297 610 l 1,9,-1
 306 610 l 2,10,11
 358 610 358 610 406.5 581 c 128,-1,12
 455 552 455 552 455 515 c 0,13,14
 455 494 455 494 440.5 479 c 128,-1,15
 426 464 426 464 402 464 c 0,16,17
 381 464 381 464 368.5 478 c 128,-1,18
 356 492 356 492 351 510 c 128,-1,19
 346 528 346 528 332.5 545.5 c 128,-1,20
 319 563 319 563 297 568 c 1,21,-1
 297 171 l 1,22,-1
 302 171 l 2,23,24
 381 171 381 171 438 257 c 1,25,-1
 471 237 l 1,26,27
 408 126 408 126 297 115 c 1,28,-1
 297 0 l 1,29,-1
 259 0 l 1,30,-1
 259 115 l 1,0,1
259 568 m 1,31,32
 214 558 214 558 188 505.5 c 128,-1,33
 162 453 162 453 162 378 c 128,-1,34
 162 303 162 303 188.5 249 c 128,-1,35
 215 195 215 195 259 178 c 1,36,-1
 259 568 l 1,31,32
EndSplineSet
EndChar

StartChar: sterling
Encoding: 163 163 101
Width: 535
GlyphClass: 1
Flags: W
LayerCount: 2
Fore
SplineSet
348 -23 m 0,0,1
 328 -23 328 -23 312.5 -20 c 128,-1,2
 297 -17 297 -17 282.5 -8.5 c 128,-1,3
 268 0 268 0 260.5 6 c 128,-1,4
 253 12 253 12 236 27 c 128,-1,5
 219 42 219 42 211 48 c 1,6,7
 157 -14 157 -14 97 -14 c 0,8,9
 61 -14 61 -14 35 6.5 c 128,-1,10
 9 27 9 27 9 63 c 128,-1,11
 9 99 9 99 36 122.5 c 128,-1,12
 63 146 63 146 105 146 c 0,13,14
 141 146 141 146 181 125 c 1,15,16
 184 140 184 140 184 154 c 0,17,18
 184 210 184 210 152 285 c 1,19,-1
 44 285 l 1,20,-1
 44 345 l 1,21,-1
 128 345 l 1,22,23
 97 423 97 423 97 488 c 0,24,25
 97 585 97 585 158.5 653 c 128,-1,26
 220 721 220 721 317 721 c 0,27,28
 390 721 390 721 440 683 c 128,-1,29
 490 645 490 645 490 586 c 0,30,31
 490 550 490 550 471 529 c 128,-1,32
 452 508 452 508 425 508 c 0,33,34
 402 508 402 508 388.5 522.5 c 128,-1,35
 375 537 375 537 375 559 c 0,36,37
 375 575 375 575 382.5 584 c 128,-1,38
 390 593 390 593 399.5 596 c 128,-1,39
 409 599 409 599 416.5 605 c 128,-1,40
 424 611 424 611 424 620 c 0,41,42
 424 640 424 640 397 657 c 128,-1,43
 370 674 370 674 332 674 c 0,44,45
 274 674 274 674 235 631.5 c 128,-1,46
 196 589 196 589 196 528 c 0,47,48
 196 500 196 500 204.5 470 c 128,-1,49
 213 440 213 440 229.5 399 c 128,-1,50
 246 358 246 358 250 345 c 1,51,-1
 404 345 l 1,52,-1
 404 285 l 1,53,-1
 267 285 l 1,54,55
 275 247 275 247 275 219 c 0,56,57
 275 157 275 157 242 96 c 1,58,59
 304 69 304 69 347 69 c 0,60,61
 395 69 395 69 429.5 90.5 c 128,-1,62
 464 112 464 112 485 168 c 1,63,-1
 523 158 l 1,64,65
 482 -23 482 -23 348 -23 c 0,0,1
95 35 m 0,66,67
 136 35 136 35 162 76 c 1,68,69
 125 97 125 97 100 97 c 0,70,71
 83 97 83 97 72 87.5 c 128,-1,72
 61 78 61 78 61 62 c 0,73,74
 61 35 61 35 95 35 c 0,66,67
EndSplineSet
EndChar

StartChar: currency
Encoding: 164 164 102
Width: 601
GlyphClass: 1
Flags: W
LayerCount: 2
Fore
SplineSet
76 103 m 1,0,-1
 29 149 l 1,1,-1
 88 210 l 1,2,3
 32 282 32 282 32 373 c 128,-1,4
 32 464 32 464 89 537 c 1,5,-1
 29 597 l 1,6,-1
 77 645 l 1,7,-1
 136 585 l 1,8,9
 212 641 212 641 301 641 c 0,10,11
 392 641 392 641 464 586 c 1,12,-1
 523 645 l 1,13,-1
 572 597 l 1,14,-1
 512 536 l 1,15,16
 569 465 569 465 569 373 c 0,17,18
 569 283 569 283 514 210 c 1,19,-1
 572 149 l 1,20,-1
 525 103 l 1,21,-1
 468 164 l 1,22,23
 393 105 393 105 300 105 c 0,24,25
 204 105 204 105 134 164 c 1,26,-1
 76 103 l 1,0,-1
300 170 m 128,-1,28
 382 170 382 170 439.5 230 c 128,-1,29
 497 290 497 290 497 373 c 128,-1,30
 497 456 497 456 439.5 516 c 128,-1,31
 382 576 382 576 300 576 c 128,-1,32
 218 576 218 576 161 515.5 c 128,-1,33
 104 455 104 455 104 373 c 128,-1,34
 104 291 104 291 161 230.5 c 128,-1,27
 218 170 218 170 300 170 c 128,-1,28
EndSplineSet
EndChar

StartChar: yen
Encoding: 165 165 103
Width: 584
GlyphClass: 1
Flags: W
LayerCount: 2
Fore
SplineSet
143 0 m 1,0,-1
 143 42 l 1,1,-1
 165 42 l 2,2,3
 208 42 208 42 222.5 58.5 c 128,-1,4
 237 75 237 75 237 131 c 2,5,-1
 237 257 l 1,6,-1
 58 257 l 1,7,-1
 58 317 l 1,8,-1
 226 317 l 1,9,-1
 183 403 l 1,10,-1
 58 403 l 1,11,-1
 58 463 l 1,12,-1
 152 463 l 1,13,-1
 79 610 l 2,14,15
 76 616 76 616 70.5 628 c 128,-1,16
 65 640 65 640 62.5 644 c 128,-1,17
 60 648 60 648 55 656 c 128,-1,18
 50 664 50 664 45.5 666.5 c 128,-1,19
 41 669 41 669 33 673 c 128,-1,20
 25 677 25 677 15 678 c 128,-1,21
 5 679 5 679 -8 679 c 1,22,-1
 -8 721 l 1,23,-1
 244 721 l 1,24,-1
 244 679 l 1,25,26
 169 679 169 679 169 661 c 0,27,28
 169 649 169 649 189 609 c 2,29,-1
 314 358 l 1,30,-1
 430 600 l 2,31,32
 443 628 443 628 443 643 c 0,33,34
 443 679 443 679 376 679 c 2,35,-1
 369 679 l 1,36,-1
 369 721 l 1,37,-1
 590 721 l 1,38,-1
 590 679 l 1,39,40
 546 674 546 674 528.5 659 c 128,-1,41
 511 644 511 644 486 594 c 2,42,-1
 418 463 l 1,43,-1
 526 463 l 1,44,-1
 526 403 l 1,45,-1
 387 403 l 1,46,-1
 342 317 l 1,47,-1
 526 317 l 1,48,-1
 526 257 l 1,49,-1
 337 257 l 1,50,-1
 337 131 l 2,51,52
 337 75 337 75 351.5 58.5 c 128,-1,53
 366 42 366 42 409 42 c 2,54,-1
 431 42 l 1,55,-1
 431 0 l 1,56,-1
 143 0 l 1,0,-1
EndSplineSet
EndChar

StartChar: brokenbar
Encoding: 166 166 104
Width: 541
GlyphClass: 1
Flags: W
LayerCount: 2
Fore
SplineSet
239 357 m 1,0,-1
 239 721 l 1,1,-1
 302 721 l 1,2,-1
 302 357 l 1,3,-1
 239 357 l 1,0,-1
239 -181 m 1,4,-1
 239 165 l 1,5,-1
 302 165 l 1,6,-1
 302 -181 l 1,7,-1
 239 -181 l 1,4,-1
EndSplineSet
EndChar

StartChar: section
Encoding: 167 167 105
Width: 475
GlyphClass: 1
Flags: W
LayerCount: 2
Fore
SplineSet
224 -181 m 0,0,1
 158 -181 158 -181 116 -147.5 c 128,-1,2
 74 -114 74 -114 74 -71 c 0,3,4
 74 -45 74 -45 90.5 -25 c 128,-1,5
 107 -5 107 -5 136 -5 c 0,6,7
 162 -5 162 -5 176.5 -21 c 128,-1,8
 191 -37 191 -37 191 -57 c 0,9,10
 191 -76 191 -76 173.5 -95.5 c 128,-1,11
 156 -115 156 -115 156 -120 c 0,12,13
 156 -131 156 -131 177.5 -142.5 c 128,-1,14
 199 -154 199 -154 228 -154 c 0,15,16
 268 -154 268 -154 292 -131 c 128,-1,17
 316 -108 316 -108 316 -75 c 0,18,19
 316 -47 316 -47 296 -18 c 128,-1,20
 276 11 276 11 245.5 35 c 128,-1,21
 215 59 215 59 179.5 88 c 128,-1,22
 144 117 144 117 113.5 144.5 c 128,-1,23
 83 172 83 172 63 210.5 c 128,-1,24
 43 249 43 249 43 290 c 0,25,26
 43 347 43 347 76.5 386.5 c 128,-1,27
 110 426 110 426 165 426 c 0,28,29
 177 426 177 426 197 422 c 1,30,31
 85 487 85 487 85 585 c 0,32,33
 85 648 85 648 129.5 684.5 c 128,-1,34
 174 721 174 721 238 721 c 0,35,36
 297 721 297 721 341.5 692 c 128,-1,37
 386 663 386 663 386 615 c 0,38,39
 386 585 386 585 368.5 567 c 128,-1,40
 351 549 351 549 326 549 c 0,41,42
 302 549 302 549 286 564.5 c 128,-1,43
 270 580 270 580 270 603 c 0,44,45
 270 624 270 624 287.5 639.5 c 128,-1,46
 305 655 305 655 305 662 c 0,47,48
 305 674 305 674 287.5 683 c 128,-1,49
 270 692 270 692 244 692 c 0,50,51
 206 692 206 692 181 672 c 128,-1,52
 156 652 156 652 156 619 c 128,-1,53
 156 586 156 586 184.5 552.5 c 128,-1,54
 213 519 213 519 253.5 487.5 c 128,-1,55
 294 456 294 456 334 422.5 c 128,-1,56
 374 389 374 389 402.5 343 c 128,-1,57
 431 297 431 297 431 247 c 0,58,59
 431 188 431 188 396.5 151.5 c 128,-1,60
 362 115 362 115 320 115 c 0,61,62
 312 115 312 115 304 116.5 c 128,-1,63
 296 118 296 118 287.5 120 c 128,-1,64
 279 122 279 122 275 123 c 1,65,66
 307 101 307 101 327.5 83 c 128,-1,67
 348 65 348 65 367.5 31.5 c 128,-1,68
 387 -2 387 -2 387 -40 c 0,69,70
 387 -103 387 -103 341 -142 c 128,-1,71
 295 -181 295 -181 224 -181 c 0,0,1
300 143 m 0,72,73
 325 143 325 143 347.5 164 c 128,-1,74
 370 185 370 185 370 211 c 0,75,76
 370 260 370 260 298 328.5 c 128,-1,77
 226 397 226 397 174 397 c 0,78,79
 148 397 148 397 127 376.5 c 128,-1,80
 106 356 106 356 106 330 c 0,81,82
 106 279 106 279 179 211 c 128,-1,83
 252 143 252 143 300 143 c 0,72,73
EndSplineSet
EndChar

StartChar: dieresis
Encoding: 168 168 106
Width: 277
GlyphClass: 1
Flags: W
LayerCount: 2
Fore
SplineSet
225 555 m 128,-1,1
 203 555 203 555 187.5 570 c 128,-1,2
 172 585 172 585 172 608 c 128,-1,3
 172 631 172 631 187.5 645 c 128,-1,4
 203 659 203 659 225 659 c 128,-1,5
 247 659 247 659 262 645 c 128,-1,6
 277 631 277 631 277 608 c 128,-1,7
 277 585 277 585 262 570 c 128,-1,0
 247 555 247 555 225 555 c 128,-1,1
53 555 m 128,-1,9
 31 555 31 555 15.5 570 c 128,-1,10
 0 585 0 585 0 608 c 128,-1,11
 0 631 0 631 15.5 645 c 128,-1,12
 31 659 31 659 53 659 c 128,-1,13
 75 659 75 659 90 645 c 128,-1,14
 105 631 105 631 105 608 c 128,-1,15
 105 585 105 585 90 570 c 128,-1,8
 75 555 75 555 53 555 c 128,-1,9
EndSplineSet
Substitution2: "<3,3> Small Caps in Latin lookup 11 subtable" dieresis.sc
EndChar

StartChar: copyright
Encoding: 169 169 107
Width: 836
GlyphClass: 1
Flags: W
LayerCount: 2
Fore
SplineSet
419 -14 m 128,-1,1
 265 -14 265 -14 154 96 c 128,-1,2
 43 206 43 206 43 359 c 0,3,4
 43 513 43 513 154.5 624 c 128,-1,5
 266 735 266 735 420 735 c 128,-1,6
 574 735 574 735 683 625 c 128,-1,7
 792 515 792 515 792 361 c 0,8,9
 792 206 792 206 682.5 96 c 128,-1,0
 573 -14 573 -14 419 -14 c 128,-1,1
419 22 m 0,10,11
 556 22 556 22 654 121.5 c 128,-1,12
 752 221 752 221 752 361 c 128,-1,13
 752 501 752 501 654.5 600 c 128,-1,14
 557 699 557 699 420 699 c 0,15,16
 282 699 282 699 182.5 599 c 128,-1,17
 83 499 83 499 83 359 c 0,18,19
 83 220 83 220 182 121 c 128,-1,20
 281 22 281 22 419 22 c 0,10,11
410 150 m 0,21,22
 335 150 335 150 283.5 203 c 128,-1,23
 232 256 232 256 232 342 c 0,24,25
 232 431 232 431 283 504 c 128,-1,26
 334 577 334 577 417 577 c 0,27,28
 440 577 440 577 465 569.5 c 128,-1,29
 490 562 490 562 494 562 c 0,30,31
 503 562 503 562 539 575 c 1,32,-1
 578 463 l 1,33,-1
 548 451 l 1,34,35
 532 487 532 487 494.5 516.5 c 128,-1,36
 457 546 457 546 415 546 c 0,37,38
 365 546 365 546 334.5 501 c 128,-1,39
 304 456 304 456 304 376 c 0,40,41
 304 282 304 282 343.5 241 c 128,-1,42
 383 200 383 200 435 200 c 0,43,44
 475 200 475 200 504.5 222.5 c 128,-1,45
 534 245 534 245 549 283 c 1,46,-1
 578 271 l 1,47,48
 555 212 555 212 510.5 181 c 128,-1,49
 466 150 466 150 410 150 c 0,21,22
EndSplineSet
EndChar

StartChar: ordfeminine
Encoding: 170 170 108
Width: 341
GlyphClass: 1
Flags: W
LayerCount: 2
Fore
SplineSet
127 405 m 0,0,1
 97 405 97 405 70 422.5 c 128,-1,2
 43 440 43 440 43 476 c 0,3,4
 43 522 43 522 87.5 548 c 128,-1,5
 132 574 132 574 208 594 c 1,6,-1
 208 612 l 2,7,8
 208 631 208 631 207 641.5 c 128,-1,9
 206 652 206 652 196.5 664 c 128,-1,10
 187 676 187 676 169 676 c 0,11,12
 152 676 152 676 141.5 666 c 128,-1,13
 131 656 131 656 127 643.5 c 128,-1,14
 123 631 123 631 113 621 c 128,-1,15
 103 611 103 611 86 611 c 0,16,17
 53 611 53 611 53 641 c 0,18,19
 53 669 53 669 88 688 c 128,-1,20
 123 707 123 707 173 707 c 0,21,22
 228 707 228 707 247.5 684 c 128,-1,23
 267 661 267 661 267 622 c 2,24,-1
 267 476 l 2,25,26
 267 444 267 444 274 444 c 0,27,28
 275 444 275 444 291 457 c 1,29,-1
 311 439 l 1,30,31
 287 406 287 406 252 406 c 0,32,33
 222 406 222 406 212 439 c 1,34,35
 164 405 164 405 127 405 c 0,0,1
144 443 m 0,36,37
 166 443 166 443 208 469 c 1,38,-1
 208 562 l 1,39,40
 108 530 108 530 108 477 c 0,41,42
 108 443 108 443 144 443 c 0,36,37
EndSplineSet
EndChar

StartChar: guillemotleft
Encoding: 171 171 109
Width: 421
GlyphClass: 1
Flags: W
LayerCount: 2
Fore
SplineSet
210 62 m 1,0,1
 134 149 134 149 36 228 c 1,2,-1
 36 242 l 1,3,4
 135 323 135 323 210 409 c 1,5,-1
 236 391 l 1,6,7
 193 308 193 308 123 241 c 1,8,9
 172 194 172 194 234 79 c 1,10,-1
 210 62 l 1,0,1
358 62 m 1,11,12
 282 149 282 149 184 228 c 1,13,-1
 184 242 l 1,14,15
 283 323 283 323 358 409 c 1,16,-1
 384 391 l 1,17,18
 341 308 341 308 271 241 c 1,19,20
 320 194 320 194 382 79 c 1,21,-1
 358 62 l 1,11,12
EndSplineSet
EndChar

StartChar: logicalnot
Encoding: 172 172 110
Width: 649
GlyphClass: 1
Flags: W
LayerCount: 2
Fore
SplineSet
468 82 m 1,0,-1
 468 311 l 1,1,-1
 62 311 l 1,2,-1
 62 383 l 1,3,-1
 539 383 l 1,4,-1
 539 82 l 1,5,-1
 468 82 l 1,0,-1
EndSplineSet
EndChar

StartChar: uni00AD
Encoding: 173 173 111
Width: 209
GlyphClass: 1
Flags: W
LayerCount: 2
Fore
SplineSet
0 200 m 1,0,-1
 0 277 l 1,1,-1
 209 277 l 1,2,-1
 209 200 l 1,3,-1
 0 200 l 1,0,-1
EndSplineSet
EndChar

StartChar: registered
Encoding: 174 174 112
Width: 836
GlyphClass: 1
Flags: W
LayerCount: 2
Fore
SplineSet
419 -14 m 128,-1,1
 265 -14 265 -14 154 96 c 128,-1,2
 43 206 43 206 43 359 c 0,3,4
 43 513 43 513 154.5 624 c 128,-1,5
 266 735 266 735 420 735 c 128,-1,6
 574 735 574 735 683 625 c 128,-1,7
 792 515 792 515 792 361 c 0,8,9
 792 206 792 206 682.5 96 c 128,-1,0
 573 -14 573 -14 419 -14 c 128,-1,1
419 22 m 0,10,11
 556 22 556 22 654 121.5 c 128,-1,12
 752 221 752 221 752 361 c 128,-1,13
 752 501 752 501 654.5 600 c 128,-1,14
 557 699 557 699 420 699 c 0,15,16
 282 699 282 699 182.5 599 c 128,-1,17
 83 499 83 499 83 359 c 0,18,19
 83 220 83 220 182 121 c 128,-1,20
 281 22 281 22 419 22 c 0,10,11
243 159 m 1,21,-1
 243 189 l 1,22,-1
 256 189 l 2,23,24
 282 189 282 189 290 196.5 c 128,-1,25
 298 204 298 204 298 238 c 2,26,-1
 298 492 l 2,27,28
 298 521 298 521 290 530 c 128,-1,29
 282 539 282 539 257 539 c 2,30,-1
 243 539 l 1,31,-1
 243 570 l 1,32,-1
 400 570 l 2,33,34
 469 570 469 570 506 557 c 0,35,36
 581 531 581 531 581 465 c 0,37,38
 581 425 581 425 552 394.5 c 128,-1,39
 523 364 523 364 470 359 c 1,40,-1
 536 243 l 2,41,42
 555 209 555 209 567.5 199 c 128,-1,43
 580 189 580 189 608 189 c 2,44,-1
 619 189 l 1,45,-1
 619 159 l 1,46,-1
 512 159 l 1,47,-1
 401 351 l 1,48,-1
 365 351 l 1,49,-1
 364 242 l 2,50,51
 364 209 364 209 372.5 199 c 128,-1,52
 381 189 381 189 406 189 c 2,53,-1
 416 189 l 1,54,-1
 416 159 l 1,55,-1
 243 159 l 1,21,-1
414 383 m 2,56,57
 508 383 508 383 508 462 c 128,-1,58
 508 541 508 541 411 541 c 0,59,60
 386 541 386 541 375.5 533.5 c 128,-1,61
 365 526 365 526 365 503 c 2,62,-1
 365 383 l 1,63,-1
 414 383 l 2,56,57
EndSplineSet
EndChar

StartChar: macron
Encoding: 175 175 113
Width: 241
GlyphClass: 1
Flags: W
LayerCount: 2
Fore
SplineSet
0 579 m 1,0,-1
 0 636 l 1,1,-1
 241 636 l 1,2,-1
 241 579 l 1,3,-1
 0 579 l 1,0,-1
EndSplineSet
Substitution2: "<3,3> Small Caps in Latin lookup 11 subtable" macron.sc
EndChar

StartChar: degree
Encoding: 176 176 114
Width: 324
GlyphClass: 1
Flags: W
LayerCount: 2
Fore
SplineSet
163 468 m 0,0,1
 115 468 115 468 79 505.5 c 128,-1,2
 43 543 43 543 43 602 c 0,3,4
 43 662 43 662 79.5 698.5 c 128,-1,5
 116 735 116 735 163 735 c 0,6,7
 211 735 211 735 246 698 c 128,-1,8
 281 661 281 661 281 601 c 128,-1,9
 281 541 281 541 245.5 504.5 c 128,-1,10
 210 468 210 468 163 468 c 0,0,1
162 519 m 128,-1,12
 190 519 190 519 203.5 543 c 128,-1,13
 217 567 217 567 217 601 c 0,14,15
 217 636 217 636 204 660 c 128,-1,16
 191 684 191 684 163 684 c 128,-1,17
 135 684 135 684 121 659.5 c 128,-1,18
 107 635 107 635 107 601 c 128,-1,19
 107 567 107 567 120.5 543 c 128,-1,11
 134 519 134 519 162 519 c 128,-1,12
EndSplineSet
EndChar

StartChar: plusminus
Encoding: 177 177 115
Width: 601
GlyphClass: 1
Flags: W
LayerCount: 2
Fore
SplineSet
265 133 m 1,0,-1
 265 252 l 1,1,-1
 62 252 l 1,2,-1
 62 323 l 1,3,-1
 265 323 l 1,4,-1
 265 442 l 1,5,-1
 336 442 l 1,6,-1
 336 323 l 1,7,-1
 539 323 l 1,8,-1
 539 252 l 1,9,-1
 336 252 l 1,10,-1
 336 133 l 1,11,-1
 265 133 l 1,0,-1
62 0 m 1,12,-1
 62 71 l 1,13,-1
 539 71 l 1,14,-1
 539 0 l 1,15,-1
 62 0 l 1,12,-1
EndSplineSet
EndChar

StartChar: uni00B2
Encoding: 178 178 116
Width: 355
GlyphClass: 1
Flags: W
LayerCount: 2
Fore
SplineSet
32 354 m 1,0,1
 63 414 63 414 148 501 c 0,2,3
 153 506 153 506 175 528 c 128,-1,4
 197 550 197 550 202.5 557 c 128,-1,5
 208 564 208 564 220.5 581.5 c 128,-1,6
 233 599 233 599 236.5 614 c 128,-1,7
 240 629 240 629 240 647 c 0,8,9
 240 717 240 717 174 717 c 0,10,11
 147 717 147 717 129 706.5 c 128,-1,12
 111 696 111 696 111 681 c 0,13,14
 111 674 111 674 118.5 658.5 c 128,-1,15
 126 643 126 643 126 634 c 0,16,17
 126 620 126 620 115 608.5 c 128,-1,18
 104 597 104 597 88 597 c 0,19,20
 69 597 69 597 57.5 612.5 c 128,-1,21
 46 628 46 628 46 647 c 0,22,23
 46 684 46 684 85 717.5 c 128,-1,24
 124 751 124 751 185 751 c 0,25,26
 243 751 243 751 277.5 719 c 128,-1,27
 312 687 312 687 312 639 c 0,28,29
 312 622 312 622 306.5 605.5 c 128,-1,30
 301 589 301 589 295 578.5 c 128,-1,31
 289 568 289 568 272.5 551 c 128,-1,32
 256 534 256 534 248.5 527.5 c 128,-1,33
 241 521 241 521 216.5 501 c 128,-1,34
 192 481 192 481 185 475 c 0,35,36
 131 430 131 430 95 382 c 1,37,-1
 210 382 l 2,38,39
 241 382 241 382 256 397 c 128,-1,40
 271 412 271 412 284 453 c 1,41,-1
 317 446 l 1,42,-1
 288 327 l 1,43,-1
 32 327 l 1,44,-1
 32 354 l 1,0,1
EndSplineSet
EndChar

StartChar: uni00B3
Encoding: 179 179 117
Width: 355
GlyphClass: 1
Flags: W
LayerCount: 2
Fore
SplineSet
168 317 m 0,0,1
 113 317 113 317 71.5 339 c 128,-1,2
 30 361 30 361 30 402 c 0,3,4
 30 442 30 442 69 442 c 0,5,6
 89 442 89 442 100 432 c 128,-1,7
 111 422 111 422 111 408 c 0,8,9
 111 403 111 403 109.5 391.5 c 128,-1,10
 108 380 108 380 108 377 c 0,11,12
 108 349 108 349 159 349 c 0,13,14
 245 349 245 349 245 437 c 0,15,16
 245 480 245 480 225.5 505.5 c 128,-1,17
 206 531 206 531 163 530 c 2,18,-1
 132 529 l 2,19,20
 110 529 110 529 110 546 c 0,21,22
 110 554 110 554 116 559.5 c 128,-1,23
 122 565 122 565 131 565 c 2,24,-1
 161 564 l 2,25,26
 193 563 193 563 214 586 c 128,-1,27
 235 609 235 609 235 649 c 0,28,29
 235 717 235 717 163 717 c 0,30,31
 119 717 119 717 119 688 c 0,32,33
 119 684 119 684 120 675 c 128,-1,34
 121 666 121 666 121 661 c 0,35,36
 121 626 121 626 84 626 c 0,37,38
 44 626 44 626 44 664 c 0,39,40
 44 701 44 701 85.5 726 c 128,-1,41
 127 751 127 751 180 751 c 0,42,43
 236 751 236 751 270.5 722 c 128,-1,44
 305 693 305 693 305 647 c 0,45,46
 305 581 305 581 222 548 c 1,47,48
 255 542 255 542 279 522 c 0,49,50
 320 487 320 487 320 439 c 0,51,52
 320 389 320 389 279.5 353 c 128,-1,53
 239 317 239 317 168 317 c 0,0,1
EndSplineSet
EndChar

StartChar: acute
Encoding: 180 180 118
Width: 211
GlyphClass: 1
Flags: W
LayerCount: 2
Fore
SplineSet
31 526 m 1,0,-1
 0 533 l 1,1,-1
 121 655 l 2,2,3
 157 691 157 691 176 691 c 0,4,5
 190 691 190 691 200.5 680.5 c 128,-1,6
 211 670 211 670 211 656 c 0,7,8
 211 641 211 641 201 631.5 c 128,-1,9
 191 622 191 622 171 610 c 2,10,-1
 31 526 l 1,0,-1
EndSplineSet
Substitution2: "<3,3> Small Caps in Latin lookup 11 subtable" acute.sc
EndChar

StartChar: uni00B5
Encoding: 181 181 119
Width: 537
GlyphClass: 1
Flags: W
LayerCount: 2
Fore
SplineSet
116 -365 m 0,0,1
 55 -365 55 -365 55 -277 c 0,2,3
 55 -248 55 -248 64.5 -212.5 c 128,-1,4
 74 -177 74 -177 84 -111 c 128,-1,5
 94 -45 94 -45 94 56 c 2,6,-1
 94 337 l 2,7,8
 94 382 94 382 82.5 393.5 c 128,-1,9
 71 405 71 405 26 412 c 1,10,-1
 26 442 l 1,11,-1
 177 490 l 1,12,-1
 177 169 l 2,13,14
 177 104 177 104 193 78 c 0,15,16
 209 51 209 51 248 51 c 0,17,18
 305 51 305 51 368 116 c 1,19,-1
 368 337 l 2,20,21
 368 382 368 382 356.5 393.5 c 128,-1,22
 345 405 345 405 299 412 c 1,23,-1
 299 442 l 1,24,-1
 451 490 l 1,25,-1
 451 109 l 2,26,27
 451 61 451 61 462.5 49 c 128,-1,28
 474 37 474 37 512 36 c 1,29,-1
 512 0 l 1,30,-1
 368 -9 l 1,31,-1
 368 68 l 1,32,33
 291 -14 291 -14 214 -14 c 0,34,35
 167 -14 167 -14 134 13 c 1,36,37
 137 -95 137 -95 156 -173.5 c 128,-1,38
 175 -252 175 -252 175 -278 c 0,39,40
 175 -365 175 -365 116 -365 c 0,0,1
EndSplineSet
EndChar

StartChar: paragraph
Encoding: 182 182 120
Width: 571
GlyphClass: 1
Flags: W
LayerCount: 2
Fore
SplineSet
119 -181 m 1,0,-1
 119 -138 l 1,1,-1
 148 -138 l 2,2,3
 191 -138 191 -138 205 -122 c 128,-1,4
 219 -106 219 -106 219 -50 c 2,5,-1
 219 332 l 1,6,7
 36 332 36 332 36 526 c 0,8,9
 36 721 36 721 219 721 c 2,10,-1
 541 721 l 1,11,-1
 541 679 l 1,12,-1
 517 679 l 2,13,14
 476 679 476 679 461 662.5 c 128,-1,15
 446 646 446 646 446 599 c 2,16,-1
 446 -50 l 2,17,18
 446 -106 446 -106 460.5 -122 c 128,-1,19
 475 -138 475 -138 518 -138 c 2,20,-1
 541 -138 l 1,21,-1
 541 -181 l 1,22,-1
 378 -181 l 1,23,-1
 378 679 l 1,24,-1
 288 679 l 1,25,-1
 288 -181 l 1,26,-1
 119 -181 l 1,0,-1
EndSplineSet
EndChar

StartChar: periodcentered
Encoding: 183 183 121
Width: 267
GlyphClass: 1
Flags: W
LayerCount: 2
Fore
SplineSet
134 170 m 128,-1,1
 106 170 106 170 85.5 190 c 128,-1,2
 65 210 65 210 65 239 c 128,-1,3
 65 268 65 268 85.5 287.5 c 128,-1,4
 106 307 106 307 134 307 c 128,-1,5
 162 307 162 307 182 287.5 c 128,-1,6
 202 268 202 268 202 239 c 0,7,8
 202 209 202 209 182 189.5 c 128,-1,0
 162 170 162 170 134 170 c 128,-1,1
EndSplineSet
EndChar

StartChar: cedilla
Encoding: 184 184 122
Width: 215
GlyphClass: 1
Flags: W
LayerCount: 2
Fore
SplineSet
92 -217 m 0,0,1
 44 -217 44 -217 0 -197 c 1,2,-1
 17 -164 l 1,3,4
 58 -183 58 -183 87 -183 c 0,5,6
 112 -183 112 -183 129.5 -170 c 128,-1,7
 147 -157 147 -157 147 -133 c 0,8,9
 147 -96 147 -96 106 -96 c 0,10,11
 96 -96 96 -96 78 -99 c 1,12,-1
 67 -93 l 1,13,-1
 102 -10 l 1,14,-1
 132 -10 l 1,15,-1
 112 -68 l 1,16,17
 129 -63 129 -63 145 -63 c 0,18,19
 175 -63 175 -63 195 -82.5 c 128,-1,20
 215 -102 215 -102 215 -132 c 0,21,22
 215 -172 215 -172 180.5 -194.5 c 128,-1,23
 146 -217 146 -217 92 -217 c 0,0,1
EndSplineSet
EndChar

StartChar: uni00B9
Encoding: 185 185 123
Width: 355
GlyphClass: 1
Flags: W
LayerCount: 2
Fore
SplineSet
70 359 m 1,0,1
 124 359 124 359 139.5 369.5 c 128,-1,2
 155 380 155 380 155 412 c 2,3,-1
 155 628 l 2,4,5
 155 666 155 666 142.5 673 c 128,-1,6
 130 680 130 680 64 680 c 1,7,-1
 64 711 l 1,8,9
 113 719 113 719 218 757 c 1,10,-1
 218 412 l 2,11,12
 218 380 218 380 233.5 369.5 c 128,-1,13
 249 359 249 359 303 359 c 1,14,-1
 303 327 l 1,15,-1
 70 327 l 1,16,-1
 70 359 l 1,0,1
EndSplineSet
EndChar

StartChar: ordmasculine
Encoding: 186 186 124
Width: 371
GlyphClass: 1
Flags: W
LayerCount: 2
Fore
SplineSet
185 406 m 128,-1,1
 122 406 122 406 82.5 452 c 128,-1,2
 43 498 43 498 43 559 c 0,3,4
 43 623 43 623 86.5 665 c 128,-1,5
 130 707 130 707 186 707 c 0,6,7
 243 707 243 707 285.5 664 c 128,-1,8
 328 621 328 621 328 558 c 0,9,10
 328 497 328 497 288 451.5 c 128,-1,0
 248 406 248 406 185 406 c 128,-1,1
186 436 m 128,-1,12
 222 436 222 436 242 470.5 c 128,-1,13
 262 505 262 505 262 557 c 0,14,15
 262 608 262 608 242 643 c 128,-1,16
 222 678 222 678 186 678 c 128,-1,17
 150 678 150 678 129.5 643 c 128,-1,18
 109 608 109 608 109 557 c 0,19,20
 109 505 109 505 129.5 470.5 c 128,-1,11
 150 436 150 436 186 436 c 128,-1,12
EndSplineSet
EndChar

StartChar: guillemotright
Encoding: 187 187 125
Width: 421
GlyphClass: 1
Flags: W
LayerCount: 2
Fore
SplineSet
185 79 m 1,0,1
 247 194 247 194 296 241 c 1,2,3
 226 308 226 308 183 391 c 1,4,-1
 209 409 l 1,5,6
 284 323 284 323 383 242 c 1,7,-1
 383 228 l 1,8,9
 285 149 285 149 209 62 c 1,10,-1
 185 79 l 1,0,1
37 79 m 1,11,12
 99 194 99 194 148 241 c 1,13,14
 78 308 78 308 35 391 c 1,15,-1
 61 409 l 1,16,17
 136 323 136 323 235 242 c 1,18,-1
 235 228 l 1,19,20
 137 149 137 149 61 62 c 1,21,-1
 37 79 l 1,11,12
EndSplineSet
EndChar

StartChar: onequarter
Encoding: 188 188 126
Width: 781
GlyphClass: 1
Flags: W
LayerCount: 2
Fore
SplineSet
70 359 m 1,0,1
 124 359 124 359 139.5 369.5 c 128,-1,2
 155 380 155 380 155 412 c 2,3,-1
 155 628 l 2,4,5
 155 666 155 666 142.5 673 c 128,-1,6
 130 680 130 680 64 680 c 1,7,-1
 64 711 l 1,8,9
 113 719 113 719 218 757 c 1,10,-1
 218 412 l 2,11,12
 218 380 218 380 233.5 369.5 c 128,-1,13
 249 359 249 359 303 359 c 1,14,-1
 303 327 l 1,15,-1
 70 327 l 1,16,-1
 70 359 l 1,0,1
210 0 m 1,17,-1
 563 692 l 1,18,-1
 613 692 l 1,19,-1
 259 0 l 1,20,-1
 210 0 l 1,17,-1
564 32 m 1,21,22
 603 32 603 32 609.5 39 c 128,-1,23
 616 46 616 46 616 81 c 2,24,-1
 616 97 l 1,25,-1
 455 97 l 1,26,-1
 455 128 l 1,27,-1
 647 419 l 1,28,-1
 680 419 l 1,29,-1
 680 134 l 1,30,-1
 755 134 l 1,31,-1
 755 97 l 1,32,-1
 680 97 l 1,33,-1
 680 81 l 2,34,35
 680 46 680 46 684 40 c 0,36,37
 691 32 691 32 728 32 c 1,38,-1
 728 0 l 1,39,-1
 564 0 l 1,40,-1
 564 32 l 1,21,22
500 134 m 1,41,-1
 616 134 l 1,42,-1
 616 313 l 1,43,-1
 500 134 l 1,41,-1
EndSplineSet
EndChar

StartChar: onehalf
Encoding: 189 189 127
Width: 781
GlyphClass: 1
Flags: W
LayerCount: 2
Fore
SplineSet
70 359 m 1,0,1
 124 359 124 359 139.5 369.5 c 128,-1,2
 155 380 155 380 155 412 c 2,3,-1
 155 628 l 2,4,5
 155 666 155 666 142.5 673 c 128,-1,6
 130 680 130 680 64 680 c 1,7,-1
 64 711 l 1,8,9
 113 719 113 719 218 757 c 1,10,-1
 218 412 l 2,11,12
 218 380 218 380 233.5 369.5 c 128,-1,13
 249 359 249 359 303 359 c 1,14,-1
 303 327 l 1,15,-1
 70 327 l 1,16,-1
 70 359 l 1,0,1
190 0 m 1,17,-1
 543 692 l 1,18,-1
 593 692 l 1,19,-1
 239 0 l 1,20,-1
 190 0 l 1,17,-1
458 27 m 1,21,22
 489 87 489 87 574 174 c 0,23,24
 579 179 579 179 601 201 c 128,-1,25
 623 223 623 223 628.5 230 c 128,-1,26
 634 237 634 237 646.5 254.5 c 128,-1,27
 659 272 659 272 662.5 287 c 128,-1,28
 666 302 666 302 666 320 c 0,29,30
 666 390 666 390 600 390 c 0,31,32
 573 390 573 390 555 379.5 c 128,-1,33
 537 369 537 369 537 354 c 0,34,35
 537 347 537 347 544.5 331.5 c 128,-1,36
 552 316 552 316 552 307 c 0,37,38
 552 292 552 292 541 281 c 128,-1,39
 530 270 530 270 514 270 c 0,40,41
 495 270 495 270 483.5 285.5 c 128,-1,42
 472 301 472 301 472 320 c 0,43,44
 472 357 472 357 511 390.5 c 128,-1,45
 550 424 550 424 611 424 c 0,46,47
 669 424 669 424 703.5 392 c 128,-1,48
 738 360 738 360 738 312 c 0,49,50
 738 295 738 295 732.5 278.5 c 128,-1,51
 727 262 727 262 721 251.5 c 128,-1,52
 715 241 715 241 698.5 224 c 128,-1,53
 682 207 682 207 674.5 200.5 c 128,-1,54
 667 194 667 194 642.5 174 c 128,-1,55
 618 154 618 154 611 148 c 0,56,57
 557 103 557 103 521 55 c 1,58,-1
 636 55 l 2,59,60
 667 55 667 55 682 70 c 128,-1,61
 697 85 697 85 710 126 c 1,62,-1
 743 119 l 1,63,-1
 714 0 l 1,64,-1
 458 0 l 1,65,-1
 458 27 l 1,21,22
EndSplineSet
EndChar

StartChar: threequarters
Encoding: 190 190 128
Width: 781
GlyphClass: 1
Flags: W
LayerCount: 2
Fore
SplineSet
168 317 m 0,0,1
 113 317 113 317 71.5 339 c 128,-1,2
 30 361 30 361 30 402 c 0,3,4
 30 442 30 442 69 442 c 0,5,6
 89 442 89 442 100 432 c 128,-1,7
 111 422 111 422 111 408 c 0,8,9
 111 403 111 403 109.5 391.5 c 128,-1,10
 108 380 108 380 108 377 c 0,11,12
 108 349 108 349 159 349 c 0,13,14
 245 349 245 349 245 437 c 0,15,16
 245 480 245 480 225.5 505.5 c 128,-1,17
 206 531 206 531 163 530 c 2,18,-1
 132 529 l 2,19,20
 110 529 110 529 110 546 c 0,21,22
 110 554 110 554 116 559.5 c 128,-1,23
 122 565 122 565 131 565 c 2,24,-1
 161 564 l 2,25,26
 193 563 193 563 214 586 c 128,-1,27
 235 609 235 609 235 649 c 0,28,29
 235 717 235 717 163 717 c 0,30,31
 119 717 119 717 119 688 c 0,32,33
 119 684 119 684 120 675 c 128,-1,34
 121 666 121 666 121 661 c 0,35,36
 121 626 121 626 84 626 c 0,37,38
 44 626 44 626 44 664 c 0,39,40
 44 701 44 701 85.5 726 c 128,-1,41
 127 751 127 751 180 751 c 0,42,43
 236 751 236 751 270.5 722 c 128,-1,44
 305 693 305 693 305 647 c 0,45,46
 305 581 305 581 222 548 c 1,47,48
 255 542 255 542 279 522 c 0,49,50
 320 487 320 487 320 439 c 0,51,52
 320 389 320 389 279.5 353 c 128,-1,53
 239 317 239 317 168 317 c 0,0,1
210 0 m 1,54,-1
 563 692 l 1,55,-1
 613 692 l 1,56,-1
 259 0 l 1,57,-1
 210 0 l 1,54,-1
564 32 m 1,58,59
 603 32 603 32 609.5 39 c 128,-1,60
 616 46 616 46 616 81 c 2,61,-1
 616 97 l 1,62,-1
 455 97 l 1,63,-1
 455 128 l 1,64,-1
 647 419 l 1,65,-1
 680 419 l 1,66,-1
 680 134 l 1,67,-1
 755 134 l 1,68,-1
 755 97 l 1,69,-1
 680 97 l 1,70,-1
 680 81 l 2,71,72
 680 46 680 46 684 40 c 0,73,74
 691 32 691 32 728 32 c 1,75,-1
 728 0 l 1,76,-1
 564 0 l 1,77,-1
 564 32 l 1,58,59
500 134 m 1,78,-1
 616 134 l 1,79,-1
 616 313 l 1,80,-1
 500 134 l 1,78,-1
EndSplineSet
EndChar

StartChar: questiondown
Encoding: 191 191 129
Width: 405
GlyphClass: 1
Flags: W
LayerCount: 2
Fore
SplineSet
264 56 m 1,0,1
 197 56 197 56 155.5 16 c 128,-1,2
 114 -24 114 -24 114 -92 c 0,3,4
 114 -144 114 -144 136.5 -173.5 c 128,-1,5
 159 -203 159 -203 187 -203 c 0,6,7
 207 -203 207 -203 235.5 -175.5 c 128,-1,8
 264 -148 264 -148 287 -148 c 128,-1,9
 310 -148 310 -148 321.5 -165 c 128,-1,10
 333 -182 333 -182 333 -201 c 0,11,12
 333 -229 333 -229 306.5 -248 c 128,-1,13
 280 -267 280 -267 238 -267 c 0,14,15
 159 -267 159 -267 99.5 -203 c 128,-1,16
 40 -139 40 -139 40 -50 c 0,17,18
 40 31 40 31 91.5 85.5 c 128,-1,19
 143 140 143 140 216 140 c 1,20,-1
 216 266 l 1,21,-1
 264 266 l 1,22,-1
 264 56 l 1,0,1
243 482 m 128,-1,24
 271 482 271 482 291.5 462 c 128,-1,25
 312 442 312 442 312 413 c 128,-1,26
 312 384 312 384 291.5 364.5 c 128,-1,27
 271 345 271 345 243 345 c 128,-1,28
 215 345 215 345 195 364.5 c 128,-1,29
 175 384 175 384 175 413 c 0,30,31
 175 443 175 443 195 462.5 c 128,-1,23
 215 482 215 482 243 482 c 128,-1,24
EndSplineSet
EndChar

StartChar: Agrave
Encoding: 192 192 130
Width: 643
GlyphClass: 1
Flags: W
LayerCount: 2
Fore
SplineSet
-8 42 m 1,0,1
 52 42 52 42 72 103 c 2,2,-1
 274 716 l 1,3,-1
 361 743 l 1,4,-1
 558 124 l 2,5,6
 575 71 575 71 588.5 58.5 c 128,-1,7
 602 46 602 46 650 42 c 1,8,-1
 650 0 l 1,9,-1
 379 0 l 1,10,-1
 379 42 l 1,11,-1
 410 42 l 2,12,13
 463 42 463 42 463 73 c 0,14,15
 463 85 463 85 457 105 c 2,16,-1
 415 249 l 1,17,-1
 172 249 l 1,18,-1
 137 135 l 2,19,20
 130 112 130 112 130 96 c 0,21,22
 130 69 130 69 148.5 55.5 c 128,-1,23
 167 42 167 42 213 42 c 1,24,-1
 213 0 l 1,25,-1
 -8 0 l 1,26,-1
 -8 42 l 1,0,1
188 297 m 1,27,-1
 398 297 l 1,28,-1
 298 639 l 1,29,-1
 188 297 l 1,27,-1
231 865 m 2,30,31
 218 873 218 873 211 877.5 c 128,-1,32
 204 882 204 882 197.5 891.5 c 128,-1,33
 191 901 191 901 191 911 c 0,34,35
 191 925 191 925 201.5 935.5 c 128,-1,36
 212 946 212 946 227 946 c 0,37,38
 245 946 245 946 281 910 c 2,39,-1
 402 788 l 1,40,-1
 370 781 l 1,41,-1
 231 865 l 2,30,31
EndSplineSet
EndChar

StartChar: Aacute
Encoding: 193 193 131
Width: 643
GlyphClass: 1
Flags: W
LayerCount: 2
Fore
SplineSet
-8 42 m 1,0,1
 52 42 52 42 72 103 c 2,2,-1
 274 716 l 1,3,-1
 361 743 l 1,4,-1
 558 124 l 2,5,6
 575 71 575 71 588.5 58.5 c 128,-1,7
 602 46 602 46 650 42 c 1,8,-1
 650 0 l 1,9,-1
 379 0 l 1,10,-1
 379 42 l 1,11,-1
 410 42 l 2,12,13
 463 42 463 42 463 73 c 0,14,15
 463 85 463 85 457 105 c 2,16,-1
 415 249 l 1,17,-1
 172 249 l 1,18,-1
 137 135 l 2,19,20
 130 112 130 112 130 96 c 0,21,22
 130 69 130 69 148.5 55.5 c 128,-1,23
 167 42 167 42 213 42 c 1,24,-1
 213 0 l 1,25,-1
 -8 0 l 1,26,-1
 -8 42 l 1,0,1
188 297 m 1,27,-1
 398 297 l 1,28,-1
 298 639 l 1,29,-1
 188 297 l 1,27,-1
283 781 m 1,30,-1
 252 788 l 1,31,-1
 373 910 l 2,32,33
 409 946 409 946 428 946 c 0,34,35
 442 946 442 946 452.5 935.5 c 128,-1,36
 463 925 463 925 463 911 c 0,37,38
 463 896 463 896 453 886.5 c 128,-1,39
 443 877 443 877 423 865 c 2,40,-1
 283 781 l 1,30,-1
EndSplineSet
EndChar

StartChar: Acircumflex
Encoding: 194 194 132
Width: 643
GlyphClass: 1
Flags: W
LayerCount: 2
Fore
SplineSet
-8 42 m 1,0,1
 52 42 52 42 72 103 c 2,2,-1
 274 716 l 1,3,-1
 361 743 l 1,4,-1
 558 124 l 2,5,6
 575 71 575 71 588.5 58.5 c 128,-1,7
 602 46 602 46 650 42 c 1,8,-1
 650 0 l 1,9,-1
 379 0 l 1,10,-1
 379 42 l 1,11,-1
 410 42 l 2,12,13
 463 42 463 42 463 73 c 0,14,15
 463 85 463 85 457 105 c 2,16,-1
 415 249 l 1,17,-1
 172 249 l 1,18,-1
 137 135 l 2,19,20
 130 112 130 112 130 96 c 0,21,22
 130 69 130 69 148.5 55.5 c 128,-1,23
 167 42 167 42 213 42 c 1,24,-1
 213 0 l 1,25,-1
 -8 0 l 1,26,-1
 -8 42 l 1,0,1
188 297 m 1,27,-1
 398 297 l 1,28,-1
 298 639 l 1,29,-1
 188 297 l 1,27,-1
185 781 m 1,30,-1
 299 944 l 1,31,-1
 343 944 l 1,32,-1
 456 781 l 1,33,-1
 421 781 l 1,34,-1
 321 885 l 1,35,-1
 222 781 l 1,36,-1
 185 781 l 1,30,-1
EndSplineSet
EndChar

StartChar: Atilde
Encoding: 195 195 133
Width: 643
GlyphClass: 1
Flags: W
LayerCount: 2
Fore
SplineSet
-8 42 m 1,0,1
 52 42 52 42 72 103 c 2,2,-1
 274 716 l 1,3,-1
 361 743 l 1,4,-1
 558 124 l 2,5,6
 575 71 575 71 588.5 58.5 c 128,-1,7
 602 46 602 46 650 42 c 1,8,-1
 650 0 l 1,9,-1
 379 0 l 1,10,-1
 379 42 l 1,11,-1
 410 42 l 2,12,13
 463 42 463 42 463 73 c 0,14,15
 463 85 463 85 457 105 c 2,16,-1
 415 249 l 1,17,-1
 172 249 l 1,18,-1
 137 135 l 2,19,20
 130 112 130 112 130 96 c 0,21,22
 130 69 130 69 148.5 55.5 c 128,-1,23
 167 42 167 42 213 42 c 1,24,-1
 213 0 l 1,25,-1
 -8 0 l 1,26,-1
 -8 42 l 1,0,1
188 297 m 1,27,-1
 398 297 l 1,28,-1
 298 639 l 1,29,-1
 188 297 l 1,27,-1
392 804 m 0,30,31
 373 804 373 804 319.5 830 c 128,-1,32
 266 856 266 856 254 856 c 0,33,34
 233 856 233 856 220 810 c 1,35,-1
 185 821 l 1,36,37
 214 921 214 921 258 921 c 0,38,39
 277 921 277 921 330.5 895 c 128,-1,40
 384 869 384 869 396 869 c 0,41,42
 419 869 419 869 431 916 c 1,43,-1
 466 904 l 1,44,45
 437 804 437 804 392 804 c 0,30,31
EndSplineSet
EndChar

StartChar: Adieresis
Encoding: 196 196 134
Width: 643
GlyphClass: 1
Flags: W
LayerCount: 2
Fore
SplineSet
-8 42 m 1,0,1
 52 42 52 42 72 103 c 2,2,-1
 274 716 l 1,3,-1
 361 743 l 1,4,-1
 558 124 l 2,5,6
 575 71 575 71 588.5 58.5 c 128,-1,7
 602 46 602 46 650 42 c 1,8,-1
 650 0 l 1,9,-1
 379 0 l 1,10,-1
 379 42 l 1,11,-1
 410 42 l 2,12,13
 463 42 463 42 463 73 c 0,14,15
 463 85 463 85 457 105 c 2,16,-1
 415 249 l 1,17,-1
 172 249 l 1,18,-1
 137 135 l 2,19,20
 130 112 130 112 130 96 c 0,21,22
 130 69 130 69 148.5 55.5 c 128,-1,23
 167 42 167 42 213 42 c 1,24,-1
 213 0 l 1,25,-1
 -8 0 l 1,26,-1
 -8 42 l 1,0,1
188 297 m 1,27,-1
 398 297 l 1,28,-1
 298 639 l 1,29,-1
 188 297 l 1,27,-1
409 810 m 128,-1,31
 387 810 387 810 371.5 825 c 128,-1,32
 356 840 356 840 356 863 c 128,-1,33
 356 886 356 886 371.5 900 c 128,-1,34
 387 914 387 914 409 914 c 128,-1,35
 431 914 431 914 446 900 c 128,-1,36
 461 886 461 886 461 863 c 128,-1,37
 461 840 461 840 446 825 c 128,-1,30
 431 810 431 810 409 810 c 128,-1,31
237 810 m 128,-1,39
 215 810 215 810 199.5 825 c 128,-1,40
 184 840 184 840 184 863 c 128,-1,41
 184 886 184 886 199.5 900 c 128,-1,42
 215 914 215 914 237 914 c 128,-1,43
 259 914 259 914 274 900 c 128,-1,44
 289 886 289 886 289 863 c 128,-1,45
 289 840 289 840 274 825 c 128,-1,38
 259 810 259 810 237 810 c 128,-1,39
EndSplineSet
EndChar

StartChar: Aring
Encoding: 197 197 135
Width: 643
GlyphClass: 1
Flags: W
LayerCount: 2
Fore
SplineSet
-8 42 m 1,0,1
 52 42 52 42 72 103 c 2,2,-1
 274 716 l 1,3,-1
 361 743 l 1,4,-1
 558 124 l 2,5,6
 575 71 575 71 588.5 58.5 c 128,-1,7
 602 46 602 46 650 42 c 1,8,-1
 650 0 l 1,9,-1
 379 0 l 1,10,-1
 379 42 l 1,11,-1
 410 42 l 2,12,13
 463 42 463 42 463 73 c 0,14,15
 463 85 463 85 457 105 c 2,16,-1
 415 249 l 1,17,-1
 172 249 l 1,18,-1
 137 135 l 2,19,20
 130 112 130 112 130 96 c 0,21,22
 130 69 130 69 148.5 55.5 c 128,-1,23
 167 42 167 42 213 42 c 1,24,-1
 213 0 l 1,25,-1
 -8 0 l 1,26,-1
 -8 42 l 1,0,1
188 297 m 1,27,-1
 398 297 l 1,28,-1
 298 639 l 1,29,-1
 188 297 l 1,27,-1
322 811 m 0,30,31
 288 811 288 811 262 835 c 128,-1,32
 236 859 236 859 236 898 c 128,-1,33
 236 937 236 937 262.5 960.5 c 128,-1,34
 289 984 289 984 324 984 c 0,35,36
 358 984 358 984 383.5 960 c 128,-1,37
 409 936 409 936 409 897 c 128,-1,38
 409 858 409 858 383 834.5 c 128,-1,39
 357 811 357 811 322 811 c 0,30,31
322 849 m 0,40,41
 344 849 344 849 357.5 863 c 128,-1,42
 371 877 371 877 371 897 c 128,-1,43
 371 917 371 917 358 931.5 c 128,-1,44
 345 946 345 946 324 946 c 0,45,46
 302 946 302 946 288 931.5 c 128,-1,47
 274 917 274 917 274 897 c 128,-1,48
 274 877 274 877 287.5 863 c 128,-1,49
 301 849 301 849 322 849 c 0,40,41
EndSplineSet
EndChar

StartChar: AE
Encoding: 198 198 136
Width: 1065
GlyphClass: 1
Flags: W
LayerCount: 2
Fore
SplineSet
-8 42 m 1,0,1
 45 42 45 42 94 114 c 2,2,-1
 446 624 l 2,3,4
 475 666 475 666 475 670 c 0,5,6
 475 680 475 680 455 680 c 2,7,-1
 399 680 l 1,8,-1
 399 721 l 1,9,-1
 936 721 l 1,10,-1
 1000 548 l 1,11,-1
 962 533 l 1,12,13
 902 619 902 619 848.5 649 c 128,-1,14
 795 679 795 679 711 679 c 0,15,16
 661 679 661 679 642 666.5 c 128,-1,17
 623 654 623 654 623 615 c 2,18,-1
 623 391 l 1,19,-1
 653 391 l 2,20,21
 739 391 739 391 765.5 415.5 c 128,-1,22
 792 440 792 440 806 511 c 1,23,-1
 848 511 l 1,24,-1
 848 225 l 1,25,-1
 808 225 l 1,26,27
 800 264 800 264 794 281.5 c 128,-1,28
 788 299 788 299 772.5 317.5 c 128,-1,29
 757 336 757 336 728.5 342.5 c 128,-1,30
 700 349 700 349 653 349 c 2,31,-1
 623 349 l 1,32,-1
 623 116 l 2,33,34
 623 70 623 70 637.5 55.5 c 128,-1,35
 652 41 652 41 701 41 c 0,36,37
 760 41 760 41 807.5 55 c 128,-1,38
 855 69 855 69 889.5 97 c 128,-1,39
 924 125 924 125 944 147 c 128,-1,40
 964 169 964 169 988 204 c 1,41,-1
 1022 190 l 1,42,-1
 951 0 l 1,43,-1
 428 0 l 1,44,-1
 428 42 l 1,45,-1
 451 42 l 2,46,47
 493 42 493 42 507.5 58.5 c 128,-1,48
 522 75 522 75 522 131 c 2,49,-1
 522 256 l 1,50,-1
 248 256 l 1,51,-1
 158 114 l 2,52,53
 137 81 137 81 137 64 c 0,54,55
 137 50 137 50 154.5 46 c 128,-1,56
 172 42 172 42 223 42 c 1,57,-1
 223 0 l 1,58,-1
 -8 0 l 1,59,-1
 -8 42 l 1,0,1
276 298 m 1,60,-1
 522 298 l 1,61,-1
 522 655 l 1,62,-1
 276 298 l 1,60,-1
EndSplineSet
EndChar

StartChar: Ccedilla
Encoding: 199 199 137
Width: 654
GlyphClass: 1
Flags: W
LayerCount: 2
Fore
SplineSet
317 -217 m 0,0,1
 269 -217 269 -217 225 -197 c 1,2,-1
 242 -164 l 1,3,4
 283 -183 283 -183 312 -183 c 0,5,6
 337 -183 337 -183 354.5 -170 c 128,-1,7
 372 -157 372 -157 372 -134 c 0,8,9
 372 -96 372 -96 331 -96 c 0,10,11
 321 -96 321 -96 303 -99 c 1,12,-1
 292 -93 l 1,13,-1
 324 -14 l 1,14,15
 199 -7 199 -7 121 87 c 128,-1,16
 43 181 43 181 43 324 c 0,17,18
 43 422 43 422 78.5 514.5 c 128,-1,19
 114 607 114 607 187.5 671 c 128,-1,20
 261 735 261 735 355 735 c 0,21,22
 394 735 394 735 433 722 c 128,-1,23
 472 709 472 709 481 709 c 0,24,25
 497 709 497 709 554 729 c 1,26,-1
 615 541 l 1,27,-1
 575 524 l 1,28,29
 547 588 547 588 484 640 c 128,-1,30
 421 692 421 692 351 692 c 0,31,32
 264 692 264 692 207.5 606.5 c 128,-1,33
 151 521 151 521 151 377 c 0,34,35
 151 220 151 220 216.5 141.5 c 128,-1,36
 282 63 282 63 375 63 c 0,37,38
 443 63 443 63 496.5 104 c 128,-1,39
 550 145 550 145 576 209 c 1,40,-1
 615 192 l 1,41,42
 578 98 578 98 510 45 c 128,-1,43
 442 -8 442 -8 356 -13 c 1,44,-1
 337 -68 l 1,45,46
 354 -63 354 -63 370 -63 c 0,47,48
 400 -63 400 -63 420 -82.5 c 128,-1,49
 440 -102 440 -102 440 -132 c 0,50,51
 440 -172 440 -172 405.5 -194.5 c 128,-1,52
 371 -217 371 -217 317 -217 c 0,0,1
EndSplineSet
EndChar

StartChar: Egrave
Encoding: 200 200 138
Width: 670
GlyphClass: 1
Flags: W
LayerCount: 2
Fore
SplineSet
32 0 m 1,0,-1
 32 42 l 1,1,-1
 55 42 l 2,2,3
 97 42 97 42 111.5 58.5 c 128,-1,4
 126 75 126 75 126 131 c 2,5,-1
 126 599 l 2,6,7
 126 646 126 646 111.5 662.5 c 128,-1,8
 97 679 97 679 56 679 c 2,9,-1
 32 679 l 1,10,-1
 32 721 l 1,11,-1
 542 721 l 1,12,-1
 605 546 l 1,13,-1
 568 533 l 1,14,15
 507 619 507 619 453 649 c 128,-1,16
 399 679 399 679 315 679 c 0,17,18
 264 679 264 679 245.5 666.5 c 128,-1,19
 227 654 227 654 227 615 c 2,20,-1
 227 391 l 1,21,-1
 257 391 l 2,22,23
 317 391 317 391 348 404.5 c 128,-1,24
 379 418 379 418 390.5 440.5 c 128,-1,25
 402 463 402 463 412 511 c 1,26,-1
 453 511 l 1,27,-1
 453 225 l 1,28,-1
 413 225 l 1,29,30
 406 263 406 263 399.5 281.5 c 128,-1,31
 393 300 393 300 377 318 c 128,-1,32
 361 336 361 336 332.5 342.5 c 128,-1,33
 304 349 304 349 257 349 c 2,34,-1
 227 349 l 1,35,-1
 227 116 l 2,36,37
 227 70 227 70 241.5 55.5 c 128,-1,38
 256 41 256 41 305 41 c 0,39,40
 361 41 361 41 405.5 53.5 c 128,-1,41
 450 66 450 66 482.5 90 c 128,-1,42
 515 114 515 114 537 136.5 c 128,-1,43
 559 159 559 159 584 190 c 0,44,45
 591 199 591 199 594 203 c 1,46,-1
 627 188 l 1,47,-1
 557 0 l 1,48,-1
 32 0 l 1,0,-1
217 865 m 2,49,50
 204 873 204 873 197 877.5 c 128,-1,51
 190 882 190 882 183.5 891.5 c 128,-1,52
 177 901 177 901 177 911 c 0,53,54
 177 925 177 925 187.5 935.5 c 128,-1,55
 198 946 198 946 213 946 c 0,56,57
 231 946 231 946 267 910 c 2,58,-1
 388 788 l 1,59,-1
 356 781 l 1,60,-1
 217 865 l 2,49,50
EndSplineSet
EndChar

StartChar: Eacute
Encoding: 201 201 139
Width: 670
GlyphClass: 1
Flags: W
LayerCount: 2
Fore
SplineSet
32 0 m 1,0,-1
 32 42 l 1,1,-1
 55 42 l 2,2,3
 97 42 97 42 111.5 58.5 c 128,-1,4
 126 75 126 75 126 131 c 2,5,-1
 126 599 l 2,6,7
 126 646 126 646 111.5 662.5 c 128,-1,8
 97 679 97 679 56 679 c 2,9,-1
 32 679 l 1,10,-1
 32 721 l 1,11,-1
 542 721 l 1,12,-1
 605 546 l 1,13,-1
 568 533 l 1,14,15
 507 619 507 619 453 649 c 128,-1,16
 399 679 399 679 315 679 c 0,17,18
 264 679 264 679 245.5 666.5 c 128,-1,19
 227 654 227 654 227 615 c 2,20,-1
 227 391 l 1,21,-1
 257 391 l 2,22,23
 317 391 317 391 348 404.5 c 128,-1,24
 379 418 379 418 390.5 440.5 c 128,-1,25
 402 463 402 463 412 511 c 1,26,-1
 453 511 l 1,27,-1
 453 225 l 1,28,-1
 413 225 l 1,29,30
 406 263 406 263 399.5 281.5 c 128,-1,31
 393 300 393 300 377 318 c 128,-1,32
 361 336 361 336 332.5 342.5 c 128,-1,33
 304 349 304 349 257 349 c 2,34,-1
 227 349 l 1,35,-1
 227 116 l 2,36,37
 227 70 227 70 241.5 55.5 c 128,-1,38
 256 41 256 41 305 41 c 0,39,40
 361 41 361 41 405.5 53.5 c 128,-1,41
 450 66 450 66 482.5 90 c 128,-1,42
 515 114 515 114 537 136.5 c 128,-1,43
 559 159 559 159 584 190 c 0,44,45
 591 199 591 199 594 203 c 1,46,-1
 627 188 l 1,47,-1
 557 0 l 1,48,-1
 32 0 l 1,0,-1
269 781 m 1,49,-1
 238 788 l 1,50,-1
 359 910 l 2,51,52
 395 946 395 946 414 946 c 0,53,54
 428 946 428 946 438.5 935.5 c 128,-1,55
 449 925 449 925 449 911 c 0,56,57
 449 896 449 896 439 886.5 c 128,-1,58
 429 877 429 877 409 865 c 2,59,-1
 269 781 l 1,49,-1
EndSplineSet
EndChar

StartChar: Ecircumflex
Encoding: 202 202 140
Width: 670
GlyphClass: 1
Flags: W
LayerCount: 2
Fore
SplineSet
32 0 m 1,0,-1
 32 42 l 1,1,-1
 55 42 l 2,2,3
 97 42 97 42 111.5 58.5 c 128,-1,4
 126 75 126 75 126 131 c 2,5,-1
 126 599 l 2,6,7
 126 646 126 646 111.5 662.5 c 128,-1,8
 97 679 97 679 56 679 c 2,9,-1
 32 679 l 1,10,-1
 32 721 l 1,11,-1
 542 721 l 1,12,-1
 605 546 l 1,13,-1
 568 533 l 1,14,15
 507 619 507 619 453 649 c 128,-1,16
 399 679 399 679 315 679 c 0,17,18
 264 679 264 679 245.5 666.5 c 128,-1,19
 227 654 227 654 227 615 c 2,20,-1
 227 391 l 1,21,-1
 257 391 l 2,22,23
 317 391 317 391 348 404.5 c 128,-1,24
 379 418 379 418 390.5 440.5 c 128,-1,25
 402 463 402 463 412 511 c 1,26,-1
 453 511 l 1,27,-1
 453 225 l 1,28,-1
 413 225 l 1,29,30
 406 263 406 263 399.5 281.5 c 128,-1,31
 393 300 393 300 377 318 c 128,-1,32
 361 336 361 336 332.5 342.5 c 128,-1,33
 304 349 304 349 257 349 c 2,34,-1
 227 349 l 1,35,-1
 227 116 l 2,36,37
 227 70 227 70 241.5 55.5 c 128,-1,38
 256 41 256 41 305 41 c 0,39,40
 361 41 361 41 405.5 53.5 c 128,-1,41
 450 66 450 66 482.5 90 c 128,-1,42
 515 114 515 114 537 136.5 c 128,-1,43
 559 159 559 159 584 190 c 0,44,45
 591 199 591 199 594 203 c 1,46,-1
 627 188 l 1,47,-1
 557 0 l 1,48,-1
 32 0 l 1,0,-1
171 781 m 1,49,-1
 285 944 l 1,50,-1
 329 944 l 1,51,-1
 442 781 l 1,52,-1
 407 781 l 1,53,-1
 307 885 l 1,54,-1
 208 781 l 1,55,-1
 171 781 l 1,49,-1
EndSplineSet
EndChar

StartChar: Edieresis
Encoding: 203 203 141
Width: 670
GlyphClass: 1
Flags: W
LayerCount: 2
Fore
SplineSet
32 0 m 1,0,-1
 32 42 l 1,1,-1
 55 42 l 2,2,3
 97 42 97 42 111.5 58.5 c 128,-1,4
 126 75 126 75 126 131 c 2,5,-1
 126 599 l 2,6,7
 126 646 126 646 111.5 662.5 c 128,-1,8
 97 679 97 679 56 679 c 2,9,-1
 32 679 l 1,10,-1
 32 721 l 1,11,-1
 542 721 l 1,12,-1
 605 546 l 1,13,-1
 568 533 l 1,14,15
 507 619 507 619 453 649 c 128,-1,16
 399 679 399 679 315 679 c 0,17,18
 264 679 264 679 245.5 666.5 c 128,-1,19
 227 654 227 654 227 615 c 2,20,-1
 227 391 l 1,21,-1
 257 391 l 2,22,23
 317 391 317 391 348 404.5 c 128,-1,24
 379 418 379 418 390.5 440.5 c 128,-1,25
 402 463 402 463 412 511 c 1,26,-1
 453 511 l 1,27,-1
 453 225 l 1,28,-1
 413 225 l 1,29,30
 406 263 406 263 399.5 281.5 c 128,-1,31
 393 300 393 300 377 318 c 128,-1,32
 361 336 361 336 332.5 342.5 c 128,-1,33
 304 349 304 349 257 349 c 2,34,-1
 227 349 l 1,35,-1
 227 116 l 2,36,37
 227 70 227 70 241.5 55.5 c 128,-1,38
 256 41 256 41 305 41 c 0,39,40
 361 41 361 41 405.5 53.5 c 128,-1,41
 450 66 450 66 482.5 90 c 128,-1,42
 515 114 515 114 537 136.5 c 128,-1,43
 559 159 559 159 584 190 c 0,44,45
 591 199 591 199 594 203 c 1,46,-1
 627 188 l 1,47,-1
 557 0 l 1,48,-1
 32 0 l 1,0,-1
395 810 m 128,-1,50
 373 810 373 810 357.5 825 c 128,-1,51
 342 840 342 840 342 863 c 128,-1,52
 342 886 342 886 357.5 900 c 128,-1,53
 373 914 373 914 395 914 c 128,-1,54
 417 914 417 914 432 900 c 128,-1,55
 447 886 447 886 447 863 c 128,-1,56
 447 840 447 840 432 825 c 128,-1,49
 417 810 417 810 395 810 c 128,-1,50
223 810 m 128,-1,58
 201 810 201 810 185.5 825 c 128,-1,59
 170 840 170 840 170 863 c 128,-1,60
 170 886 170 886 185.5 900 c 128,-1,61
 201 914 201 914 223 914 c 128,-1,62
 245 914 245 914 260 900 c 128,-1,63
 275 886 275 886 275 863 c 128,-1,64
 275 840 275 840 260 825 c 128,-1,57
 245 810 245 810 223 810 c 128,-1,58
EndSplineSet
EndChar

StartChar: Igrave
Encoding: 204 204 142
Width: 354
GlyphClass: 1
Flags: W
LayerCount: 2
Fore
SplineSet
32 0 m 1,0,-1
 32 42 l 1,1,-1
 55 42 l 2,2,3
 97 42 97 42 111.5 58.5 c 128,-1,4
 126 75 126 75 126 131 c 2,5,-1
 126 599 l 2,6,7
 126 646 126 646 111.5 662.5 c 128,-1,8
 97 679 97 679 56 679 c 2,9,-1
 32 679 l 1,10,-1
 32 721 l 1,11,-1
 321 721 l 1,12,-1
 321 679 l 1,13,-1
 297 679 l 2,14,15
 256 679 256 679 241.5 662.5 c 128,-1,16
 227 646 227 646 227 599 c 2,17,-1
 227 131 l 2,18,19
 227 75 227 75 241.5 58.5 c 128,-1,20
 256 42 256 42 298 42 c 2,21,-1
 321 42 l 1,22,-1
 321 0 l 1,23,-1
 32 0 l 1,0,-1
86 865 m 2,24,25
 73 873 73 873 66 877.5 c 128,-1,26
 59 882 59 882 52.5 891.5 c 128,-1,27
 46 901 46 901 46 911 c 0,28,29
 46 925 46 925 56.5 935.5 c 128,-1,30
 67 946 67 946 82 946 c 0,31,32
 100 946 100 946 136 910 c 2,33,-1
 257 788 l 1,34,-1
 225 781 l 1,35,-1
 86 865 l 2,24,25
EndSplineSet
EndChar

StartChar: Iacute
Encoding: 205 205 143
Width: 354
GlyphClass: 1
Flags: W
LayerCount: 2
Fore
SplineSet
32 0 m 1,0,-1
 32 42 l 1,1,-1
 55 42 l 2,2,3
 97 42 97 42 111.5 58.5 c 128,-1,4
 126 75 126 75 126 131 c 2,5,-1
 126 599 l 2,6,7
 126 646 126 646 111.5 662.5 c 128,-1,8
 97 679 97 679 56 679 c 2,9,-1
 32 679 l 1,10,-1
 32 721 l 1,11,-1
 321 721 l 1,12,-1
 321 679 l 1,13,-1
 297 679 l 2,14,15
 256 679 256 679 241.5 662.5 c 128,-1,16
 227 646 227 646 227 599 c 2,17,-1
 227 131 l 2,18,19
 227 75 227 75 241.5 58.5 c 128,-1,20
 256 42 256 42 298 42 c 2,21,-1
 321 42 l 1,22,-1
 321 0 l 1,23,-1
 32 0 l 1,0,-1
138 781 m 1,24,-1
 107 788 l 1,25,-1
 228 910 l 2,26,27
 264 946 264 946 283 946 c 0,28,29
 297 946 297 946 307.5 935.5 c 128,-1,30
 318 925 318 925 318 911 c 0,31,32
 318 896 318 896 308 886.5 c 128,-1,33
 298 877 298 877 278 865 c 2,34,-1
 138 781 l 1,24,-1
EndSplineSet
EndChar

StartChar: Icircumflex
Encoding: 206 206 144
Width: 354
GlyphClass: 1
Flags: W
LayerCount: 2
Fore
SplineSet
32 0 m 1,0,-1
 32 42 l 1,1,-1
 55 42 l 2,2,3
 97 42 97 42 111.5 58.5 c 128,-1,4
 126 75 126 75 126 131 c 2,5,-1
 126 599 l 2,6,7
 126 646 126 646 111.5 662.5 c 128,-1,8
 97 679 97 679 56 679 c 2,9,-1
 32 679 l 1,10,-1
 32 721 l 1,11,-1
 321 721 l 1,12,-1
 321 679 l 1,13,-1
 297 679 l 2,14,15
 256 679 256 679 241.5 662.5 c 128,-1,16
 227 646 227 646 227 599 c 2,17,-1
 227 131 l 2,18,19
 227 75 227 75 241.5 58.5 c 128,-1,20
 256 42 256 42 298 42 c 2,21,-1
 321 42 l 1,22,-1
 321 0 l 1,23,-1
 32 0 l 1,0,-1
40 781 m 1,24,-1
 154 944 l 1,25,-1
 198 944 l 1,26,-1
 311 781 l 1,27,-1
 276 781 l 1,28,-1
 176 885 l 1,29,-1
 77 781 l 1,30,-1
 40 781 l 1,24,-1
EndSplineSet
EndChar

StartChar: Idieresis
Encoding: 207 207 145
Width: 354
GlyphClass: 1
Flags: W
LayerCount: 2
Fore
SplineSet
32 0 m 1,0,-1
 32 42 l 1,1,-1
 55 42 l 2,2,3
 97 42 97 42 111.5 58.5 c 128,-1,4
 126 75 126 75 126 131 c 2,5,-1
 126 599 l 2,6,7
 126 646 126 646 111.5 662.5 c 128,-1,8
 97 679 97 679 56 679 c 2,9,-1
 32 679 l 1,10,-1
 32 721 l 1,11,-1
 321 721 l 1,12,-1
 321 679 l 1,13,-1
 297 679 l 2,14,15
 256 679 256 679 241.5 662.5 c 128,-1,16
 227 646 227 646 227 599 c 2,17,-1
 227 131 l 2,18,19
 227 75 227 75 241.5 58.5 c 128,-1,20
 256 42 256 42 298 42 c 2,21,-1
 321 42 l 1,22,-1
 321 0 l 1,23,-1
 32 0 l 1,0,-1
264 810 m 128,-1,25
 242 810 242 810 226.5 825 c 128,-1,26
 211 840 211 840 211 863 c 128,-1,27
 211 886 211 886 226.5 900 c 128,-1,28
 242 914 242 914 264 914 c 128,-1,29
 286 914 286 914 301 900 c 128,-1,30
 316 886 316 886 316 863 c 128,-1,31
 316 840 316 840 301 825 c 128,-1,24
 286 810 286 810 264 810 c 128,-1,25
92 810 m 128,-1,33
 70 810 70 810 54.5 825 c 128,-1,34
 39 840 39 840 39 863 c 128,-1,35
 39 886 39 886 54.5 900 c 128,-1,36
 70 914 70 914 92 914 c 128,-1,37
 114 914 114 914 129 900 c 128,-1,38
 144 886 144 886 144 863 c 128,-1,39
 144 840 144 840 129 825 c 128,-1,32
 114 810 114 810 92 810 c 128,-1,33
EndSplineSet
EndChar

StartChar: Eth
Encoding: 208 208 146
Width: 721
GlyphClass: 1
Flags: W
LayerCount: 2
Fore
SplineSet
31 346 m 1,0,-1
 31 388 l 1,1,-1
 126 388 l 1,2,-1
 126 599 l 2,3,4
 126 646 126 646 111.5 662.5 c 128,-1,5
 97 679 97 679 56 679 c 2,6,-1
 32 679 l 1,7,-1
 32 721 l 1,8,-1
 294 721 l 2,9,10
 424 721 424 721 492 689 c 0,11,12
 519 676 519 676 545 656 c 128,-1,13
 571 636 571 636 604 598.5 c 128,-1,14
 637 561 637 561 657.5 500 c 128,-1,15
 678 439 678 439 678 365 c 0,16,17
 678 288 678 288 654 223.5 c 128,-1,18
 630 159 630 159 606 129 c 128,-1,19
 582 99 582 99 555 76 c 0,20,21
 462 0 462 0 291 0 c 2,22,-1
 32 0 l 1,23,-1
 32 42 l 1,24,-1
 55 42 l 2,25,26
 97 42 97 42 111.5 58.5 c 128,-1,27
 126 75 126 75 126 131 c 2,28,-1
 126 346 l 1,29,-1
 31 346 l 1,0,-1
316 40 m 0,30,31
 356 40 356 40 386.5 45.5 c 128,-1,32
 417 51 417 51 452.5 70.5 c 128,-1,33
 488 90 488 90 511.5 124.5 c 128,-1,34
 535 159 535 159 550.5 221 c 128,-1,35
 566 283 566 283 566 369 c 0,36,37
 566 531 566 531 508 606 c 128,-1,38
 450 681 450 681 320 681 c 0,39,40
 265 681 265 681 246 664 c 128,-1,41
 227 647 227 647 227 597 c 2,42,-1
 227 388 l 1,43,-1
 413 388 l 1,44,-1
 413 346 l 1,45,-1
 227 346 l 1,46,-1
 227 136 l 2,47,48
 227 75 227 75 243.5 57.5 c 128,-1,49
 260 40 260 40 316 40 c 0,30,31
EndSplineSet
EndChar

StartChar: Ntilde
Encoding: 209 209 147
Width: 738
GlyphClass: 1
Flags: W
LayerCount: 2
Fore
SplineSet
586 -14 m 1,0,-1
 177 591 l 1,1,-1
 177 182 l 2,2,3
 177 106 177 106 196.5 74 c 128,-1,4
 216 42 216 42 271 42 c 1,5,-1
 271 0 l 1,6,-1
 32 0 l 1,7,-1
 32 42 l 1,8,9
 86 42 86 42 106 73.5 c 128,-1,10
 126 105 126 105 126 171 c 2,11,-1
 126 637 l 1,12,13
 92 677 92 677 32 677 c 1,14,-1
 32 721 l 1,15,-1
 202 721 l 1,16,-1
 569 194 l 1,17,-1
 569 545 l 2,18,19
 569 619 569 619 551 646.5 c 128,-1,20
 533 674 533 674 475 679 c 1,21,-1
 475 721 l 1,22,-1
 714 721 l 1,23,-1
 714 679 l 1,24,25
 657 676 657 676 638 646.5 c 128,-1,26
 619 617 619 617 619 550 c 2,27,-1
 619 -14 l 1,28,-1
 586 -14 l 1,0,-1
432 804 m 0,29,30
 413 804 413 804 359.5 830 c 128,-1,31
 306 856 306 856 294 856 c 0,32,33
 273 856 273 856 260 810 c 1,34,-1
 225 821 l 1,35,36
 254 921 254 921 298 921 c 0,37,38
 317 921 317 921 370.5 895 c 128,-1,39
 424 869 424 869 436 869 c 0,40,41
 459 869 459 869 471 916 c 1,42,-1
 506 904 l 1,43,44
 477 804 477 804 432 804 c 0,29,30
EndSplineSet
EndChar

StartChar: Ograve
Encoding: 210 210 148
Width: 707
GlyphClass: 1
Flags: W
LayerCount: 2
Fore
SplineSet
354 -14 m 128,-1,1
 226 -14 226 -14 134.5 96 c 128,-1,2
 43 206 43 206 43 361 c 128,-1,3
 43 516 43 516 134.5 625.5 c 128,-1,4
 226 735 226 735 354 735 c 128,-1,5
 482 735 482 735 573 625.5 c 128,-1,6
 664 516 664 516 664 361 c 128,-1,7
 664 206 664 206 573 96 c 128,-1,0
 482 -14 482 -14 354 -14 c 128,-1,1
353 26 m 0,8,9
 440 26 440 26 496 117 c 128,-1,10
 552 208 552 208 552 362 c 0,11,12
 552 515 552 515 496 605 c 128,-1,13
 440 695 440 695 353 695 c 0,14,15
 267 695 267 695 211 605 c 128,-1,16
 155 515 155 515 155 362 c 0,17,18
 155 208 155 208 211 117 c 128,-1,19
 267 26 267 26 353 26 c 0,8,9
263 865 m 2,20,21
 250 873 250 873 243 877.5 c 128,-1,22
 236 882 236 882 229.5 891.5 c 128,-1,23
 223 901 223 901 223 911 c 0,24,25
 223 925 223 925 233.5 935.5 c 128,-1,26
 244 946 244 946 259 946 c 0,27,28
 277 946 277 946 313 910 c 2,29,-1
 434 788 l 1,30,-1
 402 781 l 1,31,-1
 263 865 l 2,20,21
EndSplineSet
EndChar

StartChar: Oacute
Encoding: 211 211 149
Width: 707
GlyphClass: 1
Flags: W
LayerCount: 2
Fore
SplineSet
354 -14 m 128,-1,1
 226 -14 226 -14 134.5 96 c 128,-1,2
 43 206 43 206 43 361 c 128,-1,3
 43 516 43 516 134.5 625.5 c 128,-1,4
 226 735 226 735 354 735 c 128,-1,5
 482 735 482 735 573 625.5 c 128,-1,6
 664 516 664 516 664 361 c 128,-1,7
 664 206 664 206 573 96 c 128,-1,0
 482 -14 482 -14 354 -14 c 128,-1,1
353 26 m 0,8,9
 440 26 440 26 496 117 c 128,-1,10
 552 208 552 208 552 362 c 0,11,12
 552 515 552 515 496 605 c 128,-1,13
 440 695 440 695 353 695 c 0,14,15
 267 695 267 695 211 605 c 128,-1,16
 155 515 155 515 155 362 c 0,17,18
 155 208 155 208 211 117 c 128,-1,19
 267 26 267 26 353 26 c 0,8,9
315 781 m 1,20,-1
 284 788 l 1,21,-1
 405 910 l 2,22,23
 441 946 441 946 460 946 c 0,24,25
 474 946 474 946 484.5 935.5 c 128,-1,26
 495 925 495 925 495 911 c 0,27,28
 495 896 495 896 485 886.5 c 128,-1,29
 475 877 475 877 455 865 c 2,30,-1
 315 781 l 1,20,-1
EndSplineSet
EndChar

StartChar: Ocircumflex
Encoding: 212 212 150
Width: 707
GlyphClass: 1
Flags: W
LayerCount: 2
Fore
SplineSet
354 -14 m 128,-1,1
 226 -14 226 -14 134.5 96 c 128,-1,2
 43 206 43 206 43 361 c 128,-1,3
 43 516 43 516 134.5 625.5 c 128,-1,4
 226 735 226 735 354 735 c 128,-1,5
 482 735 482 735 573 625.5 c 128,-1,6
 664 516 664 516 664 361 c 128,-1,7
 664 206 664 206 573 96 c 128,-1,0
 482 -14 482 -14 354 -14 c 128,-1,1
353 26 m 0,8,9
 440 26 440 26 496 117 c 128,-1,10
 552 208 552 208 552 362 c 0,11,12
 552 515 552 515 496 605 c 128,-1,13
 440 695 440 695 353 695 c 0,14,15
 267 695 267 695 211 605 c 128,-1,16
 155 515 155 515 155 362 c 0,17,18
 155 208 155 208 211 117 c 128,-1,19
 267 26 267 26 353 26 c 0,8,9
217 781 m 1,20,-1
 331 944 l 1,21,-1
 375 944 l 1,22,-1
 488 781 l 1,23,-1
 453 781 l 1,24,-1
 353 885 l 1,25,-1
 254 781 l 1,26,-1
 217 781 l 1,20,-1
EndSplineSet
EndChar

StartChar: Otilde
Encoding: 213 213 151
Width: 707
GlyphClass: 1
Flags: W
LayerCount: 2
Fore
SplineSet
354 -14 m 128,-1,1
 226 -14 226 -14 134.5 96 c 128,-1,2
 43 206 43 206 43 361 c 128,-1,3
 43 516 43 516 134.5 625.5 c 128,-1,4
 226 735 226 735 354 735 c 128,-1,5
 482 735 482 735 573 625.5 c 128,-1,6
 664 516 664 516 664 361 c 128,-1,7
 664 206 664 206 573 96 c 128,-1,0
 482 -14 482 -14 354 -14 c 128,-1,1
353 26 m 0,8,9
 440 26 440 26 496 117 c 128,-1,10
 552 208 552 208 552 362 c 0,11,12
 552 515 552 515 496 605 c 128,-1,13
 440 695 440 695 353 695 c 0,14,15
 267 695 267 695 211 605 c 128,-1,16
 155 515 155 515 155 362 c 0,17,18
 155 208 155 208 211 117 c 128,-1,19
 267 26 267 26 353 26 c 0,8,9
424 804 m 0,20,21
 405 804 405 804 351.5 830 c 128,-1,22
 298 856 298 856 286 856 c 0,23,24
 265 856 265 856 252 810 c 1,25,-1
 217 821 l 1,26,27
 246 921 246 921 290 921 c 0,28,29
 309 921 309 921 362.5 895 c 128,-1,30
 416 869 416 869 428 869 c 0,31,32
 451 869 451 869 463 916 c 1,33,-1
 498 904 l 1,34,35
 469 804 469 804 424 804 c 0,20,21
EndSplineSet
EndChar

StartChar: Odieresis
Encoding: 214 214 152
Width: 707
GlyphClass: 1
Flags: W
LayerCount: 2
Fore
SplineSet
354 -14 m 128,-1,1
 226 -14 226 -14 134.5 96 c 128,-1,2
 43 206 43 206 43 361 c 128,-1,3
 43 516 43 516 134.5 625.5 c 128,-1,4
 226 735 226 735 354 735 c 128,-1,5
 482 735 482 735 573 625.5 c 128,-1,6
 664 516 664 516 664 361 c 128,-1,7
 664 206 664 206 573 96 c 128,-1,0
 482 -14 482 -14 354 -14 c 128,-1,1
353 26 m 0,8,9
 440 26 440 26 496 117 c 128,-1,10
 552 208 552 208 552 362 c 0,11,12
 552 515 552 515 496 605 c 128,-1,13
 440 695 440 695 353 695 c 0,14,15
 267 695 267 695 211 605 c 128,-1,16
 155 515 155 515 155 362 c 0,17,18
 155 208 155 208 211 117 c 128,-1,19
 267 26 267 26 353 26 c 0,8,9
441 810 m 128,-1,21
 419 810 419 810 403.5 825 c 128,-1,22
 388 840 388 840 388 863 c 128,-1,23
 388 886 388 886 403.5 900 c 128,-1,24
 419 914 419 914 441 914 c 128,-1,25
 463 914 463 914 478 900 c 128,-1,26
 493 886 493 886 493 863 c 128,-1,27
 493 840 493 840 478 825 c 128,-1,20
 463 810 463 810 441 810 c 128,-1,21
269 810 m 128,-1,29
 247 810 247 810 231.5 825 c 128,-1,30
 216 840 216 840 216 863 c 128,-1,31
 216 886 216 886 231.5 900 c 128,-1,32
 247 914 247 914 269 914 c 128,-1,33
 291 914 291 914 306 900 c 128,-1,34
 321 886 321 886 321 863 c 128,-1,35
 321 840 321 840 306 825 c 128,-1,28
 291 810 291 810 269 810 c 128,-1,29
EndSplineSet
EndChar

StartChar: multiply
Encoding: 215 215 153
Width: 601
GlyphClass: 1
Flags: W
LayerCount: 2
Fore
SplineSet
112 3 m 1,0,-1
 62 53 l 1,1,-1
 252 239 l 1,2,-1
 62 428 l 1,3,-1
 114 478 l 1,4,-1
 301 289 l 1,5,-1
 488 478 l 1,6,-1
 539 428 l 1,7,-1
 349 239 l 1,8,-1
 539 53 l 1,9,-1
 489 3 l 1,10,-1
 301 190 l 1,11,-1
 112 3 l 1,0,-1
EndSplineSet
EndChar

StartChar: Oslash
Encoding: 216 216 154
Width: 707
GlyphClass: 1
Flags: W
LayerCount: 2
Fore
SplineSet
157 -39 m 1,0,-1
 122 -18 l 1,1,-1
 167 62 l 1,2,3
 110 114 110 114 76.5 192.5 c 128,-1,4
 43 271 43 271 43 361 c 0,5,6
 43 516 43 516 134.5 625.5 c 128,-1,7
 226 735 226 735 354 735 c 0,8,9
 441 735 441 735 515 680 c 1,10,-1
 550 743 l 1,11,-1
 586 723 l 1,12,-1
 547 653 l 1,13,14
 601 601 601 601 632.5 524.5 c 128,-1,15
 664 448 664 448 664 361 c 0,16,17
 664 206 664 206 573 96 c 128,-1,18
 482 -14 482 -14 354 -14 c 0,19,20
 271 -14 271 -14 199 36 c 1,21,-1
 157 -39 l 1,0,-1
353 26 m 0,22,23
 440 26 440 26 496 117 c 128,-1,24
 552 208 552 208 552 362 c 0,25,26
 552 496 552 496 508 584 c 1,27,-1
 230 90 l 1,28,29
 280 26 280 26 353 26 c 0,22,23
155 362 m 0,30,31
 155 220 155 220 204 128 c 1,32,-1
 483 624 l 1,33,34
 431 695 431 695 353 695 c 0,35,36
 267 695 267 695 211 605 c 128,-1,37
 155 515 155 515 155 362 c 0,30,31
EndSplineSet
EndChar

StartChar: Ugrave
Encoding: 217 217 155
Width: 757
GlyphClass: 1
Flags: W
LayerCount: 2
Fore
SplineSet
377 -16 m 0,0,1
 126 -16 126 -16 126 230 c 2,2,-1
 126 599 l 2,3,4
 126 646 126 646 111.5 662.5 c 128,-1,5
 97 679 97 679 56 679 c 2,6,-1
 32 679 l 1,7,-1
 32 721 l 1,8,-1
 321 721 l 1,9,-1
 321 679 l 1,10,-1
 297 679 l 2,11,12
 256 679 256 679 241.5 662.5 c 128,-1,13
 227 646 227 646 227 599 c 2,14,-1
 227 228 l 2,15,16
 227 139 227 139 266 90 c 0,17,18
 314 30 314 30 401 30 c 0,19,20
 457 30 457 30 500 54.5 c 128,-1,21
 543 79 543 79 562 131 c 0,22,23
 579 177 579 177 579 267 c 2,24,-1
 579 560 l 2,25,26
 579 624 579 624 558.5 650 c 128,-1,27
 538 676 538 676 485 679 c 1,28,-1
 485 721 l 1,29,-1
 724 721 l 1,30,-1
 724 679 l 1,31,32
 671 676 671 676 650.5 650 c 128,-1,33
 630 624 630 624 630 560 c 2,34,-1
 630 271 l 2,35,36
 630 160 630 160 604 103 c 0,37,38
 552 -16 552 -16 377 -16 c 0,0,1
287 865 m 2,39,40
 274 873 274 873 267 877.5 c 128,-1,41
 260 882 260 882 253.5 891.5 c 128,-1,42
 247 901 247 901 247 911 c 0,43,44
 247 925 247 925 257.5 935.5 c 128,-1,45
 268 946 268 946 283 946 c 0,46,47
 301 946 301 946 337 910 c 2,48,-1
 458 788 l 1,49,-1
 426 781 l 1,50,-1
 287 865 l 2,39,40
EndSplineSet
EndChar

StartChar: Uacute
Encoding: 218 218 156
Width: 757
GlyphClass: 1
Flags: W
LayerCount: 2
Fore
SplineSet
377 -16 m 0,0,1
 126 -16 126 -16 126 230 c 2,2,-1
 126 599 l 2,3,4
 126 646 126 646 111.5 662.5 c 128,-1,5
 97 679 97 679 56 679 c 2,6,-1
 32 679 l 1,7,-1
 32 721 l 1,8,-1
 321 721 l 1,9,-1
 321 679 l 1,10,-1
 297 679 l 2,11,12
 256 679 256 679 241.5 662.5 c 128,-1,13
 227 646 227 646 227 599 c 2,14,-1
 227 228 l 2,15,16
 227 139 227 139 266 90 c 0,17,18
 314 30 314 30 401 30 c 0,19,20
 457 30 457 30 500 54.5 c 128,-1,21
 543 79 543 79 562 131 c 0,22,23
 579 177 579 177 579 267 c 2,24,-1
 579 560 l 2,25,26
 579 624 579 624 558.5 650 c 128,-1,27
 538 676 538 676 485 679 c 1,28,-1
 485 721 l 1,29,-1
 724 721 l 1,30,-1
 724 679 l 1,31,32
 671 676 671 676 650.5 650 c 128,-1,33
 630 624 630 624 630 560 c 2,34,-1
 630 271 l 2,35,36
 630 160 630 160 604 103 c 0,37,38
 552 -16 552 -16 377 -16 c 0,0,1
339 781 m 1,39,-1
 308 788 l 1,40,-1
 429 910 l 2,41,42
 465 946 465 946 484 946 c 0,43,44
 498 946 498 946 508.5 935.5 c 128,-1,45
 519 925 519 925 519 911 c 0,46,47
 519 896 519 896 509 886.5 c 128,-1,48
 499 877 499 877 479 865 c 2,49,-1
 339 781 l 1,39,-1
EndSplineSet
EndChar

StartChar: Ucircumflex
Encoding: 219 219 157
Width: 757
GlyphClass: 1
Flags: W
LayerCount: 2
Fore
SplineSet
377 -16 m 0,0,1
 126 -16 126 -16 126 230 c 2,2,-1
 126 599 l 2,3,4
 126 646 126 646 111.5 662.5 c 128,-1,5
 97 679 97 679 56 679 c 2,6,-1
 32 679 l 1,7,-1
 32 721 l 1,8,-1
 321 721 l 1,9,-1
 321 679 l 1,10,-1
 297 679 l 2,11,12
 256 679 256 679 241.5 662.5 c 128,-1,13
 227 646 227 646 227 599 c 2,14,-1
 227 228 l 2,15,16
 227 139 227 139 266 90 c 0,17,18
 314 30 314 30 401 30 c 0,19,20
 457 30 457 30 500 54.5 c 128,-1,21
 543 79 543 79 562 131 c 0,22,23
 579 177 579 177 579 267 c 2,24,-1
 579 560 l 2,25,26
 579 624 579 624 558.5 650 c 128,-1,27
 538 676 538 676 485 679 c 1,28,-1
 485 721 l 1,29,-1
 724 721 l 1,30,-1
 724 679 l 1,31,32
 671 676 671 676 650.5 650 c 128,-1,33
 630 624 630 624 630 560 c 2,34,-1
 630 271 l 2,35,36
 630 160 630 160 604 103 c 0,37,38
 552 -16 552 -16 377 -16 c 0,0,1
241 781 m 1,39,-1
 355 944 l 1,40,-1
 399 944 l 1,41,-1
 512 781 l 1,42,-1
 477 781 l 1,43,-1
 377 885 l 1,44,-1
 278 781 l 1,45,-1
 241 781 l 1,39,-1
EndSplineSet
EndChar

StartChar: Udieresis
Encoding: 220 220 158
Width: 757
GlyphClass: 1
Flags: W
LayerCount: 2
Fore
SplineSet
377 -16 m 0,0,1
 126 -16 126 -16 126 230 c 2,2,-1
 126 599 l 2,3,4
 126 646 126 646 111.5 662.5 c 128,-1,5
 97 679 97 679 56 679 c 2,6,-1
 32 679 l 1,7,-1
 32 721 l 1,8,-1
 321 721 l 1,9,-1
 321 679 l 1,10,-1
 297 679 l 2,11,12
 256 679 256 679 241.5 662.5 c 128,-1,13
 227 646 227 646 227 599 c 2,14,-1
 227 228 l 2,15,16
 227 139 227 139 266 90 c 0,17,18
 314 30 314 30 401 30 c 0,19,20
 457 30 457 30 500 54.5 c 128,-1,21
 543 79 543 79 562 131 c 0,22,23
 579 177 579 177 579 267 c 2,24,-1
 579 560 l 2,25,26
 579 624 579 624 558.5 650 c 128,-1,27
 538 676 538 676 485 679 c 1,28,-1
 485 721 l 1,29,-1
 724 721 l 1,30,-1
 724 679 l 1,31,32
 671 676 671 676 650.5 650 c 128,-1,33
 630 624 630 624 630 560 c 2,34,-1
 630 271 l 2,35,36
 630 160 630 160 604 103 c 0,37,38
 552 -16 552 -16 377 -16 c 0,0,1
465 810 m 128,-1,40
 443 810 443 810 427.5 825 c 128,-1,41
 412 840 412 840 412 863 c 128,-1,42
 412 886 412 886 427.5 900 c 128,-1,43
 443 914 443 914 465 914 c 128,-1,44
 487 914 487 914 502 900 c 128,-1,45
 517 886 517 886 517 863 c 128,-1,46
 517 840 517 840 502 825 c 128,-1,39
 487 810 487 810 465 810 c 128,-1,40
293 810 m 128,-1,48
 271 810 271 810 255.5 825 c 128,-1,49
 240 840 240 840 240 863 c 128,-1,50
 240 886 240 886 255.5 900 c 128,-1,51
 271 914 271 914 293 914 c 128,-1,52
 315 914 315 914 330 900 c 128,-1,53
 345 886 345 886 345 863 c 128,-1,54
 345 840 345 840 330 825 c 128,-1,47
 315 810 315 810 293 810 c 128,-1,48
EndSplineSet
EndChar

StartChar: Yacute
Encoding: 221 221 159
Width: 584
GlyphClass: 1
Flags: W
LayerCount: 2
Fore
SplineSet
143 0 m 1,0,-1
 143 42 l 1,1,-1
 165 42 l 2,2,3
 208 42 208 42 222.5 58.5 c 128,-1,4
 237 75 237 75 237 131 c 2,5,-1
 237 295 l 1,6,-1
 79 610 l 2,7,8
 76 616 76 616 70.5 628 c 128,-1,9
 65 640 65 640 62.5 644 c 128,-1,10
 60 648 60 648 55 656 c 128,-1,11
 50 664 50 664 45.5 666.5 c 128,-1,12
 41 669 41 669 33 673 c 128,-1,13
 25 677 25 677 15 678 c 128,-1,14
 5 679 5 679 -8 679 c 1,15,-1
 -8 721 l 1,16,-1
 244 721 l 1,17,-1
 244 679 l 1,18,19
 169 679 169 679 169 661 c 0,20,21
 169 649 169 649 189 609 c 2,22,-1
 314 358 l 1,23,-1
 430 600 l 2,24,25
 443 628 443 628 443 643 c 0,26,27
 443 679 443 679 376 679 c 2,28,-1
 369 679 l 1,29,-1
 369 721 l 1,30,-1
 590 721 l 1,31,-1
 590 679 l 1,32,33
 546 674 546 674 529 659 c 128,-1,34
 512 644 512 644 486 594 c 2,35,-1
 337 308 l 1,36,-1
 337 131 l 2,37,38
 337 75 337 75 351.5 58.5 c 128,-1,39
 366 42 366 42 409 42 c 2,40,-1
 431 42 l 1,41,-1
 431 0 l 1,42,-1
 143 0 l 1,0,-1
253 759 m 1,43,-1
 222 766 l 1,44,-1
 343 888 l 2,45,46
 379 924 379 924 398 924 c 0,47,48
 412 924 412 924 422.5 913.5 c 128,-1,49
 433 903 433 903 433 889 c 0,50,51
 433 874 433 874 423 864.5 c 128,-1,52
 413 855 413 855 393 843 c 2,53,-1
 253 759 l 1,43,-1
EndSplineSet
EndChar

StartChar: Thorn
Encoding: 222 222 160
Width: 621
GlyphClass: 1
Flags: W
LayerCount: 2
Fore
SplineSet
32 0 m 1,0,-1
 32 42 l 1,1,-1
 55 42 l 2,2,3
 97 42 97 42 111.5 58.5 c 128,-1,4
 126 75 126 75 126 131 c 2,5,-1
 126 599 l 2,6,7
 126 646 126 646 111.5 662.5 c 128,-1,8
 97 679 97 679 56 679 c 2,9,-1
 32 679 l 1,10,-1
 32 721 l 1,11,-1
 328 721 l 1,12,-1
 328 679 l 1,13,-1
 297 679 l 2,14,15
 256 679 256 679 241.5 662.5 c 128,-1,16
 227 646 227 646 227 599 c 2,17,-1
 227 559 l 1,18,-1
 294 559 l 2,19,20
 399 559 399 559 457 538 c 0,21,22
 507 520 507 520 547.5 476 c 128,-1,23
 588 432 588 432 588 361 c 0,24,25
 588 253 588 253 493 203 c 0,26,27
 464 188 464 188 421.5 180 c 128,-1,28
 379 172 379 172 349 171 c 128,-1,29
 319 170 319 170 261 170 c 2,30,-1
 227 170 l 1,31,-1
 227 131 l 2,32,33
 227 75 227 75 241.5 58.5 c 128,-1,34
 256 42 256 42 298 42 c 2,35,-1
 328 42 l 1,36,-1
 328 0 l 1,37,-1
 32 0 l 1,0,-1
285 214 m 2,38,39
 318 214 318 214 336.5 215 c 128,-1,40
 355 216 355 216 385.5 224 c 128,-1,41
 416 232 416 232 433 246.5 c 128,-1,42
 450 261 450 261 463.5 291 c 128,-1,43
 477 321 477 321 477 364 c 0,44,45
 477 519 477 519 321 519 c 0,46,47
 251 519 251 519 236 494 c 0,48,49
 227 479 227 479 227 449 c 2,50,-1
 227 214 l 1,51,-1
 285 214 l 2,38,39
EndSplineSet
EndChar

StartChar: germandbls
Encoding: 223 223 161
Width: 549
GlyphClass: 1
Flags: W
LayerCount: 2
Fore
SplineSet
358 -14 m 0,0,1
 293 -14 293 -14 258.5 15 c 128,-1,2
 224 44 224 44 224 80 c 0,3,4
 224 100 224 100 235 112 c 128,-1,5
 246 124 246 124 267 124 c 0,6,7
 307 124 307 124 307 82 c 0,8,9
 307 28 307 28 362 28 c 0,10,11
 398 28 398 28 418.5 54.5 c 128,-1,12
 439 81 439 81 439 127 c 0,13,14
 439 169 439 169 421.5 202.5 c 128,-1,15
 404 236 404 236 379.5 257.5 c 128,-1,16
 355 279 355 279 330.5 297.5 c 128,-1,17
 306 316 306 316 288.5 337.5 c 128,-1,18
 271 359 271 359 271 383 c 0,19,20
 271 403 271 403 284 420 c 128,-1,21
 297 437 297 437 315 450 c 128,-1,22
 333 463 333 463 351 478.5 c 128,-1,23
 369 494 369 494 382 519.5 c 128,-1,24
 395 545 395 545 395 579 c 0,25,26
 395 630 395 630 367.5 664 c 128,-1,27
 340 698 340 698 289 698 c 0,28,29
 230 698 230 698 197 654 c 128,-1,30
 164 610 164 610 166 543 c 2,31,-1
 168 468 l 1,32,-1
 168 0 l 1,33,-1
 23 0 l 1,34,-1
 23 40 l 1,35,36
 61 40 61 40 72.5 52 c 128,-1,37
 84 64 84 64 84 95 c 2,38,-1
 84 479 l 2,39,40
 84 735 84 735 289 735 c 0,41,42
 373 735 373 735 421.5 695 c 128,-1,43
 470 655 470 655 470 588 c 0,44,45
 470 549 470 549 452 518.5 c 128,-1,46
 434 488 434 488 412.5 473 c 128,-1,47
 391 458 391 458 373 441.5 c 128,-1,48
 355 425 355 425 355 410 c 128,-1,49
 355 395 355 395 372.5 377 c 128,-1,50
 390 359 390 359 415 339.5 c 128,-1,51
 440 320 440 320 465.5 295.5 c 128,-1,52
 491 271 491 271 508.5 234.5 c 128,-1,53
 526 198 526 198 526 155 c 0,54,55
 526 85 526 85 483.5 35.5 c 128,-1,56
 441 -14 441 -14 358 -14 c 0,0,1
EndSplineSet
Substitution2: "<3,3> Small Caps in Latin lookup 11 subtable" germandbls.sc
EndChar

StartChar: agrave
Encoding: 224 224 162
Width: 468
GlyphClass: 1
Flags: W
LayerCount: 2
Fore
SplineSet
163 -14 m 0,0,1
 119 -14 119 -14 78.5 12.5 c 128,-1,2
 38 39 38 39 38 98 c 0,3,4
 38 139 38 139 59 170.5 c 128,-1,5
 80 202 80 202 121.5 225 c 128,-1,6
 163 248 163 248 201.5 262 c 128,-1,7
 240 276 240 276 299 292 c 1,8,-1
 299 355 l 2,9,10
 299 441 299 441 231 441 c 0,11,12
 202 441 202 441 184.5 424 c 128,-1,13
 167 407 167 407 161.5 386.5 c 128,-1,14
 156 366 156 366 142 349 c 128,-1,15
 128 332 128 332 104 332 c 0,16,17
 82 332 82 332 68 345.5 c 128,-1,18
 54 359 54 359 54 380 c 0,19,20
 54 422 54 422 107.5 452 c 128,-1,21
 161 482 161 482 237 482 c 0,22,23
 282 482 282 482 312.5 471 c 128,-1,24
 343 460 343 460 357.5 439.5 c 128,-1,25
 372 419 372 419 377.5 398 c 128,-1,26
 383 377 383 377 383 350 c 2,27,-1
 383 95 l 2,28,29
 383 39 383 39 398 39 c 0,30,31
 403 39 403 39 427 57 c 1,32,-1
 451 35 l 1,33,34
 418 -14 418 -14 365 -14 c 128,-1,35
 312 -14 312 -14 304 46 c 1,36,37
 220 -14 220 -14 163 -14 c 0,0,1
193 37 m 0,38,39
 242 37 242 37 299 83 c 1,40,-1
 299 252 l 1,41,42
 130 194 130 194 130 104 c 0,43,44
 130 75 130 75 147 56 c 128,-1,45
 164 37 164 37 193 37 c 0,38,39
128 610 m 2,46,47
 115 618 115 618 108 622.5 c 128,-1,48
 101 627 101 627 94.5 636.5 c 128,-1,49
 88 646 88 646 88 656 c 0,50,51
 88 670 88 670 98.5 680.5 c 128,-1,52
 109 691 109 691 124 691 c 0,53,54
 142 691 142 691 178 655 c 2,55,-1
 299 533 l 1,56,-1
 267 526 l 1,57,-1
 128 610 l 2,46,47
EndSplineSet
Substitution2: "<3,3> Small Caps in Latin lookup 11 subtable" agrave.sc
EndChar

StartChar: aacute
Encoding: 225 225 163
Width: 468
GlyphClass: 1
Flags: W
LayerCount: 2
Fore
SplineSet
163 -14 m 0,0,1
 119 -14 119 -14 78.5 12.5 c 128,-1,2
 38 39 38 39 38 98 c 0,3,4
 38 139 38 139 59 170.5 c 128,-1,5
 80 202 80 202 121.5 225 c 128,-1,6
 163 248 163 248 201.5 262 c 128,-1,7
 240 276 240 276 299 292 c 1,8,-1
 299 355 l 2,9,10
 299 441 299 441 231 441 c 0,11,12
 202 441 202 441 184.5 424 c 128,-1,13
 167 407 167 407 161.5 386.5 c 128,-1,14
 156 366 156 366 142 349 c 128,-1,15
 128 332 128 332 104 332 c 0,16,17
 82 332 82 332 68 345.5 c 128,-1,18
 54 359 54 359 54 380 c 0,19,20
 54 422 54 422 107.5 452 c 128,-1,21
 161 482 161 482 237 482 c 0,22,23
 282 482 282 482 312.5 471 c 128,-1,24
 343 460 343 460 357.5 439.5 c 128,-1,25
 372 419 372 419 377.5 398 c 128,-1,26
 383 377 383 377 383 350 c 2,27,-1
 383 95 l 2,28,29
 383 39 383 39 398 39 c 0,30,31
 403 39 403 39 427 57 c 1,32,-1
 451 35 l 1,33,34
 418 -14 418 -14 365 -14 c 128,-1,35
 312 -14 312 -14 304 46 c 1,36,37
 220 -14 220 -14 163 -14 c 0,0,1
193 37 m 0,38,39
 242 37 242 37 299 83 c 1,40,-1
 299 252 l 1,41,42
 130 194 130 194 130 104 c 0,43,44
 130 75 130 75 147 56 c 128,-1,45
 164 37 164 37 193 37 c 0,38,39
180 526 m 1,46,-1
 149 533 l 1,47,-1
 270 655 l 2,48,49
 306 691 306 691 325 691 c 0,50,51
 339 691 339 691 349.5 680.5 c 128,-1,52
 360 670 360 670 360 656 c 0,53,54
 360 641 360 641 350 631.5 c 128,-1,55
 340 622 340 622 320 610 c 2,56,-1
 180 526 l 1,46,-1
EndSplineSet
Substitution2: "<3,3> Small Caps in Latin lookup 11 subtable" aacute.sc
EndChar

StartChar: acircumflex
Encoding: 226 226 164
Width: 468
GlyphClass: 1
Flags: W
LayerCount: 2
Fore
SplineSet
163 -14 m 0,0,1
 119 -14 119 -14 78.5 12.5 c 128,-1,2
 38 39 38 39 38 98 c 0,3,4
 38 139 38 139 59 170.5 c 128,-1,5
 80 202 80 202 121.5 225 c 128,-1,6
 163 248 163 248 201.5 262 c 128,-1,7
 240 276 240 276 299 292 c 1,8,-1
 299 355 l 2,9,10
 299 441 299 441 231 441 c 0,11,12
 202 441 202 441 184.5 424 c 128,-1,13
 167 407 167 407 161.5 386.5 c 128,-1,14
 156 366 156 366 142 349 c 128,-1,15
 128 332 128 332 104 332 c 0,16,17
 82 332 82 332 68 345.5 c 128,-1,18
 54 359 54 359 54 380 c 0,19,20
 54 422 54 422 107.5 452 c 128,-1,21
 161 482 161 482 237 482 c 0,22,23
 282 482 282 482 312.5 471 c 128,-1,24
 343 460 343 460 357.5 439.5 c 128,-1,25
 372 419 372 419 377.5 398 c 128,-1,26
 383 377 383 377 383 350 c 2,27,-1
 383 95 l 2,28,29
 383 39 383 39 398 39 c 0,30,31
 403 39 403 39 427 57 c 1,32,-1
 451 35 l 1,33,34
 418 -14 418 -14 365 -14 c 128,-1,35
 312 -14 312 -14 304 46 c 1,36,37
 220 -14 220 -14 163 -14 c 0,0,1
193 37 m 0,38,39
 242 37 242 37 299 83 c 1,40,-1
 299 252 l 1,41,42
 130 194 130 194 130 104 c 0,43,44
 130 75 130 75 147 56 c 128,-1,45
 164 37 164 37 193 37 c 0,38,39
82 526 m 1,46,-1
 196 689 l 1,47,-1
 240 689 l 1,48,-1
 353 526 l 1,49,-1
 318 526 l 1,50,-1
 218 630 l 1,51,-1
 119 526 l 1,52,-1
 82 526 l 1,46,-1
EndSplineSet
Substitution2: "<3,3> Small Caps in Latin lookup 11 subtable" acircumflex.sc
EndChar

StartChar: atilde
Encoding: 227 227 165
Width: 468
GlyphClass: 1
Flags: W
LayerCount: 2
Fore
SplineSet
163 -14 m 0,0,1
 119 -14 119 -14 78.5 12.5 c 128,-1,2
 38 39 38 39 38 98 c 0,3,4
 38 139 38 139 59 170.5 c 128,-1,5
 80 202 80 202 121.5 225 c 128,-1,6
 163 248 163 248 201.5 262 c 128,-1,7
 240 276 240 276 299 292 c 1,8,-1
 299 355 l 2,9,10
 299 441 299 441 231 441 c 0,11,12
 202 441 202 441 184.5 424 c 128,-1,13
 167 407 167 407 161.5 386.5 c 128,-1,14
 156 366 156 366 142 349 c 128,-1,15
 128 332 128 332 104 332 c 0,16,17
 82 332 82 332 68 345.5 c 128,-1,18
 54 359 54 359 54 380 c 0,19,20
 54 422 54 422 107.5 452 c 128,-1,21
 161 482 161 482 237 482 c 0,22,23
 282 482 282 482 312.5 471 c 128,-1,24
 343 460 343 460 357.5 439.5 c 128,-1,25
 372 419 372 419 377.5 398 c 128,-1,26
 383 377 383 377 383 350 c 2,27,-1
 383 95 l 2,28,29
 383 39 383 39 398 39 c 0,30,31
 403 39 403 39 427 57 c 1,32,-1
 451 35 l 1,33,34
 418 -14 418 -14 365 -14 c 128,-1,35
 312 -14 312 -14 304 46 c 1,36,37
 220 -14 220 -14 163 -14 c 0,0,1
193 37 m 0,38,39
 242 37 242 37 299 83 c 1,40,-1
 299 252 l 1,41,42
 130 194 130 194 130 104 c 0,43,44
 130 75 130 75 147 56 c 128,-1,45
 164 37 164 37 193 37 c 0,38,39
289 549 m 0,46,47
 270 549 270 549 216.5 575 c 128,-1,48
 163 601 163 601 151 601 c 0,49,50
 130 601 130 601 117 555 c 1,51,-1
 82 566 l 1,52,53
 111 666 111 666 155 666 c 0,54,55
 174 666 174 666 227.5 640 c 128,-1,56
 281 614 281 614 293 614 c 0,57,58
 316 614 316 614 328 661 c 1,59,-1
 363 649 l 1,60,61
 334 549 334 549 289 549 c 0,46,47
EndSplineSet
Substitution2: "<3,3> Small Caps in Latin lookup 11 subtable" atilde.sc
EndChar

StartChar: adieresis
Encoding: 228 228 166
Width: 468
GlyphClass: 1
Flags: W
LayerCount: 2
Fore
SplineSet
163 -14 m 0,0,1
 119 -14 119 -14 78.5 12.5 c 128,-1,2
 38 39 38 39 38 98 c 0,3,4
 38 139 38 139 59 170.5 c 128,-1,5
 80 202 80 202 121.5 225 c 128,-1,6
 163 248 163 248 201.5 262 c 128,-1,7
 240 276 240 276 299 292 c 1,8,-1
 299 355 l 2,9,10
 299 441 299 441 231 441 c 0,11,12
 202 441 202 441 184.5 424 c 128,-1,13
 167 407 167 407 161.5 386.5 c 128,-1,14
 156 366 156 366 142 349 c 128,-1,15
 128 332 128 332 104 332 c 0,16,17
 82 332 82 332 68 345.5 c 128,-1,18
 54 359 54 359 54 380 c 0,19,20
 54 422 54 422 107.5 452 c 128,-1,21
 161 482 161 482 237 482 c 0,22,23
 282 482 282 482 312.5 471 c 128,-1,24
 343 460 343 460 357.5 439.5 c 128,-1,25
 372 419 372 419 377.5 398 c 128,-1,26
 383 377 383 377 383 350 c 2,27,-1
 383 95 l 2,28,29
 383 39 383 39 398 39 c 0,30,31
 403 39 403 39 427 57 c 1,32,-1
 451 35 l 1,33,34
 418 -14 418 -14 365 -14 c 128,-1,35
 312 -14 312 -14 304 46 c 1,36,37
 220 -14 220 -14 163 -14 c 0,0,1
193 37 m 0,38,39
 242 37 242 37 299 83 c 1,40,-1
 299 252 l 1,41,42
 130 194 130 194 130 104 c 0,43,44
 130 75 130 75 147 56 c 128,-1,45
 164 37 164 37 193 37 c 0,38,39
306 555 m 128,-1,47
 284 555 284 555 268.5 570 c 128,-1,48
 253 585 253 585 253 608 c 128,-1,49
 253 631 253 631 268.5 645 c 128,-1,50
 284 659 284 659 306 659 c 128,-1,51
 328 659 328 659 343 645 c 128,-1,52
 358 631 358 631 358 608 c 128,-1,53
 358 585 358 585 343 570 c 128,-1,46
 328 555 328 555 306 555 c 128,-1,47
134 555 m 128,-1,55
 112 555 112 555 96.5 570 c 128,-1,56
 81 585 81 585 81 608 c 128,-1,57
 81 631 81 631 96.5 645 c 128,-1,58
 112 659 112 659 134 659 c 128,-1,59
 156 659 156 659 171 645 c 128,-1,60
 186 631 186 631 186 608 c 128,-1,61
 186 585 186 585 171 570 c 128,-1,54
 156 555 156 555 134 555 c 128,-1,55
EndSplineSet
Substitution2: "<3,3> Small Caps in Latin lookup 11 subtable" adieresis.sc
EndChar

StartChar: aring
Encoding: 229 229 167
Width: 468
GlyphClass: 1
Flags: W
LayerCount: 2
Fore
SplineSet
163 -14 m 0,0,1
 119 -14 119 -14 78.5 12.5 c 128,-1,2
 38 39 38 39 38 98 c 0,3,4
 38 139 38 139 59 170.5 c 128,-1,5
 80 202 80 202 121.5 225 c 128,-1,6
 163 248 163 248 201.5 262 c 128,-1,7
 240 276 240 276 299 292 c 1,8,-1
 299 355 l 2,9,10
 299 441 299 441 231 441 c 0,11,12
 202 441 202 441 184.5 424 c 128,-1,13
 167 407 167 407 161.5 386.5 c 128,-1,14
 156 366 156 366 142 349 c 128,-1,15
 128 332 128 332 104 332 c 0,16,17
 82 332 82 332 68 345.5 c 128,-1,18
 54 359 54 359 54 380 c 0,19,20
 54 422 54 422 107.5 452 c 128,-1,21
 161 482 161 482 237 482 c 0,22,23
 282 482 282 482 312.5 471 c 128,-1,24
 343 460 343 460 357.5 439.5 c 128,-1,25
 372 419 372 419 377.5 398 c 128,-1,26
 383 377 383 377 383 350 c 2,27,-1
 383 95 l 2,28,29
 383 39 383 39 398 39 c 0,30,31
 403 39 403 39 427 57 c 1,32,-1
 451 35 l 1,33,34
 418 -14 418 -14 365 -14 c 128,-1,35
 312 -14 312 -14 304 46 c 1,36,37
 220 -14 220 -14 163 -14 c 0,0,1
193 37 m 0,38,39
 242 37 242 37 299 83 c 1,40,-1
 299 252 l 1,41,42
 130 194 130 194 130 104 c 0,43,44
 130 75 130 75 147 56 c 128,-1,45
 164 37 164 37 193 37 c 0,38,39
219 556 m 0,46,47
 185 556 185 556 159 580 c 128,-1,48
 133 604 133 604 133 643 c 128,-1,49
 133 682 133 682 159.5 705.5 c 128,-1,50
 186 729 186 729 221 729 c 0,51,52
 255 729 255 729 280.5 705 c 128,-1,53
 306 681 306 681 306 642 c 128,-1,54
 306 603 306 603 280 579.5 c 128,-1,55
 254 556 254 556 219 556 c 0,46,47
219 594 m 0,56,57
 241 594 241 594 254.5 608 c 128,-1,58
 268 622 268 622 268 642 c 128,-1,59
 268 662 268 662 255 676.5 c 128,-1,60
 242 691 242 691 221 691 c 0,61,62
 199 691 199 691 185 676.5 c 128,-1,63
 171 662 171 662 171 642 c 128,-1,64
 171 622 171 622 184.5 608 c 128,-1,65
 198 594 198 594 219 594 c 0,56,57
EndSplineSet
Substitution2: "<3,3> Small Caps in Latin lookup 11 subtable" aring.sc
EndChar

StartChar: ae
Encoding: 230 230 168
Width: 770
GlyphClass: 1
Flags: W
LayerCount: 2
Fore
SplineSet
170 -14 m 0,0,1
 119 -14 119 -14 78.5 12 c 128,-1,2
 38 38 38 38 38 97 c 0,3,4
 38 138 38 138 59 170 c 128,-1,5
 80 202 80 202 121.5 225 c 128,-1,6
 163 248 163 248 201.5 262 c 128,-1,7
 240 276 240 276 299 292 c 1,8,-1
 299 355 l 2,9,10
 299 441 299 441 231 441 c 0,11,12
 202 441 202 441 184.5 424 c 128,-1,13
 167 407 167 407 161.5 386.5 c 128,-1,14
 156 366 156 366 142 349 c 128,-1,15
 128 332 128 332 104 332 c 0,16,17
 81 332 81 332 67.5 345.5 c 128,-1,18
 54 359 54 359 54 380 c 0,19,20
 54 423 54 423 108.5 452.5 c 128,-1,21
 163 482 163 482 235 482 c 0,22,23
 338 482 338 482 376 413 c 1,24,25
 442 482 442 482 530 482 c 0,26,27
 619 482 619 482 671 416.5 c 128,-1,28
 723 351 723 351 729 257 c 1,29,-1
 392 257 l 1,30,31
 392 146 392 146 439 93 c 0,32,33
 483 43 483 43 550 43 c 0,34,35
 637 43 637 43 707 122 c 1,36,-1
 734 101 l 1,37,38
 650 -14 650 -14 524 -14 c 0,39,40
 405 -14 405 -14 342 79 c 1,41,42
 340 77 340 77 325.5 63.5 c 128,-1,43
 311 50 311 50 307.5 47 c 128,-1,44
 304 44 304 44 290 32 c 128,-1,45
 276 20 276 20 269.5 16.5 c 128,-1,46
 263 13 263 13 249 5 c 128,-1,47
 235 -3 235 -3 224.5 -5.5 c 128,-1,48
 214 -8 214 -8 199.5 -11 c 128,-1,49
 185 -14 185 -14 170 -14 c 0,0,1
193 37 m 0,50,51
 255 37 255 37 325 106 c 1,52,53
 301 153 301 153 301 221 c 2,54,-1
 301 252 l 1,55,56
 235 232 235 232 182.5 194.5 c 128,-1,57
 130 157 130 157 130 104 c 0,58,59
 130 75 130 75 147 56 c 128,-1,60
 164 37 164 37 193 37 c 0,50,51
635 301 m 1,61,62
 624 445 624 445 525 445 c 0,63,64
 478 445 478 445 444.5 409 c 128,-1,65
 411 373 411 373 399 301 c 1,66,-1
 635 301 l 1,61,62
EndSplineSet
Substitution2: "<3,3> Small Caps in Latin lookup 11 subtable" ae.sc
EndChar

StartChar: ccedilla
Encoding: 231 231 169
Width: 462
GlyphClass: 1
Flags: W
LayerCount: 2
Fore
SplineSet
215 -217 m 0,0,1
 167 -217 167 -217 123 -197 c 1,2,-1
 141 -164 l 1,3,4
 182 -183 182 -183 210 -183 c 0,5,6
 235 -183 235 -183 252.5 -170 c 128,-1,7
 270 -157 270 -157 270 -133 c 0,8,9
 270 -96 270 -96 229 -96 c 0,10,11
 222 -96 222 -96 201 -99 c 1,12,-1
 190 -93 l 1,13,-1
 224 -13 l 1,14,15
 145 -4 145 -4 93 61 c 128,-1,16
 41 126 41 126 41 219 c 0,17,18
 41 327 41 327 109 404.5 c 128,-1,19
 177 482 177 482 273 482 c 0,20,21
 332 482 332 482 379.5 453 c 128,-1,22
 427 424 427 424 427 387 c 0,23,24
 427 366 427 366 412 351 c 128,-1,25
 397 336 397 336 374 336 c 0,26,27
 352 336 352 336 338.5 352.5 c 128,-1,28
 325 369 325 369 319.5 389 c 128,-1,29
 314 409 314 409 297 425.5 c 128,-1,30
 280 442 280 442 252 442 c 0,31,32
 199 442 199 442 166.5 388.5 c 128,-1,33
 134 335 134 335 134 249 c 0,34,35
 134 156 134 156 172.5 99.5 c 128,-1,36
 211 43 211 43 275 43 c 0,37,38
 353 43 353 43 410 130 c 1,39,-1
 443 109 l 1,40,41
 374 -11 374 -11 254 -14 c 1,42,-1
 236 -68 l 1,43,44
 252 -63 252 -63 268 -63 c 0,45,46
 298 -63 298 -63 318 -82.5 c 128,-1,47
 338 -102 338 -102 338 -132 c 0,48,49
 338 -172 338 -172 303.5 -194.5 c 128,-1,50
 269 -217 269 -217 215 -217 c 0,0,1
EndSplineSet
Substitution2: "<3,3> Small Caps in Latin lookup 11 subtable" ccedilla.sc
EndChar

StartChar: egrave
Encoding: 232 232 170
Width: 510
GlyphClass: 1
Flags: W
LayerCount: 2
Fore
SplineSet
266 -14 m 0,0,1
 171 -14 171 -14 106 49.5 c 128,-1,2
 41 113 41 113 41 217 c 0,3,4
 41 324 41 324 107.5 403 c 128,-1,5
 174 482 174 482 272 482 c 0,6,7
 359 482 359 482 411 416.5 c 128,-1,8
 463 351 463 351 469 257 c 1,9,-1
 133 257 l 1,10,11
 133 145 133 145 179 93 c 0,12,13
 223 43 223 43 292 43 c 0,14,15
 377 43 377 43 448 122 c 1,16,-1
 475 101 l 1,17,18
 393 -14 393 -14 266 -14 c 0,0,1
375 301 m 1,19,20
 370 377 370 377 340 411 c 128,-1,21
 310 445 310 445 266 445 c 0,22,23
 219 445 219 445 185 409 c 128,-1,24
 151 373 151 373 139 301 c 1,25,-1
 375 301 l 1,19,20
179 610 m 2,26,27
 166 618 166 618 159 622.5 c 128,-1,28
 152 627 152 627 145.5 636.5 c 128,-1,29
 139 646 139 646 139 656 c 0,30,31
 139 670 139 670 149.5 680.5 c 128,-1,32
 160 691 160 691 175 691 c 0,33,34
 193 691 193 691 229 655 c 2,35,-1
 350 533 l 1,36,-1
 318 526 l 1,37,-1
 179 610 l 2,26,27
EndSplineSet
Substitution2: "<3,3> Small Caps in Latin lookup 11 subtable" egrave.sc
EndChar

StartChar: eacute
Encoding: 233 233 171
Width: 510
GlyphClass: 1
Flags: W
LayerCount: 2
Fore
SplineSet
266 -14 m 0,0,1
 171 -14 171 -14 106 49.5 c 128,-1,2
 41 113 41 113 41 217 c 0,3,4
 41 324 41 324 107.5 403 c 128,-1,5
 174 482 174 482 272 482 c 0,6,7
 359 482 359 482 411 416.5 c 128,-1,8
 463 351 463 351 469 257 c 1,9,-1
 133 257 l 1,10,11
 133 145 133 145 179 93 c 0,12,13
 223 43 223 43 292 43 c 0,14,15
 377 43 377 43 448 122 c 1,16,-1
 475 101 l 1,17,18
 393 -14 393 -14 266 -14 c 0,0,1
375 301 m 1,19,20
 370 377 370 377 340 411 c 128,-1,21
 310 445 310 445 266 445 c 0,22,23
 219 445 219 445 185 409 c 128,-1,24
 151 373 151 373 139 301 c 1,25,-1
 375 301 l 1,19,20
231 526 m 1,26,-1
 200 533 l 1,27,-1
 321 655 l 2,28,29
 357 691 357 691 376 691 c 0,30,31
 390 691 390 691 400.5 680.5 c 128,-1,32
 411 670 411 670 411 656 c 0,33,34
 411 641 411 641 401 631.5 c 128,-1,35
 391 622 391 622 371 610 c 2,36,-1
 231 526 l 1,26,-1
EndSplineSet
Substitution2: "<3,3> Small Caps in Latin lookup 11 subtable" eacute.sc
EndChar

StartChar: ecircumflex
Encoding: 234 234 172
Width: 510
GlyphClass: 1
Flags: W
LayerCount: 2
Fore
SplineSet
266 -14 m 0,0,1
 171 -14 171 -14 106 49.5 c 128,-1,2
 41 113 41 113 41 217 c 0,3,4
 41 324 41 324 107.5 403 c 128,-1,5
 174 482 174 482 272 482 c 0,6,7
 359 482 359 482 411 416.5 c 128,-1,8
 463 351 463 351 469 257 c 1,9,-1
 133 257 l 1,10,11
 133 145 133 145 179 93 c 0,12,13
 223 43 223 43 292 43 c 0,14,15
 377 43 377 43 448 122 c 1,16,-1
 475 101 l 1,17,18
 393 -14 393 -14 266 -14 c 0,0,1
375 301 m 1,19,20
 370 377 370 377 340 411 c 128,-1,21
 310 445 310 445 266 445 c 0,22,23
 219 445 219 445 185 409 c 128,-1,24
 151 373 151 373 139 301 c 1,25,-1
 375 301 l 1,19,20
133 526 m 1,26,-1
 247 689 l 1,27,-1
 291 689 l 1,28,-1
 404 526 l 1,29,-1
 369 526 l 1,30,-1
 269 630 l 1,31,-1
 170 526 l 1,32,-1
 133 526 l 1,26,-1
EndSplineSet
Substitution2: "<3,3> Small Caps in Latin lookup 11 subtable" ecircumflex.sc
EndChar

StartChar: edieresis
Encoding: 235 235 173
Width: 510
GlyphClass: 1
Flags: W
LayerCount: 2
Fore
SplineSet
266 -14 m 0,0,1
 171 -14 171 -14 106 49.5 c 128,-1,2
 41 113 41 113 41 217 c 0,3,4
 41 324 41 324 107.5 403 c 128,-1,5
 174 482 174 482 272 482 c 0,6,7
 359 482 359 482 411 416.5 c 128,-1,8
 463 351 463 351 469 257 c 1,9,-1
 133 257 l 1,10,11
 133 145 133 145 179 93 c 0,12,13
 223 43 223 43 292 43 c 0,14,15
 377 43 377 43 448 122 c 1,16,-1
 475 101 l 1,17,18
 393 -14 393 -14 266 -14 c 0,0,1
375 301 m 1,19,20
 370 377 370 377 340 411 c 128,-1,21
 310 445 310 445 266 445 c 0,22,23
 219 445 219 445 185 409 c 128,-1,24
 151 373 151 373 139 301 c 1,25,-1
 375 301 l 1,19,20
357 555 m 128,-1,27
 335 555 335 555 319.5 570 c 128,-1,28
 304 585 304 585 304 608 c 128,-1,29
 304 631 304 631 319.5 645 c 128,-1,30
 335 659 335 659 357 659 c 128,-1,31
 379 659 379 659 394 645 c 128,-1,32
 409 631 409 631 409 608 c 128,-1,33
 409 585 409 585 394 570 c 128,-1,26
 379 555 379 555 357 555 c 128,-1,27
185 555 m 128,-1,35
 163 555 163 555 147.5 570 c 128,-1,36
 132 585 132 585 132 608 c 128,-1,37
 132 631 132 631 147.5 645 c 128,-1,38
 163 659 163 659 185 659 c 128,-1,39
 207 659 207 659 222 645 c 128,-1,40
 237 631 237 631 237 608 c 128,-1,41
 237 585 237 585 222 570 c 128,-1,34
 207 555 207 555 185 555 c 128,-1,35
EndSplineSet
Substitution2: "<3,3> Small Caps in Latin lookup 11 subtable" edieresis.sc
EndChar

StartChar: igrave
Encoding: 236 236 174
Width: 270
GlyphClass: 1
Flags: W
LayerCount: 2
Fore
SplineSet
34 0 m 1,0,-1
 34 40 l 1,1,-1
 42 40 l 2,2,3
 80 40 80 40 91 53 c 128,-1,4
 102 66 102 66 102 98 c 2,5,-1
 102 337 l 2,6,7
 102 382 102 382 90.5 393.5 c 128,-1,8
 79 405 79 405 34 412 c 1,9,-1
 34 442 l 1,10,-1
 185 490 l 1,11,-1
 185 98 l 2,12,13
 185 63 185 63 196 51.5 c 128,-1,14
 207 40 207 40 246 40 c 1,15,-1
 246 0 l 1,16,-1
 34 0 l 1,0,-1
50 610 m 2,17,18
 37 618 37 618 30 622.5 c 128,-1,19
 23 627 23 627 16.5 636.5 c 128,-1,20
 10 646 10 646 10 656 c 0,21,22
 10 670 10 670 20.5 680.5 c 128,-1,23
 31 691 31 691 46 691 c 0,24,25
 64 691 64 691 100 655 c 2,26,-1
 221 533 l 1,27,-1
 189 526 l 1,28,-1
 50 610 l 2,17,18
EndSplineSet
Substitution2: "<3,3> Small Caps in Latin lookup 11 subtable" igrave.sc
EndChar

StartChar: iacute
Encoding: 237 237 175
Width: 270
GlyphClass: 1
Flags: W
LayerCount: 2
Fore
SplineSet
34 0 m 1,0,-1
 34 40 l 1,1,-1
 42 40 l 2,2,3
 80 40 80 40 91 53 c 128,-1,4
 102 66 102 66 102 98 c 2,5,-1
 102 337 l 2,6,7
 102 382 102 382 90.5 393.5 c 128,-1,8
 79 405 79 405 34 412 c 1,9,-1
 34 442 l 1,10,-1
 185 490 l 1,11,-1
 185 98 l 2,12,13
 185 63 185 63 196 51.5 c 128,-1,14
 207 40 207 40 246 40 c 1,15,-1
 246 0 l 1,16,-1
 34 0 l 1,0,-1
102 526 m 1,17,-1
 71 533 l 1,18,-1
 192 655 l 2,19,20
 228 691 228 691 247 691 c 0,21,22
 261 691 261 691 271.5 680.5 c 128,-1,23
 282 670 282 670 282 656 c 0,24,25
 282 641 282 641 272 631.5 c 128,-1,26
 262 622 262 622 242 610 c 2,27,-1
 102 526 l 1,17,-1
EndSplineSet
Substitution2: "<3,3> Small Caps in Latin lookup 11 subtable" iacute.sc
EndChar

StartChar: icircumflex
Encoding: 238 238 176
Width: 270
GlyphClass: 1
Flags: W
LayerCount: 2
Fore
SplineSet
34 0 m 1,0,-1
 34 40 l 1,1,-1
 42 40 l 2,2,3
 80 40 80 40 91 53 c 128,-1,4
 102 66 102 66 102 98 c 2,5,-1
 102 337 l 2,6,7
 102 382 102 382 90.5 393.5 c 128,-1,8
 79 405 79 405 34 412 c 1,9,-1
 34 442 l 1,10,-1
 185 490 l 1,11,-1
 185 98 l 2,12,13
 185 63 185 63 196 51.5 c 128,-1,14
 207 40 207 40 246 40 c 1,15,-1
 246 0 l 1,16,-1
 34 0 l 1,0,-1
4 526 m 1,17,-1
 118 689 l 1,18,-1
 162 689 l 1,19,-1
 275 526 l 1,20,-1
 240 526 l 1,21,-1
 140 630 l 1,22,-1
 41 526 l 1,23,-1
 4 526 l 1,17,-1
EndSplineSet
Substitution2: "<3,3> Small Caps in Latin lookup 11 subtable" icircumflex.sc
EndChar

StartChar: idieresis
Encoding: 239 239 177
Width: 270
GlyphClass: 1
Flags: W
LayerCount: 2
Fore
SplineSet
34 0 m 1,0,-1
 34 40 l 1,1,-1
 42 40 l 2,2,3
 80 40 80 40 91 53 c 128,-1,4
 102 66 102 66 102 98 c 2,5,-1
 102 337 l 2,6,7
 102 382 102 382 90.5 393.5 c 128,-1,8
 79 405 79 405 34 412 c 1,9,-1
 34 442 l 1,10,-1
 185 490 l 1,11,-1
 185 98 l 2,12,13
 185 63 185 63 196 51.5 c 128,-1,14
 207 40 207 40 246 40 c 1,15,-1
 246 0 l 1,16,-1
 34 0 l 1,0,-1
228 555 m 128,-1,18
 206 555 206 555 190.5 570 c 128,-1,19
 175 585 175 585 175 608 c 128,-1,20
 175 631 175 631 190.5 645 c 128,-1,21
 206 659 206 659 228 659 c 128,-1,22
 250 659 250 659 265 645 c 128,-1,23
 280 631 280 631 280 608 c 128,-1,24
 280 585 280 585 265 570 c 128,-1,17
 250 555 250 555 228 555 c 128,-1,18
56 555 m 128,-1,26
 34 555 34 555 18.5 570 c 128,-1,27
 3 585 3 585 3 608 c 128,-1,28
 3 631 3 631 18.5 645 c 128,-1,29
 34 659 34 659 56 659 c 128,-1,30
 78 659 78 659 93 645 c 128,-1,31
 108 631 108 631 108 608 c 128,-1,32
 108 585 108 585 93 570 c 128,-1,25
 78 555 78 555 56 555 c 128,-1,26
EndSplineSet
Substitution2: "<3,3> Small Caps in Latin lookup 11 subtable" idieresis.sc
EndChar

StartChar: eth
Encoding: 240 240 178
Width: 533
GlyphClass: 1
Flags: W
LayerCount: 2
Fore
SplineSet
258 -14 m 0,0,1
 167 -14 167 -14 104 58.5 c 128,-1,2
 41 131 41 131 41 235 c 0,3,4
 41 343 41 343 108 412.5 c 128,-1,5
 175 482 175 482 262 482 c 0,6,7
 310 482 310 482 355 458 c 1,8,9
 342 497 342 497 315 546 c 128,-1,10
 288 595 288 595 268 616 c 1,11,-1
 99 525 l 1,12,-1
 83 559 l 1,13,-1
 242 645 l 1,14,15
 218 676 218 676 120 738 c 1,16,-1
 142 772 l 1,17,18
 178 759 178 759 226.5 731 c 128,-1,19
 275 703 275 703 302 677 c 1,20,-1
 466 766 l 1,21,-1
 485 735 l 1,22,-1
 332 652 l 1,23,24
 395 592 395 592 443.5 496 c 128,-1,25
 492 400 492 400 492 291 c 0,26,27
 492 165 492 165 426 75.5 c 128,-1,28
 360 -14 360 -14 258 -14 c 0,0,1
261 23 m 128,-1,30
 320 23 320 23 353.5 84 c 128,-1,31
 387 145 387 145 387 235 c 0,32,33
 387 324 387 324 353.5 384.5 c 128,-1,34
 320 445 320 445 261 445 c 0,35,36
 201 445 201 445 168 384.5 c 128,-1,37
 135 324 135 324 135 234 c 128,-1,38
 135 144 135 144 168.5 83.5 c 128,-1,29
 202 23 202 23 261 23 c 128,-1,30
EndSplineSet
Substitution2: "<3,3> Small Caps in Latin lookup 11 subtable" eth.sc
EndChar

StartChar: ntilde
Encoding: 241 241 179
Width: 544
GlyphClass: 1
Flags: W
LayerCount: 2
Fore
SplineSet
34 0 m 1,0,-1
 34 40 l 1,1,-1
 42 40 l 2,2,3
 80 40 80 40 91 53 c 128,-1,4
 102 66 102 66 102 98 c 2,5,-1
 102 337 l 2,6,7
 102 382 102 382 90.5 393.5 c 128,-1,8
 79 405 79 405 34 412 c 1,9,-1
 34 442 l 1,10,-1
 185 490 l 1,11,-1
 185 408 l 1,12,13
 262 482 262 482 336 482 c 0,14,15
 391 482 391 482 424.5 444 c 128,-1,16
 458 406 458 406 458 325 c 2,17,-1
 458 98 l 2,18,19
 458 63 458 63 469.5 51.5 c 128,-1,20
 481 40 481 40 520 40 c 1,21,-1
 520 0 l 1,22,-1
 314 0 l 1,23,-1
 314 40 l 1,24,-1
 316 40 l 2,25,26
 354 40 354 40 364.5 52 c 128,-1,27
 375 64 375 64 375 96 c 2,28,-1
 375 322 l 2,29,30
 375 377 375 377 354 401 c 128,-1,31
 333 425 333 425 302 425 c 0,32,33
 250 425 250 425 185 363 c 1,34,-1
 185 99 l 2,35,36
 185 64 185 64 196 52 c 128,-1,37
 207 40 207 40 246 40 c 1,38,-1
 246 0 l 1,39,-1
 34 0 l 1,0,-1
339 549 m 0,40,41
 320 549 320 549 266.5 575 c 128,-1,42
 213 601 213 601 201 601 c 0,43,44
 180 601 180 601 167 555 c 1,45,-1
 132 566 l 1,46,47
 161 666 161 666 205 666 c 0,48,49
 224 666 224 666 277.5 640 c 128,-1,50
 331 614 331 614 343 614 c 0,51,52
 366 614 366 614 378 661 c 1,53,-1
 413 649 l 1,54,55
 384 549 384 549 339 549 c 0,40,41
EndSplineSet
Substitution2: "<3,3> Small Caps in Latin lookup 11 subtable" ntilde.sc
EndChar

StartChar: ograve
Encoding: 242 242 180
Width: 522
GlyphClass: 1
Flags: W
LayerCount: 2
Fore
SplineSet
261 -14 m 0,0,1
 162 -14 162 -14 101.5 61 c 128,-1,2
 41 136 41 136 41 237 c 0,3,4
 41 344 41 344 108.5 413 c 128,-1,5
 176 482 176 482 263 482 c 128,-1,6
 350 482 350 482 415.5 411.5 c 128,-1,7
 481 341 481 341 481 236 c 0,8,9
 481 135 481 135 420 60.5 c 128,-1,10
 359 -14 359 -14 261 -14 c 0,0,1
261 23 m 128,-1,12
 320 23 320 23 353.5 84 c 128,-1,13
 387 145 387 145 387 235 c 0,14,15
 387 324 387 324 353.5 384.5 c 128,-1,16
 320 445 320 445 261 445 c 0,17,18
 201 445 201 445 168 384.5 c 128,-1,19
 135 324 135 324 135 234 c 128,-1,20
 135 144 135 144 168.5 83.5 c 128,-1,11
 202 23 202 23 261 23 c 128,-1,12
171 610 m 2,21,22
 158 618 158 618 151 622.5 c 128,-1,23
 144 627 144 627 137.5 636.5 c 128,-1,24
 131 646 131 646 131 656 c 0,25,26
 131 670 131 670 141.5 680.5 c 128,-1,27
 152 691 152 691 167 691 c 0,28,29
 185 691 185 691 221 655 c 2,30,-1
 342 533 l 1,31,-1
 310 526 l 1,32,-1
 171 610 l 2,21,22
EndSplineSet
Substitution2: "<3,3> Small Caps in Latin lookup 11 subtable" ograve.sc
EndChar

StartChar: oacute
Encoding: 243 243 181
Width: 522
GlyphClass: 1
Flags: W
LayerCount: 2
Fore
SplineSet
261 -14 m 0,0,1
 162 -14 162 -14 101.5 61 c 128,-1,2
 41 136 41 136 41 237 c 0,3,4
 41 344 41 344 108.5 413 c 128,-1,5
 176 482 176 482 263 482 c 128,-1,6
 350 482 350 482 415.5 411.5 c 128,-1,7
 481 341 481 341 481 236 c 0,8,9
 481 135 481 135 420 60.5 c 128,-1,10
 359 -14 359 -14 261 -14 c 0,0,1
261 23 m 128,-1,12
 320 23 320 23 353.5 84 c 128,-1,13
 387 145 387 145 387 235 c 0,14,15
 387 324 387 324 353.5 384.5 c 128,-1,16
 320 445 320 445 261 445 c 0,17,18
 201 445 201 445 168 384.5 c 128,-1,19
 135 324 135 324 135 234 c 128,-1,20
 135 144 135 144 168.5 83.5 c 128,-1,11
 202 23 202 23 261 23 c 128,-1,12
223 526 m 1,21,-1
 192 533 l 1,22,-1
 313 655 l 2,23,24
 349 691 349 691 368 691 c 0,25,26
 382 691 382 691 392.5 680.5 c 128,-1,27
 403 670 403 670 403 656 c 0,28,29
 403 641 403 641 393 631.5 c 128,-1,30
 383 622 383 622 363 610 c 2,31,-1
 223 526 l 1,21,-1
EndSplineSet
Substitution2: "<3,3> Small Caps in Latin lookup 11 subtable" oacute.sc
EndChar

StartChar: ocircumflex
Encoding: 244 244 182
Width: 522
GlyphClass: 1
Flags: W
LayerCount: 2
Fore
SplineSet
261 -14 m 0,0,1
 162 -14 162 -14 101.5 61 c 128,-1,2
 41 136 41 136 41 237 c 0,3,4
 41 344 41 344 108.5 413 c 128,-1,5
 176 482 176 482 263 482 c 128,-1,6
 350 482 350 482 415.5 411.5 c 128,-1,7
 481 341 481 341 481 236 c 0,8,9
 481 135 481 135 420 60.5 c 128,-1,10
 359 -14 359 -14 261 -14 c 0,0,1
261 23 m 128,-1,12
 320 23 320 23 353.5 84 c 128,-1,13
 387 145 387 145 387 235 c 0,14,15
 387 324 387 324 353.5 384.5 c 128,-1,16
 320 445 320 445 261 445 c 0,17,18
 201 445 201 445 168 384.5 c 128,-1,19
 135 324 135 324 135 234 c 128,-1,20
 135 144 135 144 168.5 83.5 c 128,-1,11
 202 23 202 23 261 23 c 128,-1,12
125 526 m 1,21,-1
 239 689 l 1,22,-1
 283 689 l 1,23,-1
 396 526 l 1,24,-1
 361 526 l 1,25,-1
 261 630 l 1,26,-1
 162 526 l 1,27,-1
 125 526 l 1,21,-1
EndSplineSet
Substitution2: "<3,3> Small Caps in Latin lookup 11 subtable" ocircumflex.sc
EndChar

StartChar: otilde
Encoding: 245 245 183
Width: 522
GlyphClass: 1
Flags: W
LayerCount: 2
Fore
SplineSet
261 -14 m 0,0,1
 162 -14 162 -14 101.5 61 c 128,-1,2
 41 136 41 136 41 237 c 0,3,4
 41 344 41 344 108.5 413 c 128,-1,5
 176 482 176 482 263 482 c 128,-1,6
 350 482 350 482 415.5 411.5 c 128,-1,7
 481 341 481 341 481 236 c 0,8,9
 481 135 481 135 420 60.5 c 128,-1,10
 359 -14 359 -14 261 -14 c 0,0,1
261 23 m 128,-1,12
 320 23 320 23 353.5 84 c 128,-1,13
 387 145 387 145 387 235 c 0,14,15
 387 324 387 324 353.5 384.5 c 128,-1,16
 320 445 320 445 261 445 c 0,17,18
 201 445 201 445 168 384.5 c 128,-1,19
 135 324 135 324 135 234 c 128,-1,20
 135 144 135 144 168.5 83.5 c 128,-1,11
 202 23 202 23 261 23 c 128,-1,12
332 549 m 0,21,22
 313 549 313 549 259.5 575 c 128,-1,23
 206 601 206 601 194 601 c 0,24,25
 173 601 173 601 160 555 c 1,26,-1
 125 566 l 1,27,28
 154 666 154 666 198 666 c 0,29,30
 217 666 217 666 270.5 640 c 128,-1,31
 324 614 324 614 336 614 c 0,32,33
 359 614 359 614 371 661 c 1,34,-1
 406 649 l 1,35,36
 377 549 377 549 332 549 c 0,21,22
EndSplineSet
Substitution2: "<3,3> Small Caps in Latin lookup 11 subtable" otilde.sc
EndChar

StartChar: odieresis
Encoding: 246 246 184
Width: 522
GlyphClass: 1
Flags: W
LayerCount: 2
Fore
SplineSet
261 -14 m 0,0,1
 162 -14 162 -14 101.5 61 c 128,-1,2
 41 136 41 136 41 237 c 0,3,4
 41 344 41 344 108.5 413 c 128,-1,5
 176 482 176 482 263 482 c 128,-1,6
 350 482 350 482 415.5 411.5 c 128,-1,7
 481 341 481 341 481 236 c 0,8,9
 481 135 481 135 420 60.5 c 128,-1,10
 359 -14 359 -14 261 -14 c 0,0,1
261 23 m 128,-1,12
 320 23 320 23 353.5 84 c 128,-1,13
 387 145 387 145 387 235 c 0,14,15
 387 324 387 324 353.5 384.5 c 128,-1,16
 320 445 320 445 261 445 c 0,17,18
 201 445 201 445 168 384.5 c 128,-1,19
 135 324 135 324 135 234 c 128,-1,20
 135 144 135 144 168.5 83.5 c 128,-1,11
 202 23 202 23 261 23 c 128,-1,12
349 555 m 128,-1,22
 327 555 327 555 311.5 570 c 128,-1,23
 296 585 296 585 296 608 c 128,-1,24
 296 631 296 631 311.5 645 c 128,-1,25
 327 659 327 659 349 659 c 128,-1,26
 371 659 371 659 386 645 c 128,-1,27
 401 631 401 631 401 608 c 128,-1,28
 401 585 401 585 386 570 c 128,-1,21
 371 555 371 555 349 555 c 128,-1,22
177 555 m 128,-1,30
 155 555 155 555 139.5 570 c 128,-1,31
 124 585 124 585 124 608 c 128,-1,32
 124 631 124 631 139.5 645 c 128,-1,33
 155 659 155 659 177 659 c 128,-1,34
 199 659 199 659 214 645 c 128,-1,35
 229 631 229 631 229 608 c 128,-1,36
 229 585 229 585 214 570 c 128,-1,29
 199 555 199 555 177 555 c 128,-1,30
EndSplineSet
Substitution2: "<3,3> Small Caps in Latin lookup 11 subtable" odieresis.sc
EndChar

StartChar: divide
Encoding: 247 247 185
Width: 601
GlyphClass: 1
Flags: W
LayerCount: 2
Fore
SplineSet
62 203 m 1,0,-1
 62 275 l 1,1,-1
 539 275 l 1,2,-1
 539 203 l 1,3,-1
 62 203 l 1,0,-1
301 -16 m 128,-1,5
 272 -16 272 -16 250.5 5 c 128,-1,6
 229 26 229 26 229 55 c 128,-1,7
 229 84 229 84 250.5 105 c 128,-1,8
 272 126 272 126 301 126 c 128,-1,9
 330 126 330 126 351 105 c 128,-1,10
 372 84 372 84 372 55 c 128,-1,11
 372 26 372 26 351 5 c 128,-1,4
 330 -16 330 -16 301 -16 c 128,-1,5
301 351 m 128,-1,13
 272 351 272 351 250.5 372.5 c 128,-1,14
 229 394 229 394 229 423 c 128,-1,15
 229 452 229 452 250.5 473 c 128,-1,16
 272 494 272 494 301 494 c 128,-1,17
 330 494 330 494 351 473 c 128,-1,18
 372 452 372 452 372 423 c 128,-1,19
 372 394 372 394 351 372.5 c 128,-1,12
 330 351 330 351 301 351 c 128,-1,13
EndSplineSet
EndChar

StartChar: oslash
Encoding: 248 248 186
Width: 522
GlyphClass: 1
Flags: W
LayerCount: 2
Fore
SplineSet
121 -54 m 1,0,-1
 90 -36 l 1,1,-1
 129 34 l 1,2,3
 87 69 87 69 64 123 c 128,-1,4
 41 177 41 177 41 237 c 0,5,6
 41 344 41 344 108 413 c 128,-1,7
 175 482 175 482 262 482 c 0,8,9
 315 482 315 482 363 454 c 1,10,-1
 401 522 l 1,11,-1
 432 505 l 1,12,-1
 392 434 l 1,13,14
 481 360 481 360 481 236 c 0,15,16
 481 135 481 135 420 60.5 c 128,-1,17
 359 -14 359 -14 262 -14 c 0,18,19
 205 -14 205 -14 159 13 c 1,20,-1
 121 -54 l 1,0,-1
261 23 m 0,21,22
 320 23 320 23 353.5 84 c 128,-1,23
 387 145 387 145 387 235 c 0,24,25
 387 315 387 315 359 373 c 1,26,-1
 185 61 l 1,27,28
 215 23 215 23 261 23 c 0,21,22
337 408 m 1,29,30
 306 445 306 445 261 445 c 0,31,32
 202 445 202 445 168.5 385 c 128,-1,33
 135 325 135 325 135 237 c 0,34,35
 135 155 135 155 162 95 c 1,36,-1
 337 408 l 1,29,30
EndSplineSet
Substitution2: "<3,3> Small Caps in Latin lookup 11 subtable" oslash.sc
EndChar

StartChar: ugrave
Encoding: 249 249 187
Width: 537
GlyphClass: 1
Flags: W
LayerCount: 2
Fore
SplineSet
215 -14 m 0,0,1
 154 -14 154 -14 123 24 c 0,2,3
 94 59 94 59 94 168 c 2,4,-1
 94 337 l 2,5,6
 94 382 94 382 82.5 393.5 c 128,-1,7
 71 405 71 405 26 412 c 1,8,-1
 26 442 l 1,9,-1
 177 490 l 1,10,-1
 177 169 l 2,11,12
 177 104 177 104 193 78 c 0,13,14
 209 51 209 51 248 51 c 0,15,16
 305 51 305 51 368 116 c 1,17,-1
 368 337 l 2,18,19
 368 382 368 382 356.5 393.5 c 128,-1,20
 345 405 345 405 299 412 c 1,21,-1
 299 442 l 1,22,-1
 451 490 l 1,23,-1
 451 109 l 2,24,25
 451 61 451 61 462.5 49 c 128,-1,26
 474 37 474 37 512 36 c 1,27,-1
 512 0 l 1,28,-1
 368 -9 l 1,29,-1
 368 68 l 1,30,31
 291 -14 291 -14 215 -14 c 0,0,1
178 610 m 2,32,33
 165 618 165 618 158 622.5 c 128,-1,34
 151 627 151 627 144.5 636.5 c 128,-1,35
 138 646 138 646 138 656 c 0,36,37
 138 670 138 670 148.5 680.5 c 128,-1,38
 159 691 159 691 174 691 c 0,39,40
 192 691 192 691 228 655 c 2,41,-1
 349 533 l 1,42,-1
 317 526 l 1,43,-1
 178 610 l 2,32,33
EndSplineSet
Substitution2: "<3,3> Small Caps in Latin lookup 11 subtable" ugrave.sc
EndChar

StartChar: uacute
Encoding: 250 250 188
Width: 537
GlyphClass: 1
Flags: W
LayerCount: 2
Fore
SplineSet
215 -14 m 0,0,1
 154 -14 154 -14 123 24 c 0,2,3
 94 59 94 59 94 168 c 2,4,-1
 94 337 l 2,5,6
 94 382 94 382 82.5 393.5 c 128,-1,7
 71 405 71 405 26 412 c 1,8,-1
 26 442 l 1,9,-1
 177 490 l 1,10,-1
 177 169 l 2,11,12
 177 104 177 104 193 78 c 0,13,14
 209 51 209 51 248 51 c 0,15,16
 305 51 305 51 368 116 c 1,17,-1
 368 337 l 2,18,19
 368 382 368 382 356.5 393.5 c 128,-1,20
 345 405 345 405 299 412 c 1,21,-1
 299 442 l 1,22,-1
 451 490 l 1,23,-1
 451 109 l 2,24,25
 451 61 451 61 462.5 49 c 128,-1,26
 474 37 474 37 512 36 c 1,27,-1
 512 0 l 1,28,-1
 368 -9 l 1,29,-1
 368 68 l 1,30,31
 291 -14 291 -14 215 -14 c 0,0,1
230 526 m 1,32,-1
 199 533 l 1,33,-1
 320 655 l 2,34,35
 356 691 356 691 375 691 c 0,36,37
 389 691 389 691 399.5 680.5 c 128,-1,38
 410 670 410 670 410 656 c 0,39,40
 410 641 410 641 400 631.5 c 128,-1,41
 390 622 390 622 370 610 c 2,42,-1
 230 526 l 1,32,-1
EndSplineSet
Substitution2: "<3,3> Small Caps in Latin lookup 11 subtable" uacute.sc
EndChar

StartChar: ucircumflex
Encoding: 251 251 189
Width: 537
GlyphClass: 1
Flags: W
LayerCount: 2
Fore
SplineSet
215 -14 m 0,0,1
 154 -14 154 -14 123 24 c 0,2,3
 94 59 94 59 94 168 c 2,4,-1
 94 337 l 2,5,6
 94 382 94 382 82.5 393.5 c 128,-1,7
 71 405 71 405 26 412 c 1,8,-1
 26 442 l 1,9,-1
 177 490 l 1,10,-1
 177 169 l 2,11,12
 177 104 177 104 193 78 c 0,13,14
 209 51 209 51 248 51 c 0,15,16
 305 51 305 51 368 116 c 1,17,-1
 368 337 l 2,18,19
 368 382 368 382 356.5 393.5 c 128,-1,20
 345 405 345 405 299 412 c 1,21,-1
 299 442 l 1,22,-1
 451 490 l 1,23,-1
 451 109 l 2,24,25
 451 61 451 61 462.5 49 c 128,-1,26
 474 37 474 37 512 36 c 1,27,-1
 512 0 l 1,28,-1
 368 -9 l 1,29,-1
 368 68 l 1,30,31
 291 -14 291 -14 215 -14 c 0,0,1
132 526 m 1,32,-1
 246 689 l 1,33,-1
 290 689 l 1,34,-1
 403 526 l 1,35,-1
 368 526 l 1,36,-1
 268 630 l 1,37,-1
 169 526 l 1,38,-1
 132 526 l 1,32,-1
EndSplineSet
Substitution2: "<3,3> Small Caps in Latin lookup 11 subtable" ucircumflex.sc
EndChar

StartChar: udieresis
Encoding: 252 252 190
Width: 537
GlyphClass: 1
Flags: W
LayerCount: 2
Fore
SplineSet
215 -14 m 0,0,1
 154 -14 154 -14 123 24 c 0,2,3
 94 59 94 59 94 168 c 2,4,-1
 94 337 l 2,5,6
 94 382 94 382 82.5 393.5 c 128,-1,7
 71 405 71 405 26 412 c 1,8,-1
 26 442 l 1,9,-1
 177 490 l 1,10,-1
 177 169 l 2,11,12
 177 104 177 104 193 78 c 0,13,14
 209 51 209 51 248 51 c 0,15,16
 305 51 305 51 368 116 c 1,17,-1
 368 337 l 2,18,19
 368 382 368 382 356.5 393.5 c 128,-1,20
 345 405 345 405 299 412 c 1,21,-1
 299 442 l 1,22,-1
 451 490 l 1,23,-1
 451 109 l 2,24,25
 451 61 451 61 462.5 49 c 128,-1,26
 474 37 474 37 512 36 c 1,27,-1
 512 0 l 1,28,-1
 368 -9 l 1,29,-1
 368 68 l 1,30,31
 291 -14 291 -14 215 -14 c 0,0,1
356 555 m 128,-1,33
 334 555 334 555 318.5 570 c 128,-1,34
 303 585 303 585 303 608 c 128,-1,35
 303 631 303 631 318.5 645 c 128,-1,36
 334 659 334 659 356 659 c 128,-1,37
 378 659 378 659 393 645 c 128,-1,38
 408 631 408 631 408 608 c 128,-1,39
 408 585 408 585 393 570 c 128,-1,32
 378 555 378 555 356 555 c 128,-1,33
184 555 m 128,-1,41
 162 555 162 555 146.5 570 c 128,-1,42
 131 585 131 585 131 608 c 128,-1,43
 131 631 131 631 146.5 645 c 128,-1,44
 162 659 162 659 184 659 c 128,-1,45
 206 659 206 659 221 645 c 128,-1,46
 236 631 236 631 236 608 c 128,-1,47
 236 585 236 585 221 570 c 128,-1,40
 206 555 206 555 184 555 c 128,-1,41
EndSplineSet
Substitution2: "<3,3> Small Caps in Latin lookup 11 subtable" udieresis.sc
EndChar

StartChar: yacute
Encoding: 253 253 191
Width: 469
GlyphClass: 1
Flags: W
LayerCount: 2
Fore
SplineSet
92 -192 m 0,0,1
 55 -192 55 -192 36.5 -174 c 128,-1,2
 18 -156 18 -156 18 -133 c 0,3,4
 18 -114 18 -114 31 -99 c 128,-1,5
 44 -84 44 -84 66 -84 c 0,6,7
 85 -84 85 -84 107.5 -99.5 c 128,-1,8
 130 -115 130 -115 138 -115 c 0,9,10
 166 -115 166 -115 187 -58 c 2,11,-1
 208 0 l 1,12,-1
 67 374 l 2,13,14
 53 412 53 412 44 419 c 0,15,16
 32 428 32 428 -8 428 c 1,17,-1
 -8 468 l 1,18,-1
 208 468 l 1,19,-1
 208 428 l 1,20,21
 147 428 147 428 147 401 c 0,22,23
 147 393 147 393 154 374 c 2,24,-1
 253 98 l 1,25,-1
 342 351 l 2,26,27
 352 379 352 379 352 393 c 0,28,29
 352 428 352 428 282 428 c 1,30,-1
 282 468 l 1,31,-1
 476 468 l 1,32,-1
 476 428 l 1,33,34
 440 427 440 427 425 413.5 c 128,-1,35
 410 400 410 400 394 358 c 2,36,-1
 243 -37 l 2,37,38
 233 -62 233 -62 227 -77 c 128,-1,39
 221 -92 221 -92 206.5 -116.5 c 128,-1,40
 192 -141 192 -141 177.5 -155.5 c 128,-1,41
 163 -170 163 -170 140.5 -181 c 128,-1,42
 118 -192 118 -192 92 -192 c 0,0,1
196 526 m 1,43,-1
 165 533 l 1,44,-1
 286 655 l 2,45,46
 322 691 322 691 341 691 c 0,47,48
 355 691 355 691 365.5 680.5 c 128,-1,49
 376 670 376 670 376 656 c 0,50,51
 376 641 376 641 366 631.5 c 128,-1,52
 356 622 356 622 336 610 c 2,53,-1
 196 526 l 1,43,-1
EndSplineSet
Substitution2: "<3,3> Small Caps in Latin lookup 11 subtable" yacute.sc
EndChar

StartChar: thorn
Encoding: 254 254 192
Width: 539
GlyphClass: 1
Flags: W
LayerCount: 2
Fore
SplineSet
34 -181 m 1,0,-1
 34 -141 l 1,1,-1
 42 -141 l 2,2,3
 80 -141 80 -141 91 -127.5 c 128,-1,4
 102 -114 102 -114 102 -82 c 2,5,-1
 102 576 l 2,6,7
 102 621 102 621 90.5 632.5 c 128,-1,8
 79 644 79 644 34 651 c 1,9,-1
 34 681 l 1,10,-1
 185 729 l 1,11,-1
 185 428 l 1,12,13
 245 482 245 482 310 482 c 0,14,15
 390 482 390 482 444 410 c 128,-1,16
 498 338 498 338 498 234 c 128,-1,17
 498 130 498 130 443 58 c 128,-1,18
 388 -14 388 -14 307 -14 c 0,19,20
 245 -14 245 -14 185 40 c 1,21,-1
 185 -82 l 2,22,23
 185 -118 185 -118 196 -129.5 c 128,-1,24
 207 -141 207 -141 246 -141 c 2,25,-1
 253 -141 l 1,26,-1
 253 -181 l 1,27,-1
 34 -181 l 1,0,-1
285 41 m 0,28,29
 404 41 404 41 404 236 c 128,-1,30
 404 431 404 431 286 431 c 0,31,32
 227 431 227 431 185 377 c 1,33,-1
 185 85 l 1,34,35
 206 69 206 69 216 62.5 c 128,-1,36
 226 56 226 56 245 48.5 c 128,-1,37
 264 41 264 41 285 41 c 0,28,29
EndSplineSet
Substitution2: "<3,3> Small Caps in Latin lookup 11 subtable" thorn.sc
EndChar

